<?xml version="1.0" encoding="UTF-8"?>
<svg xmlns="http://www.w3.org/2000/svg" version="1.1" viewBox="0 0 2100 1061">
  <!-- Generator: Adobe Illustrator 29.8.3, SVG Export Plug-In . SVG Version: 2.1.1 Build 3)  -->
  <defs>
    <style>
      .st0 {
        fill: #8cb4cd;
      }

      .st1 {
        fill: #fdd241;
      }

      .st2 {
        fill: #427aa2;
      }

      .st3 {
        fill: #356485;
      }

      .st4 {
        fill: #4e5f6c;
      }

      .st5 {
        fill: #fff;
      }

      .st6 {
        fill: #fffffa;
      }

      .st7 {
        fill: #fbe7a5;
      }

      .st8 {
        fill: #dae3e6;
      }

      .st9 {
        fill: #1e2725;
      }

      .st10 {
        fill: #28323b;
      }

      .st11 {
        fill: #416e70;
      }

      .st12 {
        fill: #98a4ae;
      }

      .st13 {
        fill: #b0b7c0;
      }

      .st14 {
        fill: #163046;
      }

      .st15 {
        fill: #c2ccd4;
      }

      .st16 {
        fill: #d5a93e;
      }
    </style>
  </defs>
  <g id="Layer_1">
    <polygon class="st6" points="374.6 121.1 409.1 117.6 452.7 65.9 580.3 52.2 723.9 23.4 804.3 15.4 881.3 30.3 956 74 988.1 111.9 1037.5 57.9 1106.5 24.6 1194.9 16.5 1281.1 26.9 1386.8 52.2 1492.5 67.1 1522.4 65.9 1571.8 119.9 1594.8 123.4 1705.1 743.8 252.4 751.8 374.6 121.1"/>
    <polygon class="st2" points="1131.8 999.3 1274.2 1013.8 1400.6 962.5 1438.1 790.2 1380.7 617.8 1513.2 635.4 1559.2 618.6 1566.1 589.5 1536.9 540.5 1514.7 502.9 1376.9 505.2 1327.8 567.3 1309.5 646.2 1347 786.3 1339.3 853 1124.9 954.8 1131.8 999.3"/>
    <path class="st15" d="M831.6,11.8c-.5.4-1.7.1-2.1,0-.4-.1-.7-.1-1.6-.2-1.9-.3-5-.6-6-.8,3.1-.3,6.8-.1,9.7,1h0Z"/>
    <path class="st4" d="M1145.5,11.4c.1.1.9.2,1,.3-.7.4-1.5.4-2.3.3-1.8-.3.8-.6,1.2-.6h0Z"/>
    <path class="st4" d="M831.7,11.8l.6.4c-.4,0-.8,0-1.1-.2.2,0,.4,0,.5-.2Z"/>
    <path class="st4" d="M836.4,12.8c1,0,2.3,0,3.2.6-.9.3-2.5.3-3.2-.5h0Z"/>
    <path class="st11" d="M1136.7,12.8c-.3.3-.8.7-1.3.7-.3,0-1.3-.2-1.3-.3.3,0,2.6-.4,2.6-.4h0Z"/>
    <path class="st5" d="M487.9,58.7c-12.2.8-24.8,1.1-36.7.5,12-.9,24.5-1,36.7-.5h0Z"/>
    <path class="st5" d="M1521.1,59.1c-12.6.8-25.6.2-38.4-.2-1.3,0-1.3-.1,0-.2,12.8-.2,25.7-.5,38.4.3h0Z"/>
    <path class="st13" d="M1522.4,59.4c-.8.3-2.1.5-2.8-.2.3,0,.7,0,.9,0,.3,0,.3-.3.4-.3.4.2,1,.4,1.4.4h0Z"/>
    <path class="st9" d="M1016.1,69.7c.2,0,.3.3,0,.5,0,0-.2.1-.3,0-.1,0-.2-.2,0-.3.1-.2.2-.3.4-.3Z"/>
    <path class="st9" d="M1006,80.6c-.2,0-.3,0-.3,0,0,0,0-.2.1-.2,0,0,.2,0,.2.2Z"/>
    <path class="st8" d="M988.4,103.1c0,.8-1.1,2.5-2,1.4-.3-.4-.8-1.4-.6-1.8.6-.4,1.9-.3,2.5.2h0Z"/>
    <path class="st13" d="M808.2,127.1l-.4,8.8c0,.4.4-8.8.4-8.8h0Z"/>
    <path class="st4" d="M1365.7,503.8c-.3-.7-.3-2-.2-3,.9-10.7,2.2-22.2,3.9-34.2.4-3.5,2.1-6.6,5.3-8.2,37.9-18.6,82.3-19.8,122-6.3,5.4,2,12.2,4,12.9,10.6,1.4,7.8,2.5,15.7,3.6,23.9.2,1.3.2,2.7,0,4-.4,2.8-4.3,5.6-5.9,2.1-2.4-7.8-3.4-16.4-4.8-23.1-.4-2-.7-4.2-2.2-5.8-15.4-9.6-40.3-12.4-59.4-11.8-16.4.7-29.2,2.6-43.4,7.4-3.2,1.1-7.7,2.6-11.1,3.7-3,.9-6.1,2.4-6.9,5.7-1.5,9.5-1.7,19.4-3.5,28.6-.2,1-.4,2-1,2.8-.7,1.2-2,1.8-3.2,2.3-2.2.8-5.1,2.8-6.2,1.4h0Z"/>
    <path class="st0" d="M1386.2,511.3c2,1.3-5.3,6.3-6.3,7.5-4.2,3.7-9.1,7.7-13.6,11.5-15.7,13.9-27.6,32.4-35.5,52.4-6.1,17.7-9,34.1-9.3,51.2-.8,16.1-1.5,32.4,1.6,48.4.8,4.8,2,9.8,2.5,14.5,0,.3,0,.6,0,.7,0,.3-.1.4-.2.4-.5,0-1.1-2.4-1.4-3.3-3.9-14.2-6.9-28.5-8.1-43.2-4.3-42,5.1-87.7,33.9-119.7,9.3-10.3,19.3-18.8,33.7-20.6.8-.2,2-.2,2.6,0h0Z"/>
    <path class="st0" d="M1508.9,510.8c.9-.2,2.2,0,3.2.4,11.2,3.2,21.3,11.8,22.1,23.4.3,3.2.4,6.1.5,9.4,0,3.1.5,5.8,2.5,8,9.1,11.6,22,21.1,24.1,36.2.3,2.4-.8,1.4-1.7,0-2.9-4.8-6.9-9.3-10.6-13.6-6-7.1-12.6-11.9-16.6-18.9-1.2-2.2-2.9-5.3-4.1-7.6-2.1-3.9-2-8.6-3.1-12.9-.5-2.3-1.3-4.6-2.4-6.6-3.1-5.6-8.3-10.1-13-14.7-.8-.8-2.3-2.5-.8-3.2h.1Z"/>
    <path class="st14" d="M1412,538.7c-.8-1.4-2.6-1.2-4-.7-7.9,2.4-9.4,10.4-8.4,17.4.6,3.5,2.3,6.9,4.7,9.5,3.8,3.7,9.1,4.4,13.9,5.7,6.3,1,12-4.2,14.7-9.3,2.8-5.2,1.8-11.2-1.1-16.1-1.6-2.6-3.3-6.2-6.4-6.6-5.8-.3-7.9,1.2-7.9,7,.3,5,1.5,10.2,0,15.2-.5,2.7-2.1,6-3.8,2.8-1-2.1-1.4-4.5-1.4-6.9,0-5,.3-9.8.2-14.5,0-1.1,0-2.4-.5-3.4h0ZM1464.6,571.4c-.4.4-1.5.3-2.2.2-6.2-1-11.9-3-17.5-5.6-3.2-1.6-5.6,0-8.1,2.3-7.1,5.8-15.3,10.1-24.8,7.1-10.5-2.6-18.1-10.8-19.9-21.3-.5-2.4-1.8-4.2-3.9-5.3-2.5-1.5-14.8-8.2-4.8-7.5,3.5,0,6.7,1,9.4-1.3,4.3-4.7,9.4-9,15.8-10.5,10-3,20.9,1.7,27,9.7,5.4,8,9.3,16.9,17,22.7,2.9,2.3,6.4,4.6,9.2,6.8,1.4,1,2.9,2.2,2.8,2.8"/>
    <path class="st9" d="M1420.6,550.4c.8,1.2.5,3.2.4,4.9-.2,3.6-.8,6.8-2.8,10.1-1.2,1.8-1,3.3,1.7,3,14.5-2.6,18.6-19.2,5-26.9-2.5-1.5-6.2-1.8-6.8,1.8-.4,1.9-.4,4,.7,5.3.5.6,1.2,1.1,1.6,1.8h0ZM1410.2,537.7c-1,1-3.5,1.9-4.7,3-2.9,2.3-4.4,5.5-4.4,9.5,0,6.6,3.2,15.1,9.9,16.5,1.3-.4.1-2.3-.1-3.2-2.6-7.1,0-15.3,1.1-22.6.2-.8.4-1.2.5-.1.2,5.2-.2,10.2-.2,15.7.1,2.7.4,5.9,2.1,8,2.6,2.1,3.5-5.6,3.7-7.2.9-7.7-5.1-20.3,7.8-18.5,4.5,1.3,9,11.4,8.7,15.9,0,7.9-7.9,16.9-16,16.1-3.9-.9-8-1.9-11.6-3.7-2.5-1.4-4.6-4-5.9-6.7-3.5-7.5-2.6-19.5,6.8-22.2.6-.1,1.8-.6,2.1-.3"/>
    <path class="st1" d="M1411.5,538c1.1.5.8,2.1.6,3.1-1.3,8-4.1,17.4-.2,24.9.5,1.7-1.4,1.2-2.4.7-3.5-1.8-5.9-4.7-7.4-8.6-2.4-6.2-1.9-14.1,3.2-17.7,1.5-1.1,3.9-2.8,5.9-2.5h.1Z"/>
    <path class="st5" d="M1422.3,540.6c.4.5-.3,1-.5,1.6-.2.9.4,1.6.7,2.4.6,1.2,1.2,2.4.6,3.7-.4.9-1.5,1.8-2.6,1.6-2.4-.6-2.5-2.9-2.3-5.3.2-1.6.4-3.5,1.5-4.1.7-.4,1.8-.5,2.5,0h0Z"/>
    <path class="st1" d="M1421.8,549.8c.4-1,1-1.9,1.1-2.9.2-1.6-1.2-3.3-1-4.9.9-3.4,5.7,1,7,2.3,1.7,1.8,3,3.9,3.7,6.3,2.8,8.2-4.9,17.1-13,17.9-1.3,0-2.4-.1-2.2-1.4,1.3-3.1,3-5.7,3.3-9.1.5-2.6,0-5.5,1-8v-.2Z"/>
    <path class="st14" d="M1551.2,585c3.2,3.7-4.8,12.2-8.4,8.4-2.3-3.9,4.5-11,8.2-8.5h.1Z"/>
    <path class="st14" d="M1505.9,597.5c-3.9,1.1-8.2-4.4-8.7-7.8-.3-1.5-.3-3.7,1.2-4.5.6-.3,1.3-.1,1.9.1,2.2,1,4.2,2.2,5.8,3.6,3.1,2.3,3.8,6.8,0,8.6h-.2Z"/>
    <path class="st1" d="M1398,599.9c26,19.8,67.3,35,99.8,30.1,8.9-1.5,16.3-4.6,24.6-8.1,6.2-3.1,12.2-1.9,18.5.2,2.7.9,8.1,1.7,3.9,5.2-6.6,6-14.7,10.3-23.1,13.3-18.1,6.4-37.2,7-56.2,6.7-28.7-1.1-55.9-2-79.8-13.6-6.7-3.6-13.7-8.4-18.5-14.3-4.7-5.8-8.3-13.5-9.1-21.7,0-5.6,5.9-7.7,10.7-8.1,7.9-.6,16.1.6,22.6,5.2,2.2,1.5,4.4,3.3,6.6,4.9h.2Z"/>
    <path class="st16" d="M1358.4,624.1c.5,0,1.7,1.3,2.2,1.9,2.2,2.6,4.2,4.8,6.4,7,19.3,17.8,46.5,21.6,71.7,24.2,3.1.3,6.2.5,9.3.8,2.5.1,3.8,1.8,3.8,4.2.8,15.2,2.7,25.6,8,41.3.5,1.4,1,3.5,0,4.4-2.1,1.4-6.1.7-8.6.2-5.6-1.3-11.4-2.6-16.8-4.8-28.5-11-53.4-31-71-56-1-1.2-1.3-2-2.2-3-.3-.3-.6-.5-.9-.4-.7,0-1.1,1-1.3,0-1-6-1.3-12.2-1.3-18.2,0-.5,0-.7.3-1.2.1-.2.3-.3.4-.3h0Z"/>
    <path class="st11" d="M1359.6,645.3c6,49.2,31.2,92.3,43.9,140.7,24.2,87.8-6.6,169.4-92.4,206.6-26.4,11.7-53.7,18.1-82.6,21-3.1.3-6.6.6-9.7.8-1,0-1.6,0-1.7-.1-.2-.1,1.3-.6,1.9-.8,7.3-1.8,15.2-2.4,22.7-3.8,15.7-3.3,35.5-5.9,49.6-11.3,6.7-2.5,11.2-4.7,18.1-7.7,6.6-3,11.5-5,17.9-8.5,10.3-5.6,20.5-11.9,29-19.9,6-5.4,11.5-10.9,16.6-16.6,8.4-9.2,14.8-19.8,20.2-31,3.4-7,6-13.5,8-20.8,5.1-16.2,8.3-34.7,8.3-52.1-.2-19-3-38-8.2-56.2-4.3-16.2-9.6-31.7-15.8-46.7-8.1-22.6-17-44.1-23.1-67.7-1.4-5.3-2.5-10.9-3.5-16.3-2-9.5-3.7-19.5-1.1-29,.2-.5.3-.7.4-.3,0,.2,0,.6,0,1,0,6.2.6,12.4,1.5,18.6v.2Z"/>
    <path class="st1" d="M1453.7,708.3c5.6,17.3,12.1,35.7,19.5,54.7,7,18.9,13,42.1,15.7,62.7,1.2,7.4,1.8,13.4,1.6,20.1-.2,7.8.2,15.4-.6,23.2-1.2,9.7-2.9,19.2-3.8,28.8-.1,1.2-.5,2.1-1.6,2.5-1.4.5-2.6,1.8-3.3,3.3-20,37.8-56.2,62.9-94.7,78.9-28,10.6-53.5,15.5-82.8,19.8-5.1.7-10.7,1.4-15.8,1.3-1.8,0-3.8-.1-4-.5-.1-.2.1-.3.7-.6.3-.1.7-.3,1.2-.5,7.4-2.4,14.9-5.2,22.2-8.3,89.3-37.4,120.4-121,94.3-211.3-7-25.3-19.5-55.1-27.7-78.2-7-18.3-12.1-36.1-14.8-55.9-.2-1.5-.4-3.5.3-4.7.3-.3.8-.3,1,0,1.2,1.3,1.5,2.2,2.8,3.7,20.9,28.9,52,52,87.3,59.5,1,.2,1.9.6,2.5,1.3h.1Z"/>
    <path class="st5" d="M1796.3,713c-1.6.6-3.4.7-4.9,1.7-2,1.2-3.7,2.9-5.7,4.3-2.7,1.9-4.8,3-7.5,4.6-5.6,3.3-11.1,7-17,9.8-7.4,3.6-14.9,6.2-22.1,9.5-3.9,2.1-4.9,6.5-6.9,10.2-3.4,8.3-6.1,15.2-10.9,24.1-4.6,8.2-9.1,16.1-14.1,24-1.5,1.9-3,5.9-5.8,4.1-1.3-.9-2.5-2.4-2.6-3.8,0-1,.5-1.9,1-2.8,2.2-3.6,5.2-8.2,7.6-12.2,3.7-6.1,12.6-24.9,17.6-35.6,1.9-3.6,2.8-9.6,5.5-13.2,1.8-1.9,4.9-2.6,7.3-3.5,13.8-4.9,30.7-11,43.9-18.4,2.8-1.5,6.3-3.6,9.4-5.3,6.2-3.5,10.5-6,12.8-7.3.3-.2.7-.4,1-.3.5,0,.2,1.1-.9,2.5-2.4,2.6-4.4,6.1-7.7,7.7h-.2Z"/>
    <path class="st8" d="M1460.1,707.3c.7.3,1.4,1.7,1.8,2.7,2.1,5.4,4.2,10.9,6.3,16.1,2.5,6,5,11.7,7.7,18.1,21.4,46.9,33.2,100.9,17.1,151-.4,1.3-.8,2.7-1.4,3.9-1,2.3-2,2.4-1.7-.3,1.5-7.7,3.5-14.7,5-22.1,1.9-8.4,3.1-20.7,3.2-31.1,0-10.1-1.5-22.5-3.2-32.9-2.3-12.4-5-25.5-9.3-37.4-7-21.3-18.7-43.5-25.1-60.3-.8-2.1-2.9-7.7-.5-7.7h0Z"/>
    <path class="st7" d="M1457.8,708c6.1,15.2,11.2,27.5,19.9,46.7,3.4,7.4,4.4,10.4,7.9,20.6,3.3,9,5.4,18.4,7.4,27.9,3,14.4,5.1,30.2,4.9,44.6-.3,10.4-1.3,20.4-3.3,29.5-1.1,5.8-3.5,14.2-4.8,21.2-.3,1.9.8,2.8.1,4.8-.7,1.8-1.5,4.9-2.6,6.3-.5.4-.6-1.3-.6-3,0-2.4.8-5.3,1.5-7.7-.7,1.3-2.8,9.6-4,10.3,0,0-.1-.4,0-.9,0-.3,0-.7.1-1.1.4-2.9.9-6,1.1-8.7.9-9.6,2.7-19.3,3.9-29.1.8-7.9.4-15.5.6-23.3.3-8.7-1.3-18.4-2.7-27.5-1.3-10.2-4.2-20.2-6.5-30.3-3.4-12.3-6.5-21.5-10.6-32.1-5.7-14.9-10.6-28.5-14.7-41-.6-2-1.4-4-1.1-6.1.3-1.8,2.2-2.4,3.5-1.2h.1Z"/>
    <path class="st15" d="M1803.1,729.9c-1.7,2.1-4,4.6-5.4,7.1-2.4,4.7-4.1,10-6.4,14.8-3.6,7.5-6.5,15.2-11.8,21.7-10.8,10.9-24.2,19.2-36,28.3-4.1,3.2-7,6.4-11.1,9.9-2.9,2.4-8,6.7-10.5,8.8-1.7,1.4-2,1.8-3.1.8-2.3-2.1-10.7-10-14-13-1-.9-1.3-1.9-.6-3.2,1-1.8,2.4-3.6,3.5-5.3,6.7-11,13.6-22.1,18.9-33.8,2.4-5.1,4.1-10.4,6.6-15.4,1.6-3.9,3.7-7.3,7.9-8.7,7-2.8,14.5-5.8,21.6-9.3,5.2-2.6,10.2-5.9,15.1-8.8,3.6-2.1,6.6-3.7,10.2-6.6,1.8-1.5,4.5-3.4,6.7-3.2.8,0,1.3.3.8.9-8,9.4-28.7,33.7-32.3,38-1.8,2.2-5.4,1.2-7.9,1.9-3.5.8-6.8,4.3-7.9,7.5-1.6,5.1,1.2,11.3,5.9,13.6,5.3,2.7,12.9,0,15.5-5.4.5-1.2.9-2.4,1-3.7.3-2.7-1-5.3-.4-7.5.2-.9.7-1.7,1.3-2.5,8.6-10.1,18.6-21.4,27.6-32.5,2.3-2.9,5.3-6.6,7.6-9.3,1.1-1.3,5.8-7.2,4.1-2.4-2.1,4.8-4.6,13.3-7.1,17.5h0Z"/>
    <path class="st16" d="M1049.9,761.3c-4.5,0-7.8-2.3-10.4-4.2-.7-.5-1.3-.9-2-1.3h-.1c0,0-.1-.2-.1-.2-1-.7-2-1.4-3-2.2-2.8-2-5.7-4.2-8.3-5.8-11.4-7.3-24.5-11.2-38.1-11.2s-27.2,3.9-39,11.4c-2.8,1.7-5.6,3.7-8.3,5.6l-1.1.8h-.1c-1,.7-1.9,1.4-2.9,2.2-2.2,1.7-4.8,3.7-8.2,4.7h-.2c0,0-.2.1-.2.1-.6.1-1.2.2-1.8.2-4,0-8-2.7-9.6-6.6-1.5-3.5-.8-7.2,1.8-9.9h.1c0-.1.1-.2.1-.2,20.6-19.2,45.4-29.7,69.9-29.7s38.5,6.6,55.2,19.1c4.1,2.8,7.8,5.5,11.3,8.2h.2c.2.3.4.5.7.7,1.9,1.5,5.5,4.3,5.4,8.9v.2s0,.3,0,.3c-.5,4.5-4.9,8.1-8.9,8.9h-.3c0,0-.3,0-.3,0-.5,0-1,0-1.4,0Z"/>
    <path class="st16" d="M1055.1,751.7c-.2,1.6-2.5,3.5-4.5,3.9-4,.4-6.7-2.4-10.2-4.6-3.5-2.5-7.8-5.8-11.6-8.2-25.4-16.3-57.7-15.9-83.2.2-3.2,2-6.4,4.3-9.5,6.4-3.4,2.1-6.1,5.1-9.7,6.2-3,.7-7.2-3.9-4.4-6.8,34.3-31.9,79.7-38.7,117.9-10.2,3.5,2.4,7.3,5.1,11.1,8.1,1.5,1.2,4.1,2.9,4,4.9h0Z"/>
    <path class="st12" d="M1802.9,729.9c.3,0,.2.7,0,1.5-1.2,4.3-2.3,8.6-3.4,13-3.5,15.1-6.7,27.7-8.9,42-.5,2.5-2.6,4-4.7,5.2-7.7,4.6-14.2,8.5-19.6,11.9-11.9,7.3-24.4,16.6-34.1,25.6-1.7,1.6-3.2,2.1-4.9.3-2.1-2.1-5.6-4.9-7.2-7-.3-.6.3-1,1.5-2,4.2-3.7,10.8-8.8,14.8-12.8,2.8-2.7,5.8-5.3,8.9-7.6,11.2-8.4,24-16.7,34.1-27,5.3-6.5,8.2-14.3,11.8-21.9,3.1-6.3,4.4-13.1,9-18.8.7-.8,1.5-2.1,2.5-2.4h0Z"/>
    <path class="st3" d="M1298.9,752.3c-.7-.4,0-.4.4-.4,4.3,0,25,0,29.3,0,1.8,0,2.7,1,3.3,3,.5,1.6,1.3,4.4,2,6.7.7,2.7,2.3,5.4-.6,4.6-10.8-5.3-22.5-9.9-34.4-13.8h0Z"/>
    <path class="st0" d="M682,895c-3.3,0-6.6,0-9.8-.1-16.9-.5-34.2-3.2-50-7.9-13.6-4.1-25.3-11.1-35.9-21.6-7.7-7.5-12.3-17.7-12.7-28.6v-.6s0-.6,0-.6c.5-2.9,2.9-5,5.8-5s3.9.6,5.6,3.7v.2c.1,0,.2.2.2.2,4.9,11.2,13.2,18.6,27.7,24.7,17.1,6.7,39.5,10.1,66.6,10.1,78.3,0,182.4-28.4,251.3-47.2,9.5-2.6,18.4-5,26.6-7.2,42.8-11.7,87.8-25.6,137.6-42.3,15.9-5.2,35-10.2,60-16h.1c28.4-6,53-8.7,77.4-8.7s2.5,0,3.8,0c5.4,0,9.8.3,13.7.6h.1c1.9.2,3.5.7,4.9,1.5h.2c1.9,1.1,5.9,4.5,6.8,7.8v.5c.1,0,.2.6.2.6.2,2.7-1.4,5.8-5.4,6.7h-.4c0,0-.4.1-.4.1-3.6.2-7.2.3-10.7.4-3.9,0-7.9.2-11.7.5h-.1c-31.1,1.7-63.5,8.2-101.9,20.4-16.1,5-31.8,10-47.1,14.8-36,11.4-69.9,22.2-105.8,32.4-10.5,2.9-21.2,5.8-32.4,9-36.9,10.3-75.1,20.9-106.8,27.2-6.9,1.4-13.7,3-20.8,4.6l-2.8.6-4.6,1c-41.7,8.9-84.7,18-129.1,18Z"/>
    <path class="st0" d="M1252.4,755.3c1.5.8,3.8,3.1,4,4.2,0,.6-.4.7-.9.9-7.4.5-15,.3-22.5.9-35.2,1.9-69.4,9.9-103.3,20.6-53,16.5-101.4,32.5-152.7,47.2-45.2,12.3-97.8,27.9-138.8,36.1-7.9,1.6-15.8,3.4-23.7,5.3-47.1,10-93.3,20.2-142.1,18.7-16.1-.5-32.8-3-48.6-7.7-13-3.9-23.8-10.5-33.6-20.2-6.5-6.4-10.7-15.2-11.1-24.8,0-.5.4-.3.8.5,6.1,14.1,17.1,22,30.8,27.7,84.1,33,258-20.1,348.1-44.1,44.4-12.2,90-26.3,137.9-42.4,18.2-5.9,38.9-11.1,59.4-15.8,26.3-5.5,52.2-8.9,80-8.6,4.4,0,8.9.2,13.2.6,1.1.1,2.1.4,2.9.9h.2Z"/>
    <path class="st2" d="M1295.6,762.9c-76.6-6.3,2-2.7-14.4,59.8-.3,1.2-.8,2.6-1.8,3.3-1.1.9-2.8,1.1-4.3,1.1-13.3,0-22.5,1.1-33.6,3.1-20.5,3.6-38.6,8.6-57.7,14.9-15,4.4-29.5,10.6-44.1,16.6-8.6,3.5-16.3,7.3-24.6,10.8-8,3.6-17.4,8.4-24.9,11.8-16,7.2-30.7,13.2-46.4,19.9-49.6,21.3-105.2,39.7-156.9,54.3-24.2,6.5-49.2,12.2-73.6,17.6-21.4,4.1-43,8.5-64.8,10.3-8.2,1.2-15.9,2.4-24.1,3.2-6.8,0-13.4,1.4-20.1,1.9-11.5.4-22.8,1.3-34.2,1.4-13.4.5-26.1-.3-39.3-.5-26.2-1-48.3-4-75.1-10.5-27.7-5.9-53.5-18.1-76-34.6-2.7-2-6.2-5.6-9.9-8.8-1.8-1.8-4.4-2.4-5.6-4.5-.9-1.4-1.8-3.4-2.5-5.1-4.8-12.2-8.2-22.1-8.1-34.4.2-2.8,1.5-5.1,2.8-7.4,4.3-11.3,9.3-22.4,17.4-31.6,5.8-6.8,12.4-13.3,19.7-18,16-10,35.9-14.6,54.4-12.5,10.4,1.2,20.7,5.3,30.2,9.3,1.4.7,1.4,2.6,1.6,4.2,1.8,18.5,17.5,30.5,32.4,38.3,52,22.6,123.9,10.2,177.5-1.2,50.9-10.3,97.4-20.9,151.5-36.7,53.2-14.1,100.5-29.3,154.2-46.3,35-11.2,74.5-24.2,111.3-29,14.9-2.1,30.2-3,45.2-3.2,1.7,0,3.5.2,4.6-.5.2-.2.3-.4.2-.7-.3-1.1-2.3-2.5-2.4-3.5,0-1.4,1.9-.9,2.8-.9,13,1.3,26.3,3.6,38.8,8h0Z"/>
    <path class="st3" d="M1296.4,763.4c13.1,3.5,25.5,9.1,37.8,15.6,4.8,2.2,6.9,7.1,7.8,12,2.1,9.5,3.6,32.3-2,39.6-2.6,2.1-6.6,1-9.6.3-15.6-3.8-31.4-5.1-47.3-4-.9,0-2.3.1-2.9-.3-.9-.6-.5-2.2-.2-3.2,1.7-6.1,2.5-12,2.5-17.8.2-14.5-6.9-28.6-17.5-38.4-1-1.5-7.7-6.1-3.7-6.5,11.4.1,23.3,1.1,35,2.6h.2Z"/>
    <path class="st16" d="M930.6,821.7h0c-3.7-.2-7-1.4-9.9-2.5-1.3-.5-2.5-.9-3.6-1.2h-.3c0,0-8.3-2.9-8.3-2.9-32-10.9-65.1-22.1-97.3-34.1l-.5-.2-.7-.4c-3.1-1.9-3.5-4.9-2.9-6.9,1.3-4.5,6.3-4.5,7.9-4.5h.7c7.8,0,20.4,0,33.4,0,14.3,0,29,0,38.1,0s6.6,0,8,0h.7s.6.2.6.2c2.5.6,4.3,2.4,5.5,3.6l.5.5h.1c4.1,4.7,8.9,8.6,14.9,12.2,11.5,7,26.6,12.1,44.8,15.2,6.3,1.1,7.6,4.3,7.6,6.8v.7s-.2.7-.2.7c-.6,2.2-2.2,3.7-4.6,4.5h-.2c0,0-.3.1-.3.1-1,.3-2.2.6-3.5.9-1.1.3-2.3.6-3.5.9-3.1.8-6.8,1.8-11,3-1.1.3-2.1.6-3.1.9-3.9,1.1-8.4,2.3-12.4,2.3s-.6,0-.6,0Z"/>
    <path class="st16" d="M813,775.7c-1.8-1.1,2.3-.9,2.7-1,19.8,0,71.5-.2,79.5,0,1.1.3,2.2,1.5,3.3,2.5,4.7,5.2,10.1,9.5,16.2,13.2,13.7,8.3,30.5,13.2,46.8,15.9.9.1,2.9.6,2.9,1.2-.1.4-.7.6-1.2.8-1.9.5-4.2,1.1-7,1.9-3.1.8-6.8,1.8-11,3-4.7,1.2-10.1,3.1-14.4,3-4.2-.2-8.2-2.3-12.3-3.5-35.2-12-70.6-23.9-105.4-36.8h-.1Z"/>
    <path class="st8" d="M495.8,777c-.5,0-1,.5-1.5.7-.2,0-.4,0-.4-.2.1-.4.5-1.7.9-2.1.7-.5,2.1-.8,2.8,0,0,.2-.2.4-.4.5-.5.3-1,.8-1.3,1.2h-.1Z"/>
    <path class="st3" d="M747.2,858.7c-37.7-11.8-78.8-18.9-116-2.4-2.5,1.2-4.5,2.8-7.3,1.7-13.4-4-30.7-11.9-35.7-26.3-1-2.9-1.2-5.7-1.8-8.8-.3-1.3-1-2.5-1.8-2.8-4.6-.8-4.8,7.9-4.8,11.6.1,2-.7,3-2.9,2.2-2.6-.8-5.5-2.2-8.4-3.4-5-2.1-10.6-3.5-15.8-4.6-19.1-3.7-41.8,1-58.9,12-7.3,4.8-13.9,11.4-19.8,18.3-7.6,9-12.9,19.4-16.7,30.5-.7,1.6-2.1,4.6-3.1,4.6-.2,0-.4-.1-.5-.3-.2-.3-.4-1-.5-1.8-2.5-24.8,4.6-49.8,17-71.4,4.9-8.1,11.3-14.4,18.3-20.8,4.1-3.9,8.1-7.8,12.8-10.9,4.9-3.3,10-6.4,15.5-9.1,3.3-1.7,6.4-2.7,10.2-2.7,70.4,0,140.4.2,209.7,0,7.4,0,14.3,0,22.5,0,6.6.2,13.6-.7,20,.8,29.9,9.7,85.6,30.9,108.9,38.8,6.5,2.2,13,4.2,18.9,6.5.4.2.8.3,1.1.5.5.3.7.6.8.8,0,.4-.4.8-1.2,1.1-2,.7-4.2,1.3-6.2,1.9-12,3.2-24.1,6.3-37.4,9.8-26.8,7.2-54.2,13.2-81.2,18.4-5,1-9.2,1.7-14.3,2.7-6.9,1.3-13.8,3.2-21.1,3.1h-.2Z"/>
    <path class="st5" d="M1686.7,805.3c0,.2-.1.4-.6.7-.8.4-2,.9-2.7,1.3-3,1.9-3,5.6-2.6,9.3,0,.4.4,1.6-.2,1.5-6-4.2-2-18.9,6-12.9h0Z"/>
    <path class="st1" d="M1681.9,817.6c.9.6,1.6-.8,2.1-1.5.4-.7,1.2-1.7,1-2.4-.1-.5-1.5.6-2.2,1.4-.5.6-1.7,1.6-1,2.3h.1ZM1709.6,827.3c-3.6-1.3-6.7-3.9-10-5.9-1.3-.8-2.8-.9-4.2,0-2,1.3-4.9,3.3-7,3.3-1.2,0-2-.9-2.8-1.7-1.1-1.1-2.4-2.3-3.4-3.5-2.4-2.9-2.2-8.3-.4-11,1.2-1.3,3.4-2.6,5-2.7,1.2.7,2.9,2.6,5.9,5.3,5.1,4.8,11.5,10.8,16.3,15.4.7.7,1.1,1,.6.9"/>
    <path class="st3" d="M1260,1006.1c-5.5,1.2-12.3,2.6-17.6,3.6-6.6,1.1-13.1,1.9-19.8,3.2-3.5.8-6.4,1.8-9.9,1.9-24.7,1.1-49.3-.3-74-2.3-6.5-.7-4.3,4.8-8,6.6-2.3.6-4.7-.3-6.9-.7-10.7-2.1-21.5-4.5-32.2-7.4-13.4-3.3-31.1-7.6-43-10.9-9.9-2.8-20.6-5.8-29.8-8.4-3.2-1.1-9.5-2.2-9-4.2.2-.5,1.1-1,2.2-1.3,2.6-.9,5.2-1.6,7.8-2.5,6.7-2.3,14.7-5.2,21.4-7.5,55.1-18.2,108.2-44.7,161.7-66.3,17.8-6.9,36.1-12.5,54.2-15.7,9-1.5,18.2-3,27.2-4.5,13.6-2.3,27.2-7.5,38.7-15.1,20.4-14.1,30.5-39.1,32.1-63.3,0-.6.1-1,.2-1,1,4.4,1.3,9.3,1.2,13.9-.2,5.1-.9,12.1-1.1,16.5-.1,4.9-1.4,9.7-2.6,14.3-2.8,11.9-9.6,23-17.8,32-14.3,16.3-36.6,26.5-56.9,29.4-9.9,1.4-19.8,2-30.1,2.4-23.4,1.4-45.4,12.3-63.8,27.3-7,4.9-13.4,10.4-19.1,16.6-7.7,8.6-15.1,17.2-20,26.7-1,1.8-1.7,4.2,1.3,4.6,22.9,3.9,45.8,7.6,69.4,9.7,14.7,1,29.3,1.6,44.1,2.5h0Z"/>
    <path class="st16" d="M1685,813.7c.3,0-.4,1.6-1,2.4-.4.6-.9,1.5-1.6,1.6-.5,0-1-.5-.8-1,.2-.6.7-1,1.2-1.5.6-.6,1.5-1.6,2.2-1.5h0Z"/>
    <path class="st16" d="M1709.5,827c2.3,1.4,3.3,2.8,6.6,5.5,4.1,3.6,9.4,8.2,12.4,10.8,1.1,1.1,2.2,1.6,2.9,2.9,1.5,4.3-4.9,9.7-9.1,8.3-1.4-.4-2.7-1.4-3.9-2.4-10-8.3-19.6-16.8-28.8-25.2-2.8-2.4-1-2.8,1.4-3.9,2-.9,4-2.9,6-2.8.8,0,1.6.3,2.3.7,3.3,2.1,6.5,4.5,10.1,6h.1Z"/>
    <path class="st12" d="M1672.7,824.2c.7.4,1.5,1.5,2.3,2.8,1.2,2,2.9,3.5,2.4,5.2-4.5,4.9-27.4,30.6-35.4,38.6-.9.2-1.8-.8-2.5-1.6-1.2-1.8-3.9-4.6-2.7-6.2,3.3-3.8,21.7-24.8,28.1-32.1,2.9-3.3,5-5.7,5.8-6.6.5-.5,1.1-.6,1.8-.2h.1Z"/>
    <path class="st11" d="M1340.3,831.7c.6.7-.4,3-1.8,3.4-.8.2-1.5,0-2.3-.2-8.9-3.1-18.2-5.3-28.3-6.6-3.5-.5-7.4-.5-10.8,0-2.5.4-3.7.6-6.3.6-27.2-.1-54,3.5-80.2,10.5-36.7,9.6-69.8,23.9-103.9,39.5-49.2,22.8-98.1,42.8-153.1,61.1-123.9,41.4-310.7,81.8-434.7,32-15.4-6.8-29.9-15.6-42.8-26.5-2.5-2.1-4.9-4.4-7.3-6.7-.5-.4-1.4-1.6-1.3-1.7,0-.1.4,0,1.1.6,3,2.3,5.3,5,8,7.1,5.7,5.3,12.9,9.4,19.6,13.4,15.1,9.1,31,16.3,48.2,20.9,19,4.8,38.1,9.1,55.7,10.7,4.5.4,8.7,1.5,13.3,1.5,5.7.1,11.5.9,17.2.9,17.8.4,35.4,1.1,53.2,0,10.1-.7,20.4-.5,30.4-2.1,3.9-.6,8-.5,12-.9,7.3-.9,13.9-1.8,21.2-2.8,6-1,12.2-.9,18.2-2.1,34-4.9,66.6-12.3,100-20.4,52.9-13.4,108.8-31.7,159.8-52,22-9.2,42.9-17.9,65-27.7,23.1-11,47.7-22.4,71.8-31.5,27.8-10.4,56.2-18.8,86-23.6,8.3-1.3,19.2-2.1,30-2,18.2-1.3,36.2-.7,54.1,4,1.2.3,2.4.5,3.6.6,1.9.2,3.9-.5,4.5,0h0Z"/>
    <path class="st4" d="M1338.3,836.9c.2.4.6,2,0,1.3-.7-.8-1.7-1.3-2.8-1.6-13.6-4.1-27.1-6.6-40.8-7.8-1.4-.2-1.2-.4.2-.7,3.7-.8,7.8-.7,11.6-.2,10.4,1.5,20.2,3.9,29.4,7.3.9.3,2,.8,2.4,1.6h0Z"/>
    <path class="st16" d="M1294.8,829c14.2,1.2,28.9,3.1,42.5,8.1,1.2.9.8,2.8.2,4.1-5,11-12.9,20.1-23.1,26.7-8.1,5.1-17.3,8.5-26.7,10.3-11.6,2.2-20.2,8.8-33.4,11.2-15.9,2.9-39.1,9.5-58.2,17.1-31.7,13.2-62.7,21.5-98.9,36.4-54.9,22.5-108.1,43.7-166.7,58.9-48.6,12.6-101.3,25.6-151.1,31.3-75.1,9.3-165,5.6-236.9-23.2-33.9-13.6-59.9-37.1-76.2-70.5-.4-.9-.6-1.7-.5-2,.1-.6,1-.2,2.1.7,5.4,5.2,11,10.2,17.1,14.6,14.1,10.3,29.6,18.4,46.1,24.3,2.2.9,2.7,2.3,5,3.6.4.2.8.4,1.2.6,8.2,3.2,16.3,6.1,24,8.8,67.3,24.2,139.6,22.2,211.1,15.4,61.2-7.5,126-19.5,187.5-36.9,21.2-6.4,43.8-13.3,64.3-20.2,46.4-15.5,91.1-35.1,137.3-54,23.9-9.3,41.9-16.6,68.8-24.3,8.5-2.7,18-4.1,25.1-9.4,8.3-5.9,14.8-13.9,19.1-23.1.8-2,2.5-4.6,2.4-7,0-1-.1-1.3.7-1.3,4.7,0,12-.3,16.7-.2h.1Z"/>
    <path class="st1" d="M1276.3,829.6c.8.3,1.1,1.3,1,2.1-.3,1.8-1.5,3.9-2.2,5.5-4.8,10.3-12.4,19.3-22.1,25.2-4.4,2.7-9.8,4-15.2,5.5-48.9,13.4-90.2,32.5-135.5,50.9-19.7,7.9-36.4,15-56.2,21.9-23.6,8.5-48.3,16.3-72.6,23.8-65.4,19.9-135.6,32.9-201.3,41-71.9,6.9-144.8,8.8-212.4-15.9-7.4-2.8-15.8-5.4-23.7-8.8-1-.6-1.7-1.1-1.7-1.5,0-.5,1.3-.6,2.8-.1,168.5,49.5,408.1-25.7,562.8-97.1,36.8-16.8,71-32.2,110.1-42.4,21.6-5.4,43.8-10.1,66.1-10h.1Z"/>
    <path class="st2" d="M1713.5,919.6c-.7.7-1.6,1.2-2.4,1.7-3.3,2.1-6.5,6.1-10.6,7.3-25.2,7.6-54.8-8-71.8-26-5-5.8-11-11.3-15.1-18-3.3-5.2-4.9-11.2-6.9-16.9-1.8-4.7-1.4-9.7-1.7-14.5-.2-3.6-.8-7.4,1.4-10.4,3-4.4,8.1-9.5,13.7-10.2,2,0,2.1,2.2,1.6,3.8-1.6,5.5-2.3,11.1-1.8,17,.7,8.2,4.4,14.7,9.4,21.7,10.1,14.7,26.2,24.8,43.1,29.8,7.2,2,15.8,2.6,22.8-.1,3-1.2,6.2-3.4,5.4-6.7-1-3.7-4-2.7-6-2.4-.3-.2,0-.5.2-.7,2-2.3,8.1-8.9,10.7-11.8,1.5-1.7,3.4-.2,4.5,1.3,6.6,9,9.3,25.3,3.4,34.9h-.1Z"/>
    <path class="st16" d="M746.6,858.4c-19.4,3.8-39.9,4.7-59.9,5.7-19.2.6-38-1.1-56.4-4.9-1-.2-3-.7-3-1.5,0-.8,1.9-1.6,2.8-2,37-15.3,79.4-10.5,116.4,2.7h0Z"/>
    <path class="st1" d="M1604.4,847.9c-3.8,23.5,10.3,44.9,27.1,60.1,16.8,15.9,43.9,30.1,67.5,23.3,4.7-1.6,8.8-4.4,12-8.5.5-.5,2.3-2.7,2.4-1.7-3,10.8-13.5,19.1-23.4,22.2-23.3,6.1-47-6-64-21.8-12-11.2-22.2-27.6-25.9-44.5-1.6-9.7-1.9-19.8,3-28.8.5-.8,1.2-1.6,1.2-.4h0Z"/>
    <path class="st11" d="M1711.8,921.8c-5.4,9.1-17.1,12.2-27.2,11.4-21-1.7-38.6-11.4-53.7-25.7-15.4-14.3-28.9-33.8-27-55.6.5-5.2.9-1.8,1,.9.3,3.5,0,6.9.7,10.4,1.3,5.4,3.2,10.7,5.3,15.9,2.9,7,8.1,12.6,13.1,18.1,5.6,6.5,11.2,12.3,18.1,17.2,16,11.3,36.8,20.1,56.9,15.2,3.8-.9,6.7-3,9.5-5.7.9-.7,1.8-1.6,2.8-2.1.3-.2.5-.2.6,0h0Z"/>
    <path class="st9" d="M442.5,862.6c.1.4.1.8,0,1.1,0-.4,0-.8,0-1.1Z"/>
    <path class="st16" d="M1487.4,909.3c-.1,2-1.1,4.2-2,6.5-18.9,39.2-48.9,69.1-87.7,88.4-80.6,39.4-176,32.3-262.1,15.8-1.4-.3-3.4-.6-3.3-2.3,0-.9.3-1.9.7-2.8.9-2.7,3.1-3.1,5.6-2.9,33.8,2.7,67.9,4.3,101.5-.1,14.7-1.7,27.8-5.6,42.5-8.8,3-.3,5.6.2,8.6,0,4.3,0,8.8-.7,13.1-1.3,29.3-4.4,54.7-9.3,82.7-20,38.3-16.1,74.3-41.3,94.1-79.1.6-1.1,1.6-2.7,2.5-3.2.6-.3,1.2-.3,1.6.3.2.4.2.4.2.6.4,2.2-.6,4.7-.4,6.9.1.6.8-1,1.5-2.8.4-1.2.8-2.4,1.2-3.6.6-1.8,1.4-4.3,1.3-3.9-.3,1.3-.8,2.8-1.1,4.2-.6,2.6-.3,5.3-.3,7.8v.2Z"/>
    <path class="st2" d="M1603.1,910.9c-.3,1-1.3,1.5-2.7,3.1-2.7,2.8-6.6,6.8-8.1,8.4-1,1-.6,0-1.6-1.9-.7-1.4-1.7-3-2.4-4.3-.4-.8-.4-1.1,0-1.6,1.6-1.8,7.3-8.3,9.4-10.4,1.5-1,2.1,1.1,3,2.3.7,1.2,2.1,3.3,2.4,4.3h0Z"/>
    <path class="st3" d="M1637.8,944.3c.1.8-1,1.9-1.8,2.6-22.7,20.6-57,33.5-87.4,36.3-2.6,0-2.4-.9,0-1.4,11.2-2.4,22.7-3.4,33.5-7.3,6.3-2.2,12.5-5,18.7-7.3,3.6-1.5,8.1-2.8,10.8-5.8,2.1-3-1.8-8.4-3-11.4-2.6-5.1-6.3-11.6-10.1-17.5-1.5-2.3-2.8-4.1-4.7-6.3-1.2-1.5-2.9-3.6-1-5.1,1.9-1.9,6.5-6.6,8.8-8.9.9-1,1.9-1.4,3,0,7.3,9.5,15.3,18.3,24.9,25.4,2,1.5,4,2.9,6.1,4.3.9.6,2.1,1.4,2.3,2.3h0Z"/>
    <path class="st0" d="M1588.2,915.4c1,0,2,2.1,2.9,3.8,1.1,1.8.8,3.5-.9,5-6.8,6-14.5,10.8-22.8,14.3-12.2,5.3-25.9,7.5-39.2,6.3-3.1-.3-6.3-.7-9.4-1.3-1-.3-1.8-.6-2.3-1.4-.9-1.4,0-3.8,0-5.8.2-1.7-1-5,2-4.5,25.3,6.2,48.9-1.3,69.5-16.3h.1Z"/>
    <path class="st2" d="M1591.7,923.9c1.7.5,2.9,2.8,4.1,4.1,1.5,1.9,2.9,4,4.2,6.2,3.6,6,6.7,11.4,9.2,16.4,1.2,2.4,2.5,5,3.2,7.7.2,1,.2,1.9-.2,2.7-.6,1.3-2.1,2.3-3.6,3.2-2.2,1.3-4.7,2.2-7.1,3.2-7,2.5-13.7,6.3-21.1,7.8-19.7,3.2-38.3,9-58.6,6.6-2.8-.3-5.6-.6-8.5-1.1-3.4-.7-10.3-.9-9.7-5.6,1.7-4.8,4.7-9.5,6.4-14.1,1.8-4.7,3.4-9.6,4.9-14.3,1.2-3.5-.5-5-3.8-5.6-7.1-1.7-14.1-4.2-20.5-7.8-2.5-1.6-.2-4.1.9-6.5,1-2,2.4-3.7,4.8-2.7,4.2,1.4,14.4,4.8,18.2,6.1,2.8,1,2.3,4.2,2.1,7.5-.5,2.6-.1,4.9,2.9,5.4,4.8.9,9.7,1.4,14.6,1.5,16.7.4,33.4-4.7,47.4-13.8,2.6-1.7,5.1-3.6,7.6-5.6.8-.6,1.8-1.4,2.7-1.3h.1Z"/>
    <path class="st3" d="M1489.5,933c.8-.2,1.8.2,2.6.6,6.8,3.4,14,5.9,21.4,7.6,1.1.3,2.4.8,2.8,1.9.3.8.1,1.9-.1,2.8-1.3,4.3-2.8,8.7-4.4,12.9-1.8,5-4.3,9.8-6.9,14.8-2.1,5.1-6.4,4-10.6,2.5-6.4-2.1-12.7-4.4-19-6.8-2.4-.9-4.9-2-7-3.4-2-1.2-1.4-2.9,0-4.4,5.2-6,10.1-12.1,14.4-18.7,1.3-2.1,2.6-4.3,3.9-6.5.7-1.2,1.4-2.8,2.7-3.3h.1Z"/>
    <path class="st16" d="M1639.4,944.7c1.7-.4,4.1.7,4.5,2,.3,1.3-.6,2.2-1.4,3.2-12.4,13.9-26.2,27-42,36.2-10.5,5.8-20.5,11.2-31.4,15.2-40.2,14.5-89.3,8.3-128.5-8.6-2.5-1.2-1.7-2.7,0-4.1,7.4-6,14.3-12.6,20.8-19.6,1.8-2.1,4-2.7,6.6-1.3,4.6,2.2,9.2,4.3,13.6,6,20.9,8.3,42.5,11.3,65.8,9.3,19.3-1.3,37.8-7,55.3-14.8,12.2-5.4,23.2-12.5,33-21.4,1-.9,2.2-1.9,3.4-2.2h.2Z"/>
    <path class="st11" d="M1465.8,964.4c1.8,0,3.7,1.9,5.5,2.5,7.5,3.4,15.5,6.1,23.3,8.9,2.6,1.1,5.7.8,8.2,1.2,1.7.4,3.3,1.5,5.1,2,19.5,4.7,38.3,2.7,57-1.5,5.8-1,12.2-2.5,17.9-3.2,0,0-.3.2-.9.4-.3.1-.7.2-1.2.4-9.6,3.3-19.7,4.2-29.6,6.4-2.5.5-2.8,2-5.6,2.1-16.7,1.2-32.8-.3-48.1-4.5-10.1-2.8-19-6.4-29.6-11.7-1.1-.4-3.5-2.5-2-3h0Z"/>
    <path class="st4" d="M1178.2,1038.5c-1.2.1-2.9,0-4.1-.5,1.2-.5,3-.2,4.1.5h0Z"/>
    <path class="st4" d="M638.4,1042.6c-.2,0-6.1-.5-6.4-.5,2-.6,4.5-.3,6.4.5h0Z"/>
    <path class="st4" d="M1301.8,1042.3c-1.3.1-4.4.3-5.8.3,1.6-.7,3.9-.8,5.7-.3h0Z"/>
    <path class="st2" d="M681.6,1044.6s-21-.5-19.7-.5c5.6.1,14.4.4,19.7.5h0Z"/>
    <path class="st11" d="M723.7,1044.1c-8.9,1.1-18.3.3-27.2.5-.5,0-.7,0-.6,0,4.1,0,25.3-.7,27.9-.5h0Z"/>
  </g>
  <g id="Layer_4">
    <polygon class="st12" points="1640.4 686.3 1678.5 728.2 1640.4 736.4 1526.7 734.4 1506.3 699.6 1640.4 686.3"/>
    <polygon class="st12" points="1024.3 698.3 1120.7 643.5 1300.5 649.8 1313.1 710.4 1249.3 703.4 1135.1 700.3 1062.2 726.7 1024.3 698.3"/>
    <path class="st12" d="M975.9,708.8c-36.5-50.2-97.1-77.3-157.5-81.9h-.2c-68.4-5.1-132.4,12.2-198.7,29-22,5.5-45.3,11-69.1,15.8l-88.1,13c-13.4,1.1-26.7,1.7-39.9,1.7-27.5.3-52.1-1.3-78.6-6.2-2.3-.3-3.5-.7-4.7.3-3.9,4.6-31.2,32.7-34.5,37.5,0,0,0,.2.2.3l-5.7,6.3c-.3.2-.7.6-1,.9-.7.8-1.6,1.8-2.7,3-1.5,1.7-3.3,3.7-4.9,5.5h0c-1.9,2.1-3.6,4.1-4.6,5.2-.5.6-1,1.3-.4,1.8,31.2,1.8,63.1.1,94.5.7,47.9-.1,95.8.3,143.7-.2,13.1-.9,26.8-1.8,39.6-3.5,10.2-1.5,20.5-2.3,30.7-3.8,49.7-8.1,100.2-18.8,145.7-24.7,59.9-8.9,121.6-2.9,173.8,28.3,2,1.3,3.9,1.7,6,.4,16.2-11.6,34.4-21.9,54.1-25.2,1.1-.2,2.7-.5,3.1-1.3.4-.6,0-1.6-.8-2.7Z"/>
    <polygon class="st13" points="328.3 671.9 291.6 706.2 395.4 140.7 432.1 102.6 328.3 671.9"/>
    <path class="st8" d="M982.3,136.2c-.3,179.3-.3,290.4-.5,484.2.3,25.2,0,50.3.5,75.6.1,9.5-6.5-2.1-8.8-4.3-8.5-11.2-21.3-20.8-31.4-31.5-7.9-7-8.3-5-6.4-15.7.6-8.1.3-15,.6-23.7.7-23.1.5-47.1.5-69.9,1.7-74.1,1.4-149.7,2.4-223.3-.2-37.1,1.8-142,2-252.2,0-2.6-.3-6.1,2.7-4.1,15.2,12.9,28.9,27.8,38.1,45.4,1.4,6.3.2,13,.3,19.3v.2Z"/>
    <path class="st8" d="M1031.7,71.1c4.8,164.1,3.2,316,5.4,479,0,18.8.4,40.3.8,65,0,10.3-.8,23.1.4,34.2,0,2.4,4,3.6,4,5.4-10.4,9.8-23.7,17.6-33.4,28.5-6.2,5.1-9.8,13.7-16.9,17.2-1.1-129,.3-257.2-.5-371.5-.2-72.1.4-140.8-.2-208.2,6.2-19.5,23.8-37.5,40.3-49.6h0Z"/>
    <path class="st8" d="M1541.3,95.6c11.8,15.7,20.7,25.8,32.2,38.1,2.1,2.4,3.8,4.1,4.9,6.7,1.3,3.3,2,7.3,2.7,10.7,3.6,18.6,7.3,37.2,10.9,55.8.4,2.4.2,4.9-.2,7.3-.6,4.4-1.5,10.3-4.8,12.9-2-5.9-14.3-72.3-19.1-95,0-.7-1.6-1.4-1.5-.4,3.6,20.4,15.2,86.2,16.2,91.4.2.7-.8,1-1.4,1.5-1.4.9-4.4,2.8-6.4,4.1-.8.4-1.9,1.2-2.6.5-7-33-17.4-85.2-22-111.5-.6-3.4-1.3-7.3-3.3-10.6-.5-.7-.8-.9-.8-.4,0,.5.3,1.5.5,2.1,1.7,4.7,2.4,10.7,3.4,15.9,1.9,10.6,3.9,21.4,5.9,30.8,2.5,11.1,4.5,22.9,6.4,34.3,10.4,62.5,21.3,120,32.8,180.5,1.9,10.6,4.3,21.1,6,31.7,0,1.2-.6,2.1-1.6,2.7-1.4.9-4,2-5.3,2.7-.5.3-1.1.6-1.6.7,0,0,0,0-.1-.1-1-5.3-19.5-103.7-27-143.6-3.3-17.6-24.5-130.2-32.5-172.9-.5-3.3-1.2-4.9-.9-5.8.4-.2.7,0,1.2.5,2.1,2,6,6.6,8.2,9.2h.1Z"/>
    <path class="st8" d="M406.9,131.6c-1.1,1.2-1.5,4.8-2,6.8-8.2,40.3-15.4,73.6-22.7,112.3-9.5,43.5-18.1,90.2-26.6,133.3-9.1,48.2-18.8,97.4-27.5,146.2-10,54.2-20.9,108.9-28.1,163.3.2,0,.4-.5.7-1.4.1-.4.3-1,.4-1.5,2.3-10.5,4.3-20.6,6.4-31.1,25.9-122.8,61.8-306.5,86.2-448.9,2.9-15.9,7-39,10.6-59.3,1-5.9,2-11.1,3.1-17.4,0-.4,0-.8,0-1.2,0-.7-.2-1.1-.4-1h0ZM324.9,645.4c12.5-58.7,20.8-106.6,32.3-161.4,6.4-36.2,14.1-73,20.8-108.6,14.8-79.8,30.3-165.6,44.6-242.7.6-4.5,1.6-10.7,2.1-16.8,0-.6,0-1.2,0-1.6,0-.6-.2-.9-.3-.9-.2,0-.5.6-.8,1.6-1.6,9.2-2.8,17.1-4.4,25-7.8,38.7-15.9,83.1-23.5,123-2.9,15.5-6.8,30.6-9.2,43.4-1.7,8.5-3.5,18.5-5.2,25.9-2.4,10.7-3.6,20-5.9,30.4-6.8,33.2-12.2,66.8-18.6,100-8.9,50.2-16.9,103.2-26.8,151.8-1.3,6.4-2.4,12.6-3.7,19.5-.6,3.4-1.3,6.7-1.6,9.4-.2,1.5,0,2.4.2,2.1M338.5,642.1c-1,5.8-3.2,17.8-4.6,25.8-.5,3-.6,4-1.8,6.2-6.1,7.1-50.2,55.6-55.9,60.7-.4-.9,0-2.4.1-3.6,4.6-22.9,8.7-43.7,12.5-62.3,4.1-20.3,8.7-43.4,11.9-59.4,29.9-149.2,52.9-262,82.3-407.2,3.5-17.3,7-35.6,10.6-54.7.4-2.3.9-4.7,1.9-6.8,1.1-2.3,2.7-4.2,4.3-6.1,11.1-12.8,24-28,38.2-45.2.7-.9,2.1-2.4,2.8-2.5.7-.2.8.7.6,2.1-10.3,57.5-21.8,120-34.4,187.5-27.5,147.1-46,245.4-68.3,365.5"/>
    <path class="st15" d="M1062.2,716.2c0,.4,1.8-.6,2.5-1,7.4-4.2,14.1-8,21.3-11.5,41.4-18,91.7-24.1,134.9-17.5,18.2,3.2,35.2,5.7,53.1,9.5,8.4,1.6,18.7,4.1,28,5.4,1.6,0,3.1-.9,2.6-2.4-2.1-3.9-8.1-4.4-12-5.6-30.2-7.5-60.3-13.7-90.7-16.5-6.6-.5-12.8-.6-19.4-.4-14.4.4-29.6,1.5-43.4,4.8-17.1,4-32.9,8.2-48.1,16.3-9.5,5.1-19.2,10.3-27.5,17.3-.8.7-1.4,1.3-1.4,1.5h0ZM1044,701.8c.9.1,2.5-1,3.4-1.6,6-4.1,12.1-8.1,18.2-12,9-5.3,19.4-9.8,29-14.2,13.8-6.3,27.8-9,41.7-11.9,14.2-3.1,27.7-3.7,42.7-4.1,10.1-.4,20.2-.2,30.3.6,30.4,2,59,8.9,88.8,16.3.7.1,1.4.2,2.1.2,1.6,0,2.9-1.4,2.6-3-.3-2.5-3-3.8-5.3-4.4-53.5-15.7-110.9-23.7-165.7-12.5-9.9,1.5-19.7,4.4-28.9,8.1-14.4,5.6-26.8,10.9-38.6,20.1-7.2,5.6-13.6,10-19,16.1-.6.6-1.8,2.2-1.4,2.4M1096.4,721.1c-11.5,4.3-22.7,9.4-33.3,15.3-3.4,2-5.9,4.2-9.6.9-16.4-12.3-34-21.3-54.2-24.5-2.6-.6-2.2-1.5-.6-3.5,3.4-4.2,6.8-9.5,10.6-13.5,8.1-8.5,16.9-17.1,26-24.5,69.9-54.4,163.9-52.7,246.3-33.3,4.6,1,9.5,2.1,14.2,3.1,4.6,1.2,6.8,1.1,9,2.2,1.3,1.4,1.1,3.9,1.4,6.1.5,5.2,1.4,13.4,2.1,19.2,2.4,17.6,7.3,34.1,12.8,51.5.7,2.1,1.1,4.4-2.2,3.9-38.6-7.1-70.4-14.1-110.8-17.2-35.6-2.8-77.7,1.6-111.5,14.4"/>
    <path class="st15" d="M326.6,702.6c5,1.3,10.2,1,14.9,1.6,10.2,1,20.5,1.9,30.8,1.9,23.5.2,50-.1,74.5-2.6,1.3,0,4.1-.5,2.9-.9-2.5-.2-4.9,0-8.4,0-19.9.5-41.7.9-60.2-.5-15.3-1-31.6-2.7-48.8-5-1.8-.2-3.4-.2-4.8.6-2.1,1.1-3.2,3.8-1,4.7h.2ZM910.1,714.7c-.2-.4-1.1-1.3-1.7-1.8-4.8-4-10.2-7.3-16-10.5-8.8-5.1-17.7-9.4-27.1-12.9-8.1-2.8-16-4.7-24.7-7-8.1-2-16.3-4-24.7-4.8-35.1-3.9-62.9-.2-96.2,6.6-31.6,5.9-61.3,13.3-96,21.8-15.8,3.7-27.9,5.9-44.9,9.3-7.1,1.3-15.6,2.6-25.4,3.8-.5,0-1,.2-1.5.3-.9.2-1.5.5-1.4.7,0,.3,1.6.4,2.5.4,5.7-.4,11-1,16.6-1.6,12-1.4,24.2-2.3,36-4.4,46.1-8,92.9-19.8,138.9-27.3,11.8-2,23.7-3.2,35.6-3.5,36.9-.6,74.2,5.5,108.2,19.9,6.8,3.3,13.2,6.8,19,10.3.5.3,1,.6,1.5.8.6.3,1,.3,1,.1M600.4,688.9c.7.8,2.1,1,3.3.8,2.9-.5,5.6-1.1,8.6-1.7,8-1.6,17.4-3.5,23.8-4.9,59.3-14.1,116.1-29.9,177.1-24.7,18.6,1.7,37.6,6.1,56,11.7,13.2,4.6,26.6,11.3,38.8,18.1,6.5,3.7,13.3,8.8,19.7,13.1,1.5,1,3.2,2.2,3.8,1.9.3-.8-2.7-3.6-3.6-4.7-6.3-7.3-14.3-12-22-17.8-6.7-5.1-14.1-9.2-21.8-12.3-17.6-7.9-30.8-12.1-52.5-15.3-12.7-1.9-25.5-3.5-38.1-3.7-15.2,0-31,.8-46.4,2.5-42.9,5.7-87.9,19.8-126.8,30.6-8.6,2.4-15,4.1-19,5.2-.5.1-1,.5-.7,1.1M818.4,626.9c60.4,4.6,121,31.7,157.5,81.9.7,1.1,1.1,2,.8,2.7-.4.8-2,1.1-3.1,1.3-19.7,3.3-37.9,13.5-54.1,25.2-2,1.3-3.9.9-6-.4-52.2-31.2-113.9-37.2-173.8-28.3-45.5,5.9-96,16.5-145.7,24.7-10.2,1.5-20.4,2.3-30.7,3.8-12.8,1.6-26.5,2.5-39.6,3.5-47.9.6-95.8,0-143.7.2-31.4-.6-63.3,1-94.5-.7-.6-.5-.1-1.2.4-1.8,2.4-2.7,9.3-10.5,12.2-13.7.3-.4.8-.8,1.2-1.1.9-.5,1.9.2,3.8.8,3.2,1,6.9,1,10.4,1.2,36.5,1.2,66.4,1.1,92.7-.3,3.5-.4,8.5-.1,11.7-1.2,1-.7-1.9-.9-2.6-.9-18-.3-39.7-.9-60.4-1.9-12.7-.7-29.9-2-45.7-2.7-.7,0-1.4-.1-2-.2-1.6-.3-2.5-.7-2.6-1.2,3.3-4.8,30.7-32.9,34.5-37.5,1.2-1,2.3-.6,4.7-.3,26.5,5,51.1,6.5,78.6,6.2,65.4,0,135.9-15.2,197.1-30.5,66.3-16.8,130.2-34.1,198.7-29"/>
    <path class="st15" d="M1552.1,724.9c2.1,1,4.4.6,7.2.9,2.6.1,5.6.2,8.3.3,18.9.4,28,.8,41.2.9,10.8-.5,19.4,0,30.4-.1,10.4-.3,22.8-.6,32.8-1.1,3.1-.5.2-3.5-1.3-5.3-1.7-2-4.2-2.1-6.7-1.8-4.4.4-8.1.8-11.1,1.1-12.7.8-25.9,2-38.6,2.4-10.1,0-20.6,1.3-30.4,1.3-8.3,0-16.5.2-24.1.4-1.7.2-7.8-.3-7.7,1h0ZM1647.8,697.6c-2.9-1-6.2-.4-9.3,0-23.1,3.4-45.9,5.3-68.3,5.6-6.4.1-12.9-.3-19.3,0-8.5.3-16.9-.5-25.4-.5-2.8.1-2.4.8.1,1.1,35.1,2.8,69.1,3.6,104.3.7,6.5-.5,14.5-1.1,20.2-1.7,4.2-.5.5-4.4-2.1-5.2M1682.2,741.8c-28.4,0-84.6.8-98.4,0-36.2-.6-68.3,1.3-97.3-.9-.9-.6-1.6-1.7-2-2.8-1.1-2.5-2.1-5-3.1-7.5-6.9-15.9-13.4-32.5-17.2-49.1-.4-2.1.6-2.9,2.9-2.6,45.2,7.2,92.1,10.2,137.5,4.7,7.3-1.1,15.1-2.1,22.4-3.1,2.8-.5,6-2.1,8.3.5,11.7,12.7,23.5,25,34.7,37.9,8,9,12,13.5,17.9,20.2.9,1.1,2.2,2.2.6,2.5-1.8.4-4.5.2-6.3.3"/>
    <path class="st2" d="M829.5,158.9c-1.4.2-1,2-1.1,3.5-.3,7.8-.7,18.4-1,26.1,0,2.6-.4,3.6,0,5.2,1.7,1.9,5.3,1.7,7.7,2.2,11.3,2,26.9,1.1,27.5-13.2.3-6.6-1.9-13.4-7.3-17.3-3.6-2.8-8.5-4.2-13.1-5-4.5-.6-8.5-1.5-12.6-1.4h-.1ZM831.1,117.3c-.5,0-.8.4-.8.9-.2,4.2-.4,11.4-.7,16.6-.2,4.8-.3,8.4-.5,12.6-.2,2.2.1,2.6,2.1,3,4,.4,8.4.8,12.6.7,8.9-.1,15-7.3,14.3-16.1,0-13.5-16-17.7-26.9-17.8M807.8,135.4c.2-4.2.4-9,.4-13.3.1-3.9.4-6.9-3.3-8.1-3.5-1.3-7.4-.7-7.2-5.1,0-3.2,2.1-3.8,4.9-3.5,15.3.9,30.5,2.6,45.8,5,14.9,2,31.1,10.6,31.4,27.5.9,9.9-6.6,17.8-16.2,18.6-2,.2-3.8.6-.7,1.8,5.8,2,11.6,4.9,15.5,9.7,7,8.5,8.9,21.4,2.4,30.2-8.3,11.2-24.2,9.7-36.7,8.1-15.2-2.5-30.1-4.1-45.7-4.8-1.6-.1-3.1-.4-3.7-1.5-.9-1.6-1-4.9.5-6.2,2-1.3,6.8-.4,9.1-2.1.9-.7,1.2-1.4,1.3-2.3.3-6.6,1.9-47.5,2.2-54"/>
    <path class="st2" d="M1169.6,133.6c-5.2-1.1-5.9-2.8-7.2-7.8-1.1-3.3-2.7-6.2-5.6-8-3.5-2.2-7.9-2.4-11.9-2.4-10.2,0-19.9,4.1-25.9,12.3-4.9,5.8-7.2,12.7-9.7,19.9-2.7,9.1-1.3,18.3,2,27.4,3.9,10.6,10.2,19.3,21.3,20.4.5,0,1,0,1.4,0,1.6,0,1.4-.7,3.1-.7,5.9.2,11.5.3,17.1-1.8,6.7-2.1,7.3-9.8,8.4-16.1.7-4.3,2.9-4.4,6.6-4.3,2,.1,4.7-.4,6.3.6.5.4.5,1.1.5,1.8,0,3.9,0,15.5,0,19.4,0,.7,0,1.4-.4,2-.6,1-2,1.7-3.2,2.3-7.9,3.4-16.1,4.9-24.1,6.1-36.7,5.5-66.5-9.8-60.6-50.8,2.1-13.8,11-27,22.1-35.6,16-12.3,40.4-14.1,59.6-10,1.8.4,3.1,1.3,3,3.3.3,4.1,1.1,14.9,1.4,19.1.5,2.9-1.3,3.6-4.2,3.1h-.2Z"/>
    <path class="st2" d="M1373.2,125.8c-.6,0-.9.2-1,.7,1.5,16.8,6.2,68.6,6.7,74.2.4,3,8.2,2.9,10.9,3.4,8.3,1.1,18.1,0,23.8-6.2,15.7-19,5.2-60.9-19.4-68.3-6.8-1.9-13.9-3.5-20.9-3.8h-.1ZM1339.7,114.4c.6-1,1.8-1,2.9-.9,11.1,1.3,24.3,2.7,35.8,3.9,4.7.6,9.5,1.4,14.2,2.2,30.9,5.2,56.4,33.7,51.2,65.6-2.4,18.7-18.8,28.1-36.3,28.8-19.3.3-38.3-3.7-57.3-5.6-1.3-.2-2.6-.4-3.2-1.6-.7-1.5-1.1-4.1-.5-5.8.2-.4.5-.5.9-.7,1.3-.3,4-.1,6-.2,1.7,0,4.2-1,3.9-3-.5-5.4-4.1-45-5.7-63.3-.4-4.4-.7-7.6-.8-8.8,0-.9-.5-1.4-1.3-2-4.2-2.7-11.4-.8-9.7-8.4"/>
    <path class="st2" d="M573.1,138.9c-.4-.2-.8.3-1.2,1.3-4.1,9-12.9,28.2-15,32.7-.6,1.2,0,1.5,1.5,1.3,6.5-.7,15.2-1.7,22.1-2.4,3.4-.3,2.8-.5,1.8-3.9-.3-1-.6-1.9-.9-3-1.9-6.2-4.1-13.3-6-19.5-.6-1.9-1.1-3.6-1.4-4.7-.3-1-.5-1.6-.8-1.8h0ZM583.2,206.4c1.3-2.7,5.2-1.5,7.7-2.9,3.6-1.6,0-6.9-.5-9.8-1.7-5.4-3-9.4-3.8-11.8-.7-2.3-3.5-1.8-5.5-1.7-8.9.9-17,1.7-24.3,2.6-3.2.2-5.7,2.3-6.8,5.4-2.5,6.1-4.7,10.6-6.8,15.9-2.2,6,4.5,3.3,7.5,4.7,1,.5,1.3,1.8,1.3,3.3,0,1.5-.3,2.9-.7,3.6-.5.8-1.2.9-2.1,1-4.8.4-24.3,2.2-28.8,2.6-.7,0-1.4,0-1.8-.7-.6-1.1-.7-4.4.1-6,1.1-2.1,5.1-1.7,7.4-3.1,1.5-.9,2.2-2.3,3-3.9,14.6-30.8,27.2-56.7,39.2-84.1.8-1.7,2-2.3,3.7-2.5,2.8-.3,8.9-1,12-1.3,1.6-.2,4-.2,4.5,1.5,2,6,18.7,55,24.1,71,1.5,4.4,2.5,7.5,2.9,8.6.3,1.1,1.5,1.7,2.7,1.9,2.1.5,5.3-.4,6.4.9,1.3,1.5,1,6.3-1,6.9-6.2.8-33.2,3.8-39.6,4.4-2-.2-1.8-4.4-1.2-6.3"/>
    <path class="st2" d="M1578.5,123.7c.4-.3,1.4-.4,2.1-.4,6.7,0,14.2,3.2,16,9.9,6.4,24.9,10.8,52.4,17.2,83.9,14,67.9,27,132.2,41.1,199.9,8.4,40.6,14.1,68,22.3,109.8,3.9,19.8,17.5,83.6,24.2,116.3,4.3,19.2,7.7,41.9,12.8,63.3,1.8,7.8,3.3,15,4.7,22.5,1.1,4.7-.4,9.2-2.2,13.5-2,6-4.1,11.8-6.9,17.9-1.9,4.5-4.7,4.3-9.4,4.1-52.4,0-94.7.1-145,.2-12.3,0-25.1.1-35.3-.2-6.4-.1-13.4-.1-20.6,0-1.3,0-2.7,0-3.8-.7-1.8-1-2.6-5.8-3.6-8.2-1.4-3.7,1.9-3.3,4.8-3.4,72.4.2,105.1-.4,167.5.2,8.4,0,17.6-.2,26.3-.3,6.1-.4,11.9.5,17.7-1,1.9-.8,2.3-2.8,2.1-4.7-.6-8.2-3.2-18.1-4.5-26.4-15.4-79.8-33-163.2-49-244.5-16.9-82.6-32.6-160.6-48.7-239.2-5.9-26.4-15.5-58.4-23.5-94-1.8-5.7-.3-12-4.8-15.9-.5-.5-1.2-1.1-1.5-1.6-.3-.4-.3-.8,0-1h0Z"/>
    <path class="st2" d="M1304.1,244.8c-2.2-2.1-2.3-7.5-.2-9.1,1.1-.8,2.4-.7,3.9-.6,21.3,2.5,40.8,5.3,60.7,7.4,24.2,2.5,48.1,5.1,75.9,8.3,1.8.2,3.4.4,4.7,1.6,1.6,1.4,2.2,4.5,1.8,6.8-.6,3.3-4.6,2.8-7.1,2.5-32.5-3-63.3-5.9-95.2-10.5-11.9-1.3-23.8-3-36.4-4.3-2.6-.4-5.9-.4-7.9-2h-.1Z"/>
    <path class="st2" d="M878.9,257.8c-.9.8-2.7.5-3.9.2-6.1-1.7-12.5-3-18.3-4-10-1.9-19-3.2-28.8-4.2-28-3.2-63-3.1-92.2-1.3-4.1.3-6.6-1.3-5.8-5.7.5-4.8,5.8-5.2,9.6-5.3,31.2-1.6,58.4-2.4,88.1,1.1,11,1.2,22,2.8,32.9,4.9,4.6.9,9.5,2,14.7,3.4,1.3.4,2.5.8,3.4,1.5,2.3,1.7,2.3,7.1.5,9.4h-.1Z"/>
    <path class="st2" d="M1051.7,271.5c-5.3,1-6.1-6.7-2.8-9.5,3.8-3.2,9.4-4.2,13.9-6.1,18.4-6.3,33.1-10.5,50.4-13.4,23.7-3.7,52.2-6.9,75-6.4,3.3,0,5.5,1.9,5.5,5.4.7,7-6.8,5.3-11.2,5.7-46.1.2-88.9,7.1-130.7,24.2h-.2Z"/>
    <path class="st2" d="M473.3,261.8c-1.2-3.1,0-7.3,3.2-8.6,1.4-.6,3-.8,4.7-.9,26.7-1.5,48.9-3.1,73.1-5.5,19-1.9,39.8-4.3,62.5-7.2,2.8-.5,6.2-.1,6.5,3.5.5,3.4-1.3,7.1-5,7.6-48.9,6.3-86.3,8.8-120.9,12.3-4.9.3-10.6.6-15.5.7-2.8-.2-6.9,1.2-8.5-1.7h0Z"/>
    <path class="st2" d="M1400.8,394.3c.1.3-.2.5-.5.7-1.5.7-3.2,1.1-5.1,1.8-4.1,1.3-10.5,3.6-15.7,5-2.8.8-5.7.5-8.6.1-17.1-1.9-29.3-3.1-42.5-4.5-4.1-.9-9.2-.6-12.9-2.8-3-2-3.6-9.4.9-10,14,.4,28.8,2.8,43.5,4.6,9.2,1.2,21.6,2.6,37,4,1.1,0,3.4.4,3.7,1h0Z"/>
    <path class="st2" d="M452.8,411.6c-2.3-1.1-2.3-5-1.3-7.6,1-2.6,3.9-3.3,6.5-3.4,17-1.3,35.2-2.1,52.8-3,28.7-2.6,55.6-5.1,83.3-7.6,2-.2,4.9,0,5.5,2.2.7,2.4.3,5.6-1.3,7.3-1.9,1.8-4.9,1.8-7.3,2.1-3.7.4-8.4.9-14.3,1.6-8.4,1-16.1,1.7-26.1,2.4-10.4.8-22.6,1.7-32.3,2.4-8.8.7-19,2-27.7,2.6-10.7.6-20.1.8-32.6,1.4-1.7,0-3.5.3-5.1-.3h-.1Z"/>
    <path class="st2" d="M1190.8,408.8c3,1.6,3.7,8,1,10-.9.6-2.2.8-3.4.8-16.9-.3-34.9.6-52.3,2.6-27.3,2.9-51.5,10.1-76.2,19.3-2.1.7-5.3,1.9-6.8,0-2.4-3.8.3-9,4.3-10.4,19.4-7.9,39-13,59.2-17,11.6-2.5,23.2-4.3,35.1-4.7,7.7-.4,15.2-.8,22.4-1,4.8-.2,9-.3,12.6-.3,1.3,0,2.8,0,4,.7h.1Z"/>
    <path class="st2" d="M865.8,426.8c-1.3,1.3-3.9.9-5.8.5-45.6-9.4-91.5-8.8-137.6-4.6-5-1.1-3.7-9.3.4-10.8,35.9-5.4,72.7-4,108.7-.9,9.7.8,18,2.2,27.9,4.2,2.5.5,5.3,1.1,6.6,3.5,1.2,2.3,1.5,6.2-.2,7.9h-.1Z"/>
    <path class="st12" d="M667.7,259.9c4.8,6.2-5.6,14.5-10.4,8.2-3.9-5.9,5.4-13.5,10.3-8.3h.1Z"/>
    <path class="st12" d="M750.4,269.7c-1.5-1-2.2-3.4-1.1-5,1.3-1.6,3.7-1.8,5.6-2,2.9-.3,5.3-.5,7.1-.7,11.4-.9,33.4.2,53.6,1.2,22.4,1,52.8,7.8,73.6,13.5,2.3.5,5,2,4.9,4.8,0,2-1.9,3.2-4,2.9-21.8-6-43-10.7-64.7-12.2-18.8-1.9-35.1-3.3-52.9-2.5-4.6,0-9.5.2-14.1.3-3.6,0-5.9.1-6.9.2-.4,0-.7,0-1.1-.3h0Z"/>
    <path class="st12" d="M636.2,266.7c.2,3.9-4.5,4.8-7.7,5.1-55.6,5.9-80.9,9.7-128.8,12.4-2.3,0-4.9.5-7.1,0-3.6-1-1.9-5.6,1.1-6.3,9.5-1.5,20.2-1.8,29.3-2.8,30.7-2.7,56.1-5.1,86.1-8.8,6.7-1,13-2.1,19.7-2.9,2.8-.5,7.1-.4,7.4,3.1v.2Z"/>
    <path class="st12" d="M666.5,284.7c4.2,6.1-5.6,14.1-10.9,8.8-5.4-6.2,5.6-15.1,10.7-9h.1Z"/>
    <path class="st12" d="M915.9,283.2c6.3-3.6,13.8,8.1,7.4,12-6.1,2.8-12.8-7.7-7.6-11.9h.1Z"/>
    <path class="st12" d="M747.2,291.1c-.2-2.8,2.7-4.5,5.3-4.6,6.5-.6,12.1-.4,18.7-.4,14.2,0,26.7-.3,39.9,1,13.4,1.3,28,3.1,43.8,5.6,1.7.3,3.5.5,4.9,1.4,3,1.7,2.7,6.8-1.4,6.7-5.8-.3-12.5-2.2-17.3-2.8-5.8-1-10.4-1.8-16.1-2.3-15.8-1.1-36.2-2.4-53.1-1.9-6,.2-11.9.7-18.2,1.1-2.7.3-6.3-.5-6.4-3.7v-.2Z"/>
    <path class="st12" d="M487.2,308c-1.3-1.1-1.4-3.5,0-5,2-2.1,5.1-1.9,7.7-2,20.6-.1,44.1-3.8,65.6-5.3,17.2-1.4,35.5-3.3,50.3-5.4,2.9-.3,5.9-1,8.8-.7,2,.3,3.1,2.3,2.6,4.1-.4,2.2-2.7,3-4.7,3.3-12.1,1.9-24.5,2.4-36.8,4.1-17.9,2.8-37,3.7-55.1,5-7.4.6-16,1.4-25.4,2.4-3.2.3-6.6.7-9.7.6-1.3,0-2.5-.3-3.3-1h-.1Z"/>
    <path class="st12" d="M665.3,309.2c3.8,6.4-6.9,13.9-11.7,8.3-5-6.5,6.9-14.9,11.6-8.4h0Z"/>
    <path class="st12" d="M915.8,307.5c6-3.1,13.2,8.5,7.2,12.1-5.9,2.3-12.2-8-7.3-12h.1Z"/>
    <path class="st12" d="M894.8,330.9c-.3,2.4-3.3,2.5-5.4,1.8-7.3-1.9-14.3-3.7-21.2-5.3-7.1-1.6-16.1-3.5-22.3-4.6-6.6-1.2-10.4-1.7-16.2-2.2-25.3-2.5-48.6-3.7-73.9-2.1-3.4,0-10.3,1.4-10-3.7.3-2.5,3.1-3.6,5.4-3.8,13-.9,25-.6,38-.4,31,0,61.5,4.6,91.7,12.6,3.9,1.4,14.1,2.3,13.9,7.5v.2Z"/>
    <path class="st12" d="M607.6,317.7c1.3,4.3-4.2,5.6-7.4,5.9-6.5,1-13.9,1.7-21,2.3-34.8,2.4-57.1,6.1-92.8,6.9-4.1-.4-3.7-5.4-.4-6.7,1.3-.6,2.9-.7,4.4-.8,9.1-.5,17.1-.8,25.6-1.6,12.3-1.1,23.7-1.6,35.3-2.5,7.9-.8,16.7-1.9,24.7-2.8,6-.7,13-1.3,18.9-2,3.3,0,11-2.4,12.5,1.2v.2Z"/>
    <path class="st12" d="M915.3,332.1c5.9-3.1,12.6,7,7.5,11.4-6.1,4.3-13.6-7.1-7.7-11.3h.1Z"/>
    <path class="st12" d="M662.8,333.7c4.5,6.7-6.8,14.4-11.2,7.9-3.9-6.4,6.4-13.8,11.1-8h.1Z"/>
    <path class="st12" d="M744.7,339.8c0-2.5,2.6-3.8,4.9-3.8,3.7-.2,7.7-.5,11.6-.8,39.2-2.6,77.8,1.8,115.9,11.5,2.1.5,4.6,1.8,4.8,4.1.3,2.9-2.8,3.6-5.2,2.8-38.3-10.2-78.7-12.6-117.4-11.1-3.4,0-6.8.3-10.1.4-2,0-4.4-.9-4.5-2.9v-.2Z"/>
    <path class="st12" d="M629.2,340.5c2.3,2.2-1.3,6.9-4,5.2-2.8-2.1,1.1-7.2,3.9-5.3h.1Z"/>
    <path class="st12" d="M615.7,341.7c2.3,1.9-.8,6.7-3.6,5.4-2.8-1.8.7-7,3.5-5.5h.1Z"/>
    <path class="st12" d="M602.8,343.1c2.7,2.3-1.4,7.5-4.2,4.9-2.2-2.3,1.3-6.7,4-5h.1Z"/>
    <path class="st12" d="M575,345.5c.5,1.5-.3,3.4-1.2,4.2-1.1,1-2.4.9-3.9,1.1-28.6,2.6-57.2,5-84.6,7.1-2.7.4-6.3-.6-5.6-3.9.5-2.2,2.5-3.5,4.3-3.7,6.4-.5,67.7-5.1,89-6.7,1,0,1.6.6,2,1.8v.2Z"/>
    <path class="st12" d="M589.4,344.8c2.6,2.1-.8,7-3.7,5.2-3-2,.6-7.2,3.6-5.3h.1Z"/>
    <path class="st12" d="M914.5,356.2c6.4-3.3,13.3,8.6,6.8,12.2-6.2,2.5-12.3-8.2-6.9-12.1h.1Z"/>
    <path class="st12" d="M842,368.5c-.8,2.1-3.6,2.2-5.6,1.8-20.1-3-40.9-4.3-61.8-3.9-7.4.2-14.6.7-22,1.1-3.2,0-8.3,1.3-9.6-2.6-.6-1.9.8-4,2.6-4.7,1.7-.6,3.3-.5,5.1-.7,4.9-.3,12.1-.6,17.3-.7,24.1-.8,48.6.6,70,4.4,2.5.3,5,2.4,3.9,5.1v.2Z"/>
    <path class="st12" d="M914.5,379.9c6.7-2.9,13.2,9.9,6.2,13-6.3,1.8-11.9-9.3-6.4-12.9h.1Z"/>
    <path class="st12" d="M656.9,410c4.2,6-5.7,14-10.8,8.8-5.3-6.1,5.6-15,10.7-9h.1Z"/>
    <path class="st12" d="M610.4,417.3c.2,4.3-3.7,4.7-7.1,5-10.6,1.5-20.1,2.2-32.4,3.2-24.2,2-51.5,5.5-76.2,6.6-6.6.2-15.7,1.4-23.6,1.1-2.5-.3-3.8-2.1-3.1-4.2.8-2.4,3.4-3.1,5.6-3.1,14.3-.4,30.1-3,44.8-3.6,28.5-.5,58.1-5.3,86.9-7.9,2.1-.3,4.7.4,5.1,2.8v.2Z"/>
    <path class="st12" d="M655.2,435.3c3.9,6.8-7.1,13.6-11.5,7.9-4.7-6.6,6.8-14.4,11.4-8h0Z"/>
    <path class="st12" d="M739.3,439.8c0-3.5,4.4-4.1,7.2-4.1,17.4-.8,33.6-1.1,48.5-.8,26.1,1.2,50.9,3.2,77.3,10.1,2.8.6,6.5,2.2,5.7,5.6-.5,2.6-3.6,2.7-5.9,2-14.4-3.9-28-5.8-42.4-7.8-27.9-3.4-57.1-3.5-84.8-1.7-2.3.2-5.5-.4-5.6-3v-.2Z"/>
    <path class="st12" d="M621.6,441c-.2,6.4-9.6,4.8-14.3,5.6-6.8.5-14.6,1.1-21.9,1.9-37.8,4.3-79.1,7-114.9,9.1-2.1.2-5-.2-5.5-2.6-.3-2.5,1.5-4,4.2-4.5,34.4-2.5,56.3-3.4,76.6-5.7,27.6-2.8,43-2.5,69.2-7.4,2.6-.6,6.3.1,6.5,3.3v.2Z"/>
    <path class="st12" d="M911.8,455.2c6-3.6,13.8,7,8.7,11.9-6.2,4.7-14.7-7-8.9-11.8h.1Z"/>
    <path class="st12" d="M653.3,458.9c4.8,6.9-7.1,15.5-11.9,8.4-3.9-6.7,6.8-14.5,11.8-8.6h.1Z"/>
    <path class="st12" d="M866.1,472.6c-.5,1.7-2.3,2.4-4.2,2.2-28.1-6.3-57.6-8.6-86.2-8.2-6.1,0-9.5.2-16.7.5-4.9,0-12.2.9-18.3.5-4.4-.6-3.6-5.6.1-6.5,17-2.2,34.1-2.3,47.8-2.2,21,.5,41.3,2.7,64.4,6.9,3.8,1,13.8,1.5,13,6.6v.2Z"/>
    <path class="st12" d="M617.4,466.2c2.8,2.5-1.5,7.2-4.1,4.4-2.2-2.4,1.3-6.5,4-4.6h.1Z"/>
    <path class="st12" d="M604.1,467.3c2.8,2.3-.7,6.9-3.6,4.8-2.9-2.2.5-6.8,3.5-4.9h.1Z"/>
    <path class="st12" d="M590.6,468c2.8,2-.2,7.1-3.3,5.5-3.3-1.8,0-7.4,3.2-5.6h.1Z"/>
    <path class="st12" d="M565,471.4c0,2.6-3,3.9-5.4,4.1-17.5,2-33.9,3.2-50.6,4-15.2.7-29.7,2.9-44.3,2.6-4.7-.6-3.9-6.4.3-7.2,12.7-1.7,25.2-1.1,38.5-2.2,20.2-1.6,45.2-3.7,57-4.5,1.9-.2,4.4.7,4.5,3v.2Z"/>
    <path class="st12" d="M577,469.7c2.7,1.8,0,6.7-3,5.4-3.5-1.6-.5-7.2,2.8-5.5h.1Z"/>
    <path class="st12" d="M911.1,480.1c6.3-3.9,14.4,8,7.8,12-6.1,2.7-13-7.6-7.9-11.9h.1Z"/>
    <path class="st12" d="M651.5,484.2c4.5,7-7.6,14.6-11.7,7.8-3.6-6.5,7-13.7,11.6-7.9h.1Z"/>
    <path class="st12" d="M890.7,504.5c-.9,2.4-4.2,1.8-6.4,1.1-48.2-14.5-94.2-16.8-144.4-13.4-5.2-.1-5.1-6.1-.5-7.2,46.7-4.3,97.5-1.2,143.1,12.3,3.4.9,9.3,2.6,8.1,7.1v.2Z"/>
    <path class="st12" d="M577.6,494.1c.6,3.8-5.1,4.7-7.8,5-21.3,1.9-52.9,5-79.2,6.2-9.9.3-19.9,1.5-29.8,1.5-4.3-.7-3.3-5.9.6-6.7,9.2-1.2,20-1,27.1-1.8,11.9-1,23.4-1.9,35-2.6,14.5-.9,30.6-2.3,48.2-4.2,2.2-.3,5.5,0,5.9,2.5v.2Z"/>
    <path class="st12" d="M910.4,504.9c5.6-3.7,13.5,5.7,9.1,10.8-5.7,5.3-14.7-5.7-9.2-10.7h.1Z"/>
    <path class="st12" d="M648.8,508.5c5.1,6.2-5.3,15.3-10.7,9-4.6-5.8,4.9-14.7,10.5-9.2h.1Z"/>
    <path class="st12" d="M734.8,513.8c-.3-3,3.1-4.3,5.8-4.4,39.1-2.9,74.3-1.9,113.4,5.4,7,1.4,14.1,2.7,20.8,5.1,3.8,1.4,4.9,7.1-.4,6.6-43.5-10.7-87.9-13.9-132.8-9.7-2.5.4-6.3,0-6.7-2.9v-.2Z"/>
    <path class="st12" d="M612.8,515.4c2.8,1.4.9,6.4-2.2,5.7-3.5-1-1.3-7,2-5.8h.1Z"/>
    <path class="st12" d="M600,516.7c2.9,2.4-1.1,7.2-3.9,5-2.6-2.2.9-6.9,3.8-5h.1Z"/>
    <path class="st12" d="M559.6,518.7c3.8,6.5-6.1,7-10.2,7.2-12.6,1-24.7,1.5-37.1,2.5-17.4,1.3-35.1,3.1-54.7,3.2-3.9-.4-4.2-5.1-.8-6.6,30.9-3.4,61.4-3,91.6-7.3,2.3-.2,4.9-.4,7.3-.4,1.5,0,2.9.3,3.8,1.3h.1Z"/>
    <path class="st12" d="M585.7,517.5c3.5,1.3,1.3,7.1-2.1,5.7-2.9-1.3-1.2-6.4,1.9-5.7h.2Z"/>
    <path class="st12" d="M572.8,519.2c2.6,1.9-.3,6.4-3.1,4.9-3-1.6,0-6.8,3-5h.1Z"/>
    <path class="st12" d="M909.6,529.8c5.1-4.3,13.7,4.4,9.3,9.6-5.1,5.1-14.3-4.3-9.4-9.5h.1Z"/>
    <path class="st12" d="M647.9,535c3.8,7.2-8.7,14.1-12.5,6.7-3-6.9,8.3-13.1,12.4-6.9h0Z"/>
    <path class="st12" d="M835.8,541.2c-.8,2.4-2.7,2.2-4.6,1.9-4-.5-8.4-1-12.4-1.4-27.3-3.2-54.8-1.4-82.3-.2-1.9-.2-3.2-1.7-2.9-3.5.3-2.6,3.4-3.5,5.7-3.7,28.2-2.5,55.7-2.6,83,.2,4.2.9,14.7-.1,13.5,6.5v.2Z"/>
    <path class="st12" d="M451.3,552.9c0-3.3,4.1-4.3,7-4.3,42.4-1.5,69.9-4.2,107.5-7.1,7.7-.7,15.8-1.7,22.2-2.6,2.9-.3,5.9-.6,8.9-.4,6.5.9,3.8,7.2-1.5,7.3-47.5,4.6-88.6,8-137.7,10.5-2.6.3-6.4-.2-6.4-3.3v-.2Z"/>
    <path class="st12" d="M847.6,540.7c3.5-.3,4.3,5.3.8,5.8-3.5.5-4.4-5.1-1-5.8h.2Z"/>
    <path class="st12" d="M860,543.1c3.3-1.2,5.7,4.6,2.4,6-3.2,1-5.4-4.4-2.5-5.9h.1Z"/>
    <path class="st12" d="M872.5,546.6c2.9-1.6,6.2,3.3,3.7,5.5-3.1,2.4-6.9-3.3-3.8-5.4h.1Z"/>
    <path class="st13" d="M884.9,550.5c3.3-1.7,6.3,4.1,3.2,5.7-3.1,1.5-6.1-3.7-3.3-5.6h.1Z"/>
    <path class="st12" d="M909.2,554c6.1-3.8,14.5,7.9,8.2,12-6,2.7-13.2-7.4-8.3-11.9h.1Z"/>
    <path class="st12" d="M645.8,559.6c4,6.8-7.8,14-11.8,7-3.2-6.5,7.4-13,11.7-7.1h0Z"/>
    <path class="st12" d="M609,566.2c2.7,1.6.4,6.4-2.6,5.4-3.4-1.3-.9-6.9,2.4-5.5h.1Z"/>
    <path class="st12" d="M596.2,566.7c2.9,1.8,0,7-3.1,5.6-3.2-1.6-.5-7.3,2.9-5.7h.1Z"/>
    <path class="st12" d="M555.1,570.6c-.1,3.5-4.3,4.4-7.1,4.5-2.5.2-5.8.5-8.6.7-19.4,1.6-24.4,2.1-35.6,2.7-21.7,1.2-38.3,2.2-49.7,2.9-2.5.4-5.9-.6-5.8-3.8,0-1.7,1.3-3.1,3-3.5,33.2-2.2,66.8-4.1,100.5-6.7,1.8.2,3.3,1.3,3.3,3v.2Z"/>
    <path class="st12" d="M582.1,567.8c3.2,1.3,1.4,7-2,6.1-3.5-1-1.8-7.1,1.9-6.2h.2Z"/>
    <path class="st12" d="M567.9,569.3c3.5.5,2.8,6.8-.8,6.3-3.3-.6-2.6-6.4.6-6.3h.2Z"/>
    <path class="st12" d="M1067,284.3c-.3-5,6.8-5.9,10.4-7.3,4.2-1.4,8.2-2.4,12.5-3.5,24.3-5.8,44.7-9.7,68.6-10.8,14.1-.8,28.7-1.3,43.7-1.3,1.3,0,2.6.1,3.8.7,1.6.7,2.6,2.5,2.2,4.2-.7,3.4-5,3.1-7.6,3.1-7.6,0-21.9-.2-28.1,0-20.4,1.4-40.8,3.6-59.1,6.7-11.4,1.9-24.6,5.1-39.5,9.6-2.3.8-6.2,1.6-6.8-1.2v-.2Z"/>
    <path class="st12" d="M1232.9,263.2c5.4-5.6,14.7,2.4,10.1,8.6-5.2,6.3-15.4-2-10.2-8.5h.1Z"/>
    <path class="st12" d="M1465.4,282.4c-.8,4.9-5.7,3.2-9.7,2.9-4.5-.5-14.3-1.6-21.3-2.5-15.9-2.1-36.1-3.5-54.2-5.3-17.8-2.2-37.4-4.1-52.7-7-1.7-.7-3.3-2.3-3-4.2.4-2.5,4.3-2.4,6.5-2.2,21.5,1.3,39.9,4.8,60.6,6.8,22.3,3.7,44.1,5.3,67.5,6.6,2.8,0,6.5,1.4,6.4,4.6v.2Z"/>
    <path class="st12" d="M1491.9,279.8c5-4.8,14,3.4,9.9,9-4.9,5.9-15-3.2-10.1-8.9h.1Z"/>
    <path class="st12" d="M1234.5,287.2c5.3-5.9,15.3,2.8,9.9,8.8-5,5.3-14.6-2.5-10-8.7h.1Z"/>
    <path class="st12" d="M1181.3,290.3c-.3,3.6-4.7,4.2-7.7,4.1-7.5,0-13.6,0-20.1.5-15.4,1.2-34.3,3.7-47.8,6.5-11.3,2.1-22,6-34.5,9.4-3.8.6-4.8-3.8-2.2-5.9.9-.8,2.1-1.3,3.3-1.7,14.7-4.6,28.7-8.7,43.9-11.2,18.5-2.9,36.5-5.1,54.8-5.8,3.5,0,10-1.1,10.2,3.9v.2Z"/>
    <path class="st12" d="M1381.9,294.5c16.5,1.7,32.9,3.2,49.6,5.1,2.7.2,5.8,2.1,4.9,5.1-.7,2.4-3.4,3-5.5,2.7-13.5-1.5-36.8-4.6-54.1-6.6-14.5-1.7-33.6-3.7-44.7-5.1-3,0-6.6-2.2-5.3-5.6.9-2.4,3.8-2.5,6-2.2,8.8,1.1,17.5,2.3,26.1,3.5,7.7,1,15.3,2.1,22.8,3.1h.2Z"/>
    <path class="st12" d="M1494.9,305c5.3-6.1,15.9,2.9,10.9,8.8-5,5.5-15.2-2.6-11-8.6h.1Z"/>
    <path class="st12" d="M1236.2,310.8c6.5-5.4,15.4,5.3,9,10.5-6.1,4.5-14.5-5-9.2-10.4h.1Z"/>
    <path class="st12" d="M1182.3,313.7c.5,2.8-2.3,4.2-4.8,4.1-15.4.3-31.1,1.5-46.6,3.6-18.2,2.6-39.3,6.8-58.4,13.6-2,.6-4.5-.1-4.6-2.3-.3-3.5,4-5.1,6.9-6,20.7-7,33.5-8.8,52.7-12,16.2-2.5,32.5-3.5,49.2-4,2.2-.1,5.1.5,5.6,2.9v.2Z"/>
    <path class="st12" d="M1451.4,329c1.4,6.3-10.3,3.6-13.6,3.3-28.5-4.3-52.2-5.3-79.4-9.2-8-1.1-14.7-1.8-22.9-2.7-2.6-.2-6.5-.8-6.9-3.8-.3-2,1.2-3.4,3.3-3.5,14.1.9,26.6,3.3,40.9,4.3,23.5,2.3,40.5,5.6,68.1,6.9,3.8.2,9,.4,10.4,4.5v.2Z"/>
    <path class="st12" d="M1498.6,328.6c5.6-5.3,15.5,4.7,9.7,10.1-5.6,4.4-14.5-4.6-9.8-9.9h.1Z"/>
    <path class="st12" d="M1238.1,335c6.1-4.8,14.5,4.6,9.1,10.2-6,5.6-15.3-4.2-9.2-10h.1Z"/>
    <path class="st12" d="M1159.1,338.5c.8,6.1-9.2,4.6-13,5.5-16.6,1.9-27.5,3.3-41,6.3-8.2,1.7-20.5,5.7-33,9-4.9.8-4.5-4.6-1.3-6.5,26.5-10,54.1-14.4,82.9-17,2.1-.2,4.8.2,5.2,2.5v.2Z"/>
    <path class="st12" d="M1181.5,338.4c2.4-3,7.1.6,4.8,3.7-2.3,2.8-6.8-.5-4.8-3.5h0Z"/>
    <path class="st12" d="M1196.6,337.1c3.3-.9,5.2,4.7,2,6-3.5,1.3-5.5-4.7-2.1-6h.2Z"/>
    <path class="st12" d="M1170.8,337.4c3.8.4,3,6.5-.6,5.9-3.2-.6-2.8-5.8.5-5.9h.2Z"/>
    <path class="st12" d="M1439.5,354.1c-.7,1.4-1.5,2.2-2.8,2.1-1.6-.2-8.1-.9-17.1-1.9-22.3-2.5-66.8-7.5-86.6-9.7-1.9-.1-3-4.1-1.5-5.8.5-.8,1.4-1.5,2.3-1.4,6.1.7,97.3,10.9,103.7,11.6,1.8.3,2.7,2.8,2,4.8v.2Z"/>
    <path class="st12" d="M1210.8,337.7c3.2.3,3.4,5.5.1,6-3.8.4-4-5.9-.3-6h.2Z"/>
    <path class="st12" d="M1501.7,353.4c5.5-5.5,15.7,4.3,9.9,9.8-5.5,4.7-14.6-4.1-10-9.7h.1Z"/>
    <path class="st12" d="M1448.5,352.7c2.7-1.5,5.8,3.1,3.3,5.1-2.8,1.9-6.1-3-3.5-5h.1Z"/>
    <path class="st12" d="M1461.3,354c2.5-1.5,5.7,2.7,3.5,4.7-2.6,2-6-2.6-3.6-4.6h.1Z"/>
    <path class="st12" d="M1474.3,355.4c2.5-1.9,6.2,2.2,4,4.6-2.5,2.3-6.5-2.1-4.2-4.5h.1Z"/>
    <path class="st12" d="M1239.1,359.4c5.7-5.3,14.8,3.4,9.8,9.4-5.6,6.1-15.5-3-9.9-9.3h.1Z"/>
    <path class="st12" d="M1072.5,383.6c-2.9.2-4.1-3.1-2.3-5.3,1.2-1.6,3.4-2.5,5.4-3.1,14.6-4.6,25-7.3,37.2-9.5,17.5-3.1,35.8-5.1,55.1-6.1,2.5-.2,5.8.6,6.1,3.4.5,3.5-3.4,4.5-6.2,4.3-14.8,0-30.2,2.2-45.9,4.4-16.8,2-33.4,7.4-49.3,11.8h-.2Z"/>
    <path class="st12" d="M1188.7,364.7c-.1,3.6-5.4,4.1-6.1.5-.7-4.4,5.8-5,6.1-.7v.2Z"/>
    <path class="st12" d="M1198.8,361.8c3.3-.3,4.4,5,1.2,6-3.6,1-5.2-5.1-1.4-6h.2Z"/>
    <path class="st12" d="M1215.1,365.4c-.1,3.4-5.1,3.9-5.8.5-.7-4.2,5.6-4.9,5.8-.7v.2Z"/>
    <path class="st12" d="M852,368.1c3.5-.7,4.7,5.8.9,6-3,0-3.9-5-1-6h.2Z"/>
    <path class="st12" d="M864.5,370.4c3.5-1.1,5.5,5.3,1.6,6-3.1.4-4.6-4.6-1.8-5.9h.2Z"/>
    <path class="st13" d="M877.1,373.4c3.1-1.1,5.5,4.6,2.4,5.9-3,.9-5.2-4.3-2.6-5.8h.1Z"/>
    <path class="st12" d="M889.5,377c2.9-1.2,5.4,3.4,2.8,5.2-3.1,2-6.1-3.4-2.9-5.2h.1Z"/>
    <path class="st12" d="M1206.4,438.9c-.2,2.5-3.3,3.3-5.6,3.2-10.5-.4-18.7-.2-28.5.2-18.6.5-36.9,1.9-56,5.7-13.3,2.5-26.6,5.9-39.9,10.2-2,.8-5.4.9-5.5-1.8-.2-2.9,3.1-4.5,5.5-5.3,39.4-13.6,82.2-17.7,124.5-15.9,2.3,0,5.7.8,5.6,3.5v.2Z"/>
    <path class="st12" d="M1242.3,437.9c4.4-6.3,15,.2,11.4,7-4.1,7-15.6.3-11.5-6.8v-.2Z"/>
    <path class="st12" d="M1071.6,481c-.4-4.9,6.2-5.8,9.9-7.4,5.1-1.8,10.9-3.4,16.2-4.7,22.2-5.8,43.1-7.9,65.7-8.9,3.6-.2,7.1-.4,10.3-.6,3.4-.2,8,.2,6.9,4.9-.6,2.4-3.3,2.7-5.5,2.7-33.4.2-66,4.6-97.6,15.3-2,.8-5.3,1.3-5.9-1.2v-.2Z"/>
    <path class="st12" d="M1243.6,462.4c4-6,14.6,0,11.7,6.6-3.7,7.1-15.5.4-11.8-6.5h0Z"/>
    <path class="st12" d="M1074.8,507.7c-2.7,0-3.8-3.3-1.8-5.3,1.5-1.7,3.9-2.4,5.9-3.2,8.1-3,17.9-5.1,25.7-7.2,7-1.7,12.8-3,19.9-4.3,30.8-5.2,63.6-4.7,94.1-2.8,2.3.4,4.1,2.4,3.5,4.6-.5,2.5-4,2.8-6.4,2.7-26.9-1.2-38.1-1.5-58.4-.2-19.1.9-36.6,3.2-56.2,8-8.2,1.7-17.8,5.7-26.2,7.6h-.2Z"/>
    <path class="st12" d="M1245,486.1c5-6.3,16.2,2.4,10.9,8.7-5,5.4-15.2-2.4-11.1-8.6h.1Z"/>
    <path class="st12" d="M1207.8,512.5c-.1,2.8-3.4,3.8-5.9,3.6-14.3-.7-29.5-.6-45.5.3-27.6,1.5-54,6.6-79.5,15.5-5,1.1-5.7-4.6-1.7-6.7,34.4-13.4,69.7-16.5,105.6-16.7,6.3,0,13.1,0,20.5.1,2.6,0,6.6.5,6.5,3.7v.2Z"/>
    <path class="st12" d="M1246.4,511.3c4.5-6.1,15.2.8,11.6,7.4-4.2,6.8-15.8-.2-11.7-7.3h0Z"/>
    <path class="st12" d="M1073.2,553.9c-.5-2.6,2.2-4.5,4.5-5.2,27-9.5,56.6-14.2,85-15.3,2.2-.1,5,.4,5.5,2.8.5,1.8-.6,3.8-2.4,4.5-29.2,1.9-58.1,5.3-86.5,15.1-2.2.8-5.5,1-6.1-1.7v-.2Z"/>
    <path class="st12" d="M1247.6,537.6c3.3-6.9,14.9-2.3,12.4,5.1-2.9,7.6-15.4,2.9-12.5-4.9v-.2Z"/>
    <path class="st12" d="M1197.3,539.3c-.2,3.9-6,3.7-5.8-.3.3-3.7,5.7-3.5,5.8.1v.2Z"/>
    <path class="st12" d="M1180.3,536.4c3.6-.7,4.8,5.6.9,5.8-2.9.2-4.1-4.8-1.1-5.8h.2Z"/>
    <path class="st12" d="M1210.9,539.6c-.2,3.8-5.9,3.6-5.8-.3.3-3.6,5.6-3.5,5.8.1v.2Z"/>
    <path class="st13" d="M1220.4,537.3c3.7-.9,5,5.1,1.4,5.8-3.2.5-4.6-4.6-1.5-5.7h.2Z"/>
    <path class="st13" d="M1570.2,231.7c16.2,81.6,31.6,156.1,42.1,212,.2,2.7-1.6-1-2-1.4-1.2-2-3.4-4.1-4.2-5.6-.8-1.3-.8-2.4-1.1-3.9-15.7-81.5-30.9-159-44.8-242.1-2.6-17-6-31.6-9.4-48.8-1.1-5.6-2.3-12.4-3.4-18.9-.8-4.3-1.5-9.2-2.9-13.1-.2-.6-.4-1.2-.5-1.7-.1-.5-.1-.9,0-.9,0,0,.2,0,.4.2,2.4,3.1,3.1,7.4,3.7,10.9,4.4,26.8,15.8,79.4,22.1,113.2v.2Z"/>
    <path class="st13" d="M1584.9,229.2c15.6,72,28.3,142.4,42.1,212.7,15.8,81.6,30.4,159.2,43.2,236.4.2,1.3.5,2.7.7,4.1.3,1.7.6,3.8,0,4.1-.9-.9-1-2.6-1.4-4.1-2-9.2-3.5-18.7-5.8-27.8-11.1-51.1-21.6-103.8-31.9-155.1-23.9-118.6-48.1-252.6-67.2-367.1.5,0,1.2.4,1.2,1,1.5,7.5,17.6,89.1,18.7,94.6,0,.3.1.6.2,1.1h0Z"/>
    <path class="st13" d="M1645.1,635.6c-1.2-2.8-2.2-8.8-2.9-12.3-7.3-39.8-15.8-78.8-22.7-117-2.8-14.9-5.8-29.4-9.2-44.8-.5-1.9-.5-3.8,0-5.7.7-2.9,2.1-7.1,3.3-2.4,7,35.9,12.8,78.1,19.2,112.8,3.9,22.1,7.3,39.3,10.9,57.4.7,3.6,1.1,6.9,1.4,9.9.1,1.3.1,2.2,0,2.1h0Z"/>
    <path class="st4" d="M614.4,741.2c0-.2.5-.3,1.2-.5.4,0,.8-.2,1.3-.3,11.2-1.6,22.1-4.1,33.3-5.9,43.7-7.1,61.2-11,95.2-14.9,17.6-1.9,31.1-3.6,47.9-3.5,12.6.4,25.7,1.5,38.1,3.7,9,1.3,17.6,2.8,26.3,5.4,12.8,3.7,25.4,8.5,37.4,14.1.9.5,1.6,1,1.8,1.4.2.3,0,.6-.6.7-52-.4-183,.9-281.7-.2h0Z"/>
    <path class="st4" d="M1078.4,741c.5-1.2,2.9-2.4,4.3-3,4.6-2.1,9.6-4.2,14.5-6,10.8-4.1,21.8-7.5,33.2-9.7,15.4-2.9,30.5-5.3,46-5.6,32.7-.7,66.9,4.6,98.4,9.8,16.5,3.1,31.9,5.6,49.1,9.7.8.3,1.4.7,2,1.3,1.2,1.2,1.5,2.8,1.3,3.5,0,.5-.3.6-.4.6-6.7-.4-242.8.8-248.4-.4h0Z"/>
    <path class="st4" d="M987.2,741.9c15.8,0,30.6,6.3,43.6,14.8,2.3,1.5,5.1,3,7.1,4.5.6.5,1.2,1.2,1,2-.2.6-.9,1.2-1.8,1.7-13.9,6.5-29.2,9.5-44.6,9.6-18.6.6-37.6-1.4-54.5-9.3-6.9-2.9,1.2-5.6,4.1-7.8,13.4-8.8,28.6-15.7,45-15.5h.2Z"/>
    <polygon class="st2" points="395.5 120.1 378.3 124.3 332.4 315.6 269.9 630.2 245.4 750.8 254.6 765.8 641.7 765.8 896.8 771.7 940.5 795.3 987.1 801 1094.5 773.3 1144 753.8 1071.5 750.1 1025.9 779.6 947 774.6 913.5 753.8 454.4 747 270.7 744.7 395.5 120.1"/>
  </g>
  <g id="Layer_3">
    <path class="st10" d="M1832,686.3c-5.9-11.7-16.8-4.6-24.1,1.1-7,4.4-74.9,42.4-78,32.7-43.4-189.4-81.3-430.7-126.7-600.2-5.2-6.1-15.1-8.3-22.7-9-5.6-.2-7.5,1.7-13.2-3.6-14.3-13.2-26.2-37.3-41.6-47.2-12.1-4.4-28.2-2.1-41.3-2.8-58.2,0-116.5-13.5-172.6-29.8C1206.1-.2,1087.8-7.4,1005.8,77.7c-30.2,34.6-8.3,26.3-43.9-5.1-139.5-133.3-314.5-18.2-475-15.5-39,1.9-34.9-6.7-61.7,28.3-6.9,8-13,16.9-21,23.6-4.4,2.9-10,1.4-15.3,2.2-22.2,2.9-26.1,23.5-29.3,42.3-37.4,189.4-77.4,379.8-116,568.8-6.2,19.5-9.7,47.1,16,52.8,32.1,3.9,187.8-.8,233,1.5-96.3,69.3-48.8,220,60.2,249.2,123.2,41.4,271.3,13.3,394.6-18.6,14.7-3.7,30.2-11,45.7-9.9,150.1,39.9,296,84,431.7,6.3,2.8-2.3,6.2-1.7,9.4-.2,35.2,15.9,74.9,22.3,109.1,17.4,43.3-4.5,84.2-34,110.7-63.9,1.8-2.2,4.9-2,7.4-1.4,33.8,6.1,63.1-8.6,68.8-45.5,1.6-11.4-3.4-21.8-7.7-32-4.1-7.1-.2-10.2,6.3-12,10.7-3.6,17.8-13.1,14.2-23.5-.8-2.5-1.4-4.9.9-7,14-10.6,31.5-22.8,44.9-30.8,6.1-4,13.2-7.7,14.1-15.4,2.9-14.6,5.1-28.4,9.9-44.7,4.3-16.2,9.3-29.5,16.8-45.4,2-4,4.6-8.5,2.5-13ZM1590.3,127.6c50.4,195.6,83.2,401.7,127.5,602.9.2,10.4-5.6,21-10,30.5-1.8,2.5-5.9,1.9-8.8,1.9-68.2-.3-132.6.9-200.4-.2-4.7-.4-7.3-8.3-.7-7.7,78.3-4.1,131.3.6,206.6-1.5,5.9-.3,8.7-4.1,7.4-9.8-43.6-206.2-74.8-414.5-129.4-616.8-3.6-4.5,6.4-.6,7.8.7ZM1670.8,798.4c-5.7,6.9-3.9,14-10.9,20.7-8.5,7.7-15,17.3-23.1,25.3-8.7,8.6,13.5-26.7-20.7-22.7-21.3,6.1-32.2,33-28.8,54,3.1,15.8,8,15.8-5.4,28.8-22.9,18.7-53.3,22.3-80.5,8.2-1.2-1.2-.6-3,0-4.6,3.5-10.5,6.2-21.3,8.2-32.2,4.5-31.6,1.8-64.5-7.1-95.1-.4-2.1-1.2-4.4,2.3-4.1,62.4-.7,122.5-1.6,191,.2,5.4-.1,2.7,3.3,1,6.4-7.3,15.5-16.3,1.6-25.9,15.2ZM1675.9,831.1c-8.5,10.9-24,27.2-33,37.1-2.1,3-6.1-3-4.1-4.8,6.3-7.3,20.9-24.4,29.2-33.7,1.4-1.2,2.3-4.1,4.4-4.1,1.5.6,3.9,3.5,3.6,5.4ZM1487.4,739c-11.4-17.9-18.5-41.7-21.9-58.1,58.3,7,113.5,10.4,164.9.2,3-.7,5.3,1.4,7.1,3.5,14.9,16.4,36.4,38.7,49.3,55-2.6,1.9-8.5,1-12.4,1.5-24.8.7-50.7,1.3-75.5.3-36.8-4-75.2,1.8-111.5-2.6ZM993.1,284.3c1.7-55.7-4-113.9,1.8-169.1,120-181.6,345.3-38.5,522.2-43.3,18.9,93.8,51.1,275.5,66,352.7.6,5,8.7,7.7,13.1,6.2-17.4-126.1-44.1-229.3-60.9-340.7,9.1,8.2,17,18.9,24.9,28.1,9.4,10.1,19.6,20.3,20.9,34.8,34.5,188.4,88.1,401.5,113.2,577-17.1-19.1-36.4-37.1-52.2-57.3-14.7-66.9-23.8-130.3-37.6-196.6-1.1-8.4-2.6-15.7-11.3-7,9.2,63.1,22,118.3,33.6,184,.4,5.6,6.9,16.3-1.9,16.9-51.9,7-105.5,6.1-156.7-2.6-4.3,0-8.2-5.2-2.5-6.5,45.4,3.1,111.1-17.2,107.5-70.9-2.6-27.9-21.7-31.9-26.9-48.5-1.5-35.8-22.6-22.5-22.1-60.7,9.9-6.1,27.6-9.5,38.5-13.9,4.1,0,1.1,11.3,2,14.5.8,4.9-1.8,7.8-3.8,12-3.7,11.4,4.9,10.6-1,29.1-3.7,24.7-10.8,27,17.6,24.5,18.4,7.2,4.5-26.9,4.1-34.4-1.8-6.6,5.6-13.5.7-20.1-6.3-6.5-4-15.4-4.4-23.7-1.9-14.6,24.2-6.9,26.2-20.7-1.3-10.9-40.3-16.2-50.5-22-33.9-11.4-71.3-26.6-107.5-35.9-36.1,9.4-72,23.3-107.7,35.2-13.5,6.9-53.4,14-59.7,24.6-5.1,16.6,80.6,24.4,75.8,39.1-2.4,9.6.8,21.2-7.3,28.5-23.6,27-35.1,56.8-42.1,90.2-1.1,6.7-1.7,11.5-2,18.3.5,3.3-2.4,5.4-5.4,3.9-97.9-28.7-237.2-23.3-304.9,67.6.3-144.2,1.1-280.9.3-413.3ZM1418.4,644c-18.2-2.9-37.4-9-50.2-23.1-4.5-4.9-12.8-18.7-8.6-25.2,13.2-13.2,34.4,3.3,47.6,10,32.4,20.4,76.4,34.8,112.1,17.4,7-3.7,14.4-4.3,21.9-1.2,2.2.7,6.2,2.5,3.9,5.3-29.4,27.9-90.4,21.4-126.7,16.7ZM1510.1,492.4c-4.3-.4-3.8-25.5-9-29.7-32.9-19-84.6-15.4-118.8,1-9,7.1-4.3,22.7-7.6,32.6-.5,3-2.9,5.5-5.9,6.2-4.3.4.5-20.1.4-23.8-.6-43.9,110.5-39.5,136.6-20.1,4.7,5.4,4.2,16.2,5.2,23.8.4,3,2,8.2-1,10ZM1256.7,741c-52.5,0-120.5-.9-171.1-2.1,72.7-36.2,162.8-17.2,238.5-.9-9.2,2.6-49.7,3-67.4,3ZM1329.2,753.4c2.4.8,2.7,4.9,3.4,7.1.8,2.6,1.8,4.8-1.1,3.3-7.5-3.6-15.8-6.9-24.3-10-.6-.3-1-.5-.4-.6,7,0,15.5,0,22.3.3ZM1319.9,721.5c-83-14.9-175.2-34.1-252.9,13.2-4.2,2.9-9.4,6-13.8,1.6-16-11.7-33.2-20-52.6-23.5-5.6-1.8,3.2-8.4,4.5-11.2,72.7-77.7,164.3-91,298.6-56.7,1.2,1,1.2,2.6,1.4,4.1,1,23.3,8.4,47.7,14.8,72.6ZM991.5,123.7c.4,0,.7.3.9.5l-.9.4c0-.2,0-.5,0-.8ZM1016.3,727.2c12.7,5,26.2,12.5,36.2,22.2.8,1.8-.7,3.7-2.4,4.3-4.8,1.8-10.3-3.3-14.3-5.7-34.1-25.1-72.4-20-105.1,4.8-1.7,1-3.7,1.7-5.5.9-2-.8-3.2-3.2-2-5.1,24.8-24,61.2-32.5,93.1-21.4ZM1037.3,762.7c-25,15-76,13.1-100,.5,27.9-27,72.1-24.4,100-.5ZM741.9,707.6c-5.4,1.3-11.3,3.3-17.1,4-45.1,5-93.1,18.7-139.2,22.1-98.5,12.2-196.9,4.4-295.2,6.2-6.9.4.7-5.1,2.3-7.3,13.7-16.8,30.3-33.6,45.2-49.7.6-.8,3.1-.5,4.8-.4,103.2,16.7,206.5-6.8,305-32.8,105.8-27.7,162.7-34.7,240.3-6.9,34,13.2,66,35.5,87.3,65.6,1.2,1.7,1.4,3.5-.8,4.3-18.8,3.6-36.6,12.3-52.3,23.5-3.1,2.3-6,3.1-9.7,1.1-48.7-29.2-108.1-39.5-170.6-29.5ZM889.7,738.4c-51.4,4.9-192.5,1.3-254.7.8,86.2-15.3,172.9-37.8,254.7-.8ZM928.5,47l-.4.8c-.1-.1-.3-.2-.5-.4.3-.3.6-.4.9-.5ZM445.8,126.5c2.5-8.8,6.7-56.1,13.6-55.3,115.7,4.6,219.7-46.9,333.5-50,52.4-1.8,148,27.1,186.1,94.6,5.4,187.2-2,373,2,574.9.4,11.1-6.5.6-9.6-2.8-8.1-9.6-17.8-18.1-27.7-25.7-78.4-55.6-176.4-56.1-262.9-32.6-108.4,26.9-220.5,60.1-332.4,40.8-2.8-.5-5.2-1.7-4.2-4.9,33.9-158.2,70.7-371.7,101.5-538.8ZM399.4,136.3c13.2-13.8,24.8-32.2,39.2-44.8-29.9,186.8-75.2,389.3-104.4,574.9-.6,3.6-1.3,6.9-3.5,9.5-6.8,7.9-36.7,39.8-49,53.8-.6.7-1.5,1.7-2.2,1.9-.6,0-.6-1.1-.3-2.8,15.6-86.3,32.5-170.2,49.3-252,25.2-112.1,42.8-225.6,71-340.5ZM273.6,762.9c-9.1.2-20.5-.9-21.2-11.1,37.8-178.7,70-387.2,131.7-625.2,1.7-1.4,5.1-2.2,7-2.3,1.2.2.2,1.2-.3,1.9-54.5,193-81.4,398.8-125.7,598.2-2.9,18.6-10.4,31.3,16.1,29.5,209.9,3.3,428.7-5.8,631.1,3.3,30.3,40.9,122.4,40,153.6.9,2.4-3.1,6.6-4.4,10.3-4.5,20,1.4,40.3-.7,60.3.6-9.7,2.9-20.2,5.1-30,7.7-8.5,1.4-17.1.7-25.6.9-9.8-.5-13.7,10.2-21,14.4-29.1,10.7-64,22.5-96.5,16.8-19.6-2.4-42.7-10.9-57.8-28.5-2.1-1.5-4.3-.6-10.2-1-206.9-6.9-413.9,1.2-621.6-1.7ZM964,807.8c-10.2,3.4-21.6,7-32.6,8.2-38-10.1-74.9-25.6-112.4-37.4-1.9-.5-7.1-2.9-2.4-3.7,24.5,1.2,69.4-3.4,81.4,1.9,16.1,17.4,39.4,24.9,62.5,29.3,1,.3,3.7,1,3.4,1.7ZM926.7,999.2c-118.6,26.5-361.5,84-454.2-50.3-30.6-53.1-21.9-129.2,32.4-162.8,4.8-2.8,9.7-6.5,15.4-7.1,85-6.5,170.6-1,255.9-1.9,20.4,5.1,39.9,13.7,61.1,20.7,21.4,7.6,44.6,15.9,64.2,22.5,1.1.4,3.5,1.1,1.3,1.9-79.2,16.5-276,86.5-315.7-.8-.9-1.8-3.6-3.2-5.1-1.9-4.2,4.5-4.9,13.5-1.7,18.6,61.8,83.5,237.7,14.9,320.2-.1,141.4-26.5,293.8-129.2,432.6-57.2,10.9,7.9,9.2,28.2,7.8,40.3-1.6,20.1-12.9,35.7-29.2,46.5-15.4,8.9-32.7,12.5-49.5,14.7-113.6,25.9-219.6,93.8-335.6,117ZM1338.4,1024.7c-140.6,23.5-224.5-11.8-326-37.1,95.9-29.6,183.6-85.8,284.5-98.5,130.6-49.7-3.1-181.8,22.9-289.9,7.4-36.9,27.7-81.2,69.1-86.9,23.4-3.6,48.7-.4,69,10.7,3,1.8,6.6,2.6,9.9.8,23.3-15.8,69.8-17.6,66.6,20.5,2.3,16.1,23.3,25,25.8,41.5,1.3,8.2,2.7,18.9-3.7,25.3-8.9,5-22.8-8.2-36.9-1-41.2,21.6-85.9.3-122.5-18.1-34.1-14.9-63.5,3-34,36.6,17.8,19.8,45.6,25.1,71.1,27.8,5.4.7,11.4,0,16,2.7,5.7,56.4,43.2,104.8,49.3,161.6,16.2,100.3-65.9,187.3-161.1,204.1ZM1642,950.5c-52.6,61.2-126.7,74.9-199.8,42.8-2.4-1.2-3.6-2.7-1.5-4.7,14.5-13.4,30.1-25.8,40.9-42.5,4.3-4,9-21.9,15.3-19.8,29.8,12.5,73.9,12.5,102.3-19.9,1.1.3,2,2.1,2.9,3.5,10.4,15.6,25.2,29.5,38.5,36.2,1.9.9,2.7,2.7,1.3,4.5ZM1704.6,933c-46.5,48.3-149.5-62.9-85.5-98.7,3.3-1.3-2.3,17.7-.5,21,7.6,30.5,42.8,58.1,74.7,51.5,4.4-.7,10-4.5,8.3-9.5-.5-1.5-2.1-2.5-2.4-3.4.1-2.9,3.8-4.9,5.3-7.2,7.2-9.9,18.7,29.7,0,46.5ZM1729.2,849.2c-2.6,5.1-7.7,4.3-11.2.6-12.9-12-28.5-22.3-38.5-36.8-1.1-3.5.7-8.7,4.8-7.1,2.6,1.1,4.3,3.4,6.5,5.4,5.7,5.3,13.9,13.1,18.5,17.3,3.2,3.9,22.8,17.1,19.8,20.6ZM1807.1,717c-8,20.6-11.8,38.6-16.8,65.3-.7,7.4-4.3,8.1-9.9,11.6-67,36.9-35.8,48.9-76.9,11.9-1.5-1.6-4-3.4-3.1-5.9,2.3-4.7,5.7-9.1,8.2-13.6,5.7-10.2,12.1-24,16.8-33.9,5-13.1,4.3-14.9,18.6-19.5,19.7-6.1,37.8-15.6,55.9-25.9-8.3,10.6-21.4,25-31.6,37.4-2.9,2.8-4.8,7.4-9,8.1-7.9.2-14.7,6.1-13.7,14.4,1.6,15.5,24.6,14.7,25.8-.3.2-3.5-1.2-7.2,1.4-9.9,10.3-12.2,21.1-24.4,31-36.9,1-1.2,4.1-5.4,3.2-2.7Z"/>
  </g>
</svg>