<?xml version="1.0" encoding="UTF-8"?>
<svg id="Layer_1" xmlns="http://www.w3.org/2000/svg" version="1.1" viewBox="0 0 1510.2 826.6">
  <!-- Generator: Adobe Illustrator 29.8.3, SVG Export Plug-In . SVG Version: 2.1.1 Build 3)  -->
  <defs>
    <style>
      .st0 {
        fill: #427aa2;
      }

      .st1 {
        fill: #356485;
      }

      .st2 {
        fill: #4e5f6c;
      }

      .st3 {
        fill: #fff;
      }

      .st4 {
        fill: #fffffa;
      }

      .st5 {
        fill: #dae3e6;
      }

      .st6 {
        fill: #1e2725;
      }

      .st7 {
        fill: #28323b;
      }

      .st8 {
        fill: #416e70;
      }

      .st9 {
        fill: #98a4ae;
      }

      .st10 {
        fill: #b0b7c0;
      }

      .st11 {
        fill: #c2ccd4;
      }

      .st12 {
        fill: #d5a93e;
      }
    </style>
  </defs>
  <polygon class="st4" points="144.8 121.1 179.3 117.6 222.9 65.9 350.5 52.2 494.1 23.4 574.5 15.4 651.5 30.3 726.2 74 758.3 111.9 807.7 57.9 876.7 24.6 965.1 16.5 1051.3 26.9 1157 52.2 1262.7 67.1 1292.6 65.9 1342 119.9 1365 123.4 1475.3 743.8 22.6 751.8 144.8 121.1"/>
  <path class="st11" d="M601.8,11.8c-.5.4-1.7.1-2.1,0-.4-.1-.7-.1-1.6-.2-1.9-.3-5-.6-6-.8,3.1-.3,6.8-.1,9.7,1h0Z"/>
  <path class="st2" d="M915.7,11.4c0,.1.9.2,1,.3-.7.4-1.5.4-2.3.3-1.8-.3.8-.6,1.2-.6h.1Z"/>
  <path class="st2" d="M601.9,11.8l.6.4c-.4,0-.8,0-1.1-.2.2,0,.4,0,.5-.2Z"/>
  <path class="st2" d="M606.6,12.8c1,0,2.3,0,3.2.6-.9.3-2.5.3-3.2-.5h0Z"/>
  <path class="st8" d="M906.9,12.8c-.3.3-.8.7-1.3.7s-1.3-.2-1.3-.3c.3,0,2.6-.4,2.6-.4h0Z"/>
  <path class="st3" d="M258.1,58.7c-12.2.8-24.8,1.1-36.7.5,12-.9,24.5-1,36.7-.5h0Z"/>
  <path class="st3" d="M1291.3,59.1c-12.6.8-25.6.2-38.4-.2-1.3,0-1.3,0,0-.2,12.8-.2,25.7-.5,38.4.3h0Z"/>
  <path class="st10" d="M1292.6,59.4c-.8.3-2.1.5-2.8-.2h.9c.3,0,.3-.3.4-.3.4.2,1,.4,1.4.4h0Z"/>
  <path class="st6" d="M786.3,69.7c.2,0,.3.3,0,.5,0,0-.2,0-.3,0,0,0-.2-.2,0-.3,0-.2.2-.3.4-.3h-.1Z"/>
  <path class="st6" d="M776.2,80.6h-.3s0-.2,0-.2c0,0,.2,0,.2.2Z"/>
  <path class="st5" d="M758.6,103.1c0,.8-1.1,2.5-2,1.4-.3-.4-.8-1.4-.6-1.8.6-.4,1.9-.3,2.5.2h0v.2Z"/>
  <path class="st10" d="M578.4,127.1l-.4,8.8c0,.4.4-8.8.4-8.8h0Z"/>
  <path class="st3" d="M1192.5,540.6c.4.5-.3,1-.5,1.6-.2.9.4,1.6.7,2.4.6,1.2,1.2,2.4.6,3.7-.4.9-1.5,1.8-2.6,1.6-2.4-.6-2.5-2.9-2.3-5.3.2-1.6.4-3.5,1.5-4.1.7-.4,1.8-.5,2.5,0h.1Z"/>
  <path class="st12" d="M820.1,761.3c-4.5,0-7.8-2.3-10.4-4.2-.7-.5-1.3-.9-2-1.3h0v-.2c-1.1-.7-2.1-1.4-3.1-2.2-2.8-2-5.7-4.2-8.3-5.8-11.4-7.3-24.5-11.2-38.1-11.2s-27.2,3.9-39,11.4c-2.8,1.7-5.6,3.7-8.3,5.6l-1.1.8h0c-1,.7-1.9,1.4-2.9,2.2-2.2,1.7-4.8,3.7-8.2,4.7h-.4c-.6.2-1.2.3-1.8.3-4,0-8-2.7-9.6-6.6-1.5-3.5-.8-7.2,1.8-9.9h0c0,0,0-.2,0-.2,20.6-19.2,45.4-29.7,69.9-29.7s38.5,6.6,55.2,19.1c4.1,2.8,7.8,5.5,11.3,8.2h.2c.2.3.4.5.7.7,1.9,1.5,5.5,4.3,5.4,8.9v.5c-.5,4.5-4.9,8.1-8.9,8.9h-2.4Z"/>
  <path class="st12" d="M825.3,751.7c-.2,1.6-2.5,3.5-4.5,3.9-4,.4-6.7-2.4-10.2-4.6-3.5-2.5-7.8-5.8-11.6-8.2-25.4-16.3-57.7-15.9-83.2.2-3.2,2-6.4,4.3-9.5,6.4-3.4,2.1-6.1,5.1-9.7,6.2-3,.7-7.2-3.9-4.4-6.8,34.3-31.9,79.7-38.7,117.9-10.2,3.5,2.4,7.3,5.1,11.1,8.1,1.5,1.2,4.1,2.9,4,4.9h0Z"/>
  <path class="st1" d="M1069.1,752.3c-.7-.4,0-.4.4-.4h29.3c1.8,0,2.7,1,3.3,3,.5,1.6,1.3,4.4,2,6.7.7,2.7,2.3,5.4-.6,4.6-10.8-5.3-22.5-9.9-34.4-13.8h0Z"/>
  <path class="st5" d="M266,777c-.5,0-1,.5-1.5.7-.2,0-.4,0-.4-.2.1-.4.5-1.7.9-2.1.7-.5,2.1-.8,2.8,0,0,.2-.2.4-.4.5-.5.3-1,.8-1.3,1.2h-.1Z"/>
  <path class="st6" d="M212.7,862.6c.1.4.1.8,0,1.1v-1.1Z"/>
  <polygon class="st9" points="1410.6 686.3 1448.7 728.2 1410.6 736.4 1296.9 734.4 1276.5 699.6 1410.6 686.3"/>
  <polygon class="st9" points="794.5 698.3 890.9 643.5 1070.7 649.8 1083.3 710.4 1019.5 703.4 905.3 700.3 832.4 726.7 794.5 698.3"/>
  <path class="st9" d="M746.1,708.8c-36.5-50.2-97.1-77.3-157.5-81.9h-.2c-68.4-5.1-132.4,12.2-198.7,29-22,5.5-45.3,11-69.1,15.8l-88.1,13c-13.4,1.1-26.7,1.7-39.9,1.7-27.5.3-52.1-1.3-78.6-6.2-2.3-.3-3.5-.7-4.7.3-3.9,4.6-31.2,32.7-34.5,37.5,0,0,0,.2.2.3l-5.7,6.3c-.3.2-.7.6-1,.9-.7.8-1.6,1.8-2.7,3-1.5,1.7-3.3,3.7-4.9,5.5h0c-1.9,2.1-3.6,4.1-4.6,5.2-.5.6-1,1.3-.4,1.8,31.2,1.8,63.1,0,94.5.7,47.9,0,95.8.3,143.7-.2,13.1-.9,26.8-1.8,39.6-3.5,10.2-1.5,20.5-2.3,30.7-3.8,49.7-8.1,100.2-18.8,145.7-24.7,59.9-8.9,121.6-2.9,173.8,28.3,2,1.3,3.9,1.7,6,.4,16.2-11.6,34.4-21.9,54.1-25.2,1.1-.2,2.7-.5,3.1-1.3.4-.6,0-1.6-.8-2.7v-.2Z"/>
  <polygon class="st10" points="98.5 671.9 61.8 706.2 165.6 140.7 202.3 102.6 98.5 671.9"/>
  <path class="st5" d="M752.5,136.2c-.3,179.3-.3,290.4-.5,484.2.3,25.2,0,50.3.5,75.6,0,9.5-6.5-2.1-8.8-4.3-8.5-11.2-21.3-20.8-31.4-31.5-7.9-7-8.3-5-6.4-15.7.6-8.1.3-15,.6-23.7.7-23.1.5-47.1.5-69.9,1.7-74.1,1.4-149.7,2.4-223.3-.2-37.1,1.8-142,2-252.2,0-2.6-.3-6.1,2.7-4.1,15.2,12.9,28.9,27.8,38.1,45.4,1.4,6.3.2,13,.3,19.3v.2h0Z"/>
  <path class="st5" d="M801.9,71.1c4.8,164.1,3.2,316,5.4,479,0,18.8.4,40.3.8,65,0,10.3-.8,23.1.4,34.2,0,2.4,4,3.6,4,5.4-10.4,9.8-23.7,17.6-33.4,28.5-6.2,5.1-9.8,13.7-16.9,17.2-1.1-129,.3-257.2-.5-371.5-.2-72.1.4-140.8-.2-208.2,6.2-19.5,23.8-37.5,40.3-49.6h0Z"/>
  <path class="st5" d="M1311.5,95.6c11.8,15.7,20.7,25.8,32.2,38.1,2.1,2.4,3.8,4.1,4.9,6.7,1.3,3.3,2,7.3,2.7,10.7,3.6,18.6,7.3,37.2,10.9,55.8.4,2.4.2,4.9-.2,7.3-.6,4.4-1.5,10.3-4.8,12.9-2-5.9-14.3-72.3-19.1-95,0-.7-1.6-1.4-1.5-.4,3.6,20.4,15.2,86.2,16.2,91.4.2.7-.8,1-1.4,1.5-1.4.9-4.4,2.8-6.4,4.1-.8.4-1.9,1.2-2.6.5-7-33-17.4-85.2-22-111.5-.6-3.4-1.3-7.3-3.3-10.6-.5-.7-.8-.9-.8-.4s.3,1.5.5,2.1c1.7,4.7,2.4,10.7,3.4,15.9,1.9,10.6,3.9,21.4,5.9,30.8,2.5,11.1,4.5,22.9,6.4,34.3,10.4,62.5,21.3,120,32.8,180.5,1.9,10.6,4.3,21.1,6,31.7,0,1.2-.6,2.1-1.6,2.7-1.4.9-4,2-5.3,2.7-.5.3-1.1.6-1.6.7h0c-1-5.4-19.5-103.8-27-143.7-3.3-17.6-24.5-130.2-32.5-172.9-.5-3.3-1.2-4.9-.9-5.8.4-.2.7,0,1.2.5,2.1,2,6,6.6,8.2,9.2h0l-.3.2Z"/>
  <path class="st5" d="M177.1,131.6c-1.1,1.2-1.5,4.8-2,6.8-8.2,40.3-15.4,73.6-22.7,112.3-9.5,43.5-18.1,90.2-26.6,133.3-9.1,48.2-18.8,97.4-27.5,146.2-10,54.2-20.9,108.9-28.1,163.3.2,0,.4-.5.7-1.4.1-.4.3-1,.4-1.5,2.3-10.5,4.3-20.6,6.4-31.1,25.9-122.8,61.8-306.5,86.2-448.9,2.9-15.9,7-39,10.6-59.3,1-5.9,2-11.1,3.1-17.4v-1.2c0-.7-.2-1.1-.4-1h0ZM95.1,645.4c12.5-58.7,20.8-106.6,32.3-161.4,6.4-36.2,14.1-73,20.8-108.6,14.8-79.8,30.3-165.6,44.6-242.7.6-4.5,1.6-10.7,2.1-16.8v-1.6c0-.6-.2-.9-.3-.9-.2,0-.5.6-.8,1.6-1.6,9.2-2.8,17.1-4.4,25-7.8,38.7-15.9,83.1-23.5,123-2.9,15.5-6.8,30.6-9.2,43.4-1.7,8.5-3.5,18.5-5.2,25.9-2.4,10.7-3.6,20-5.9,30.4-6.8,33.2-12.2,66.8-18.6,100-8.9,50.2-16.9,103.2-26.8,151.8-1.3,6.4-2.4,12.6-3.7,19.5-.6,3.4-1.3,6.7-1.6,9.4-.2,1.5,0,2.4.2,2.1M108.7,642.1c-1,5.8-3.2,17.8-4.6,25.8-.5,3-.6,4-1.8,6.2-6.1,7.1-50.2,55.6-55.9,60.7-.4-.9,0-2.4.1-3.6,4.6-22.9,8.7-43.7,12.5-62.3,4.1-20.3,8.7-43.4,11.9-59.4,29.9-149.2,52.9-262,82.3-407.2,3.5-17.3,7-35.6,10.6-54.7.4-2.3.9-4.7,1.9-6.8,1.1-2.3,2.7-4.2,4.3-6.1,11.1-12.8,24-28,38.2-45.2.7-.9,2.1-2.4,2.8-2.5.7-.2.8.7.6,2.1-10.3,57.5-21.8,120-34.4,187.5-27.5,147.1-46,245.4-68.3,365.5"/>
  <path class="st11" d="M832.4,716.2c0,.4,1.8-.6,2.5-1,7.4-4.2,14.1-8,21.3-11.5,41.4-18,91.7-24.1,134.9-17.5,18.2,3.2,35.2,5.7,53.1,9.5,8.4,1.6,18.7,4.1,28,5.4,1.6,0,3.1-.9,2.6-2.4-2.1-3.9-8.1-4.4-12-5.6-30.2-7.5-60.3-13.7-90.7-16.5-6.6-.5-12.8-.6-19.4-.4-14.4.4-29.6,1.5-43.4,4.8-17.1,4-32.9,8.2-48.1,16.3-9.5,5.1-19.2,10.3-27.5,17.3-.8.7-1.4,1.3-1.4,1.5h0ZM814.2,701.8c.9,0,2.5-1,3.4-1.6,6-4.1,12.1-8.1,18.2-12,9-5.3,19.4-9.8,29-14.2,13.8-6.3,27.8-9,41.7-11.9,14.2-3.1,27.7-3.7,42.7-4.1,10.1-.4,20.2-.2,30.3.6,30.4,2,59,8.9,88.8,16.3.7,0,1.4.2,2.1.2,1.6,0,2.9-1.4,2.6-3-.3-2.5-3-3.8-5.3-4.4-53.5-15.7-110.9-23.7-165.7-12.5-9.9,1.5-19.7,4.4-28.9,8.1-14.4,5.6-26.8,10.9-38.6,20.1-7.2,5.6-13.6,10-19,16.1-.6.6-1.8,2.2-1.4,2.4M866.6,721.1c-11.5,4.3-22.7,9.4-33.3,15.3-3.4,2-5.9,4.2-9.6.9-16.4-12.3-34-21.3-54.2-24.5-2.6-.6-2.2-1.5-.6-3.5,3.4-4.2,6.8-9.5,10.6-13.5,8.1-8.5,16.9-17.1,26-24.5,69.9-54.4,163.9-52.7,246.3-33.3,4.6,1,9.5,2.1,14.2,3.1,4.6,1.2,44.5,7.1,44.8,9.3.5,5.2,132.1,20.2,132.8,26,2.4,17.6,17,48.5,22.5,65.9.7,2.1-173.6-17.8-176.9-18.3-38.6-7.1-70.4-14.1-110.8-17.2-35.6-2.8-77.7,1.6-111.5,14.4"/>
  <path class="st11" d="M96.8,702.6c5,1.3,10.2,1,14.9,1.6,10.2,1,20.5,1.9,30.8,1.9,23.5.2,50,0,74.5-2.6,1.3,0,4.1-.5,2.9-.9-2.5-.2-4.9,0-8.4,0-19.9.5-41.7.9-60.2-.5-15.3-1-31.6-2.7-48.8-5-1.8-.2-3.4-.2-4.8.6-2.1,1.1-3.2,3.8-1,4.7h.2v.2ZM680.3,714.7c-.2-.4-1.1-1.3-1.7-1.8-4.8-4-10.2-7.3-16-10.5-8.8-5.1-17.7-9.4-27.1-12.9-8.1-2.8-16-4.7-24.7-7-8.1-2-16.3-4-24.7-4.8-35.1-3.9-62.9-.2-96.2,6.6-31.6,5.9-61.3,13.3-96,21.8-15.8,3.7-27.9,5.9-44.9,9.3-7.1,1.3-15.6,2.6-25.4,3.8-.5,0-1,.2-1.5.3-.9.2-1.5.5-1.4.7,0,.3,1.6.4,2.5.4,5.7-.4,11-1,16.6-1.6,12-1.4,24.2-2.3,36-4.4,46.1-8,92.9-19.8,138.9-27.3,11.8-2,23.7-3.2,35.6-3.5,36.9-.6,74.2,5.5,108.2,19.9,6.8,3.3,13.2,6.8,19,10.3.5.3,1,.6,1.5.8.6.3,1,.3,1,0M370.6,688.9c.7.8,2.1,1,3.3.8,2.9-.5,5.6-1.1,8.6-1.7,8-1.6,17.4-3.5,23.8-4.9,59.3-14.1,116.1-29.9,177.1-24.7,18.6,1.7,37.6,6.1,56,11.7,13.2,4.6,26.6,11.3,38.8,18.1,6.5,3.7,13.3,8.8,19.7,13.1,1.5,1,3.2,2.2,3.8,1.9.3-.8-2.7-3.6-3.6-4.7-6.3-7.3-14.3-12-22-17.8-6.7-5.1-14.1-9.2-21.8-12.3-17.6-7.9-30.8-12.1-52.5-15.3-12.7-1.9-25.5-3.5-38.1-3.7-15.2,0-31,.8-46.4,2.5-42.9,5.7-87.9,19.8-126.8,30.6-8.6,2.4-15,4.1-19,5.2-.5,0-1,.5-.7,1.1M588.6,626.9c60.4,4.6,121,31.7,157.5,81.9.7,1.1,1.1,2,.8,2.7-.4.8-2,1.1-3.1,1.3-19.7,3.3-37.9,13.5-54.1,25.2-2,1.3-3.9.9-6-.4-52.2-31.2-113.9-37.2-173.8-28.3-45.5,5.9-96,16.5-145.7,24.7-10.2,1.5-20.4,2.3-30.7,3.8-12.8,1.6-26.5,2.5-39.6,3.5-47.9.6-95.8,0-143.7.2-31.4-.6-63.3,1-94.5-.7-.6-.5-.1-1.2.4-1.8,2.4-2.7,9.3-10.5,12.2-13.7.3-.4.8-.8,1.2-1.1.9-.5,1.9.2,3.8.8,3.2,1,6.9,1,10.4,1.2,36.5,1.2,66.4,1.1,92.7-.3,3.5-.4,8.5,0,11.7-1.2,1-.7-1.9-.9-2.6-.9-18-.3-39.7-.9-60.4-1.9-12.7-.7-29.9-2-45.7-2.7-.7,0-1.4,0-2-.2-1.6-.3-2.5-.7-2.6-1.2,3.3-4.8,30.7-32.9,34.5-37.5,1.2-1,2.3-.6,4.7-.3,26.5,5,51.1,6.5,78.6,6.2,65.4,0,135.9-15.2,197.1-30.5,66.3-16.8,130.2-34.1,198.7-29"/>
  <path class="st11" d="M1322.3,724.9c2.1,1,4.4.6,7.2.9,2.6,0,5.6.2,8.3.3,18.9.4,28,.8,41.2.9,10.8-.5,19.4,0,30.4,0,10.4-.3,22.8-.6,32.8-1.1,3.1-.5.2-3.5-1.3-5.3-1.7-2-4.2-2.1-6.7-1.8-4.4.4-8.1.8-11.1,1.1-12.7.8-25.9,2-38.6,2.4-10.1,0-20.6,1.3-30.4,1.3s-16.5.2-24.1.4c-1.7.2-7.8-.3-7.7,1h0ZM1418,697.6c-2.9-1-6.2-.4-9.3,0-23.1,3.4-45.9,5.3-68.3,5.6-6.4,0-12.9-.3-19.3,0-8.5.3-16.9-.5-25.4-.5-2.8,0-2.4.8,0,1.1,35.1,2.8,69.1,3.6,104.3.7,6.5-.5,14.5-1.1,20.2-1.7,4.2-.5.5-4.4-2.1-5.2M1452.4,741.8c-28.4,0-84.6.8-98.4,0-36.2-.6-68.3,1.3-97.3-.9-.9-.6-1.6-1.7-2-2.8-1.1-2.5-2.1-5-3.1-7.5-6.9-15.9-13.4-32.5-17.2-49.1-.4-2.1.6-2.9,2.9-2.6,45.2,7.2,92.1,10.2,137.5,4.7,7.3-1.1,15.1-2.1,22.4-3.1,2.8-.5,6-2.1,8.3.5,11.7,12.7,23.5,25,34.7,37.9,8,9,12,13.5,17.9,20.2.9,1.1,2.2,2.2.6,2.5-1.8.4-4.5.2-6.3.3"/>
  <path class="st0" d="M599.7,158.9c-1.4.2-1,2-1.1,3.5-.3,7.8-.7,18.4-1,26.1,0,2.6-.4,3.6,0,5.2,1.7,1.9,5.3,1.7,7.7,2.2,11.3,2,26.9,1.1,27.5-13.2.3-6.6-1.9-13.4-7.3-17.3-3.6-2.8-8.5-4.2-13.1-5-4.5-.6-8.5-1.5-12.6-1.4h-.1ZM601.3,117.3c-.5,0-.8.4-.8.9-.2,4.2-.4,11.4-.7,16.6-.2,4.8-.3,8.4-.5,12.6-.2,2.2,0,2.6,2.1,3,4,.4,8.4.8,12.6.7,8.9-.1,15-7.3,14.3-16.1,0-13.5-16-17.7-26.9-17.8M578,135.4c.2-4.2.4-9,.4-13.3,0-3.9.4-6.9-3.3-8.1-3.5-1.3-7.4-.7-7.2-5.1,0-3.2,2.1-3.8,4.9-3.5,15.3.9,30.5,2.6,45.8,5,14.9,2,31.1,10.6,31.4,27.5.9,9.9-6.6,17.8-16.2,18.6-2,.2-3.8.6-.7,1.8,5.8,2,11.6,4.9,15.5,9.7,7,8.5,8.9,21.4,2.4,30.2-8.3,11.2-24.2,9.7-36.7,8.1-15.2-2.5-30.1-4.1-45.7-4.8-1.6-.1-3.1-.4-3.7-1.5-.9-1.6-1-4.9.5-6.2,2-1.3,6.8-.4,9.1-2.1.9-.7,1.2-1.4,1.3-2.3.3-6.6,1.9-47.5,2.2-54"/>
  <path class="st0" d="M939.8,133.6c-5.2-1.1-5.9-2.8-7.2-7.8-1.1-3.3-2.7-6.2-5.6-8-3.5-2.2-7.9-2.4-11.9-2.4-10.2,0-19.9,4.1-25.9,12.3-4.9,5.8-7.2,12.7-9.7,19.9-2.7,9.1-1.3,18.3,2,27.4,3.9,10.6,10.2,19.3,21.3,20.4h1.4c1.6,0,1.4-.7,3.1-.7,5.9.2,11.5.3,17.1-1.8,6.7-2.1,7.3-9.8,8.4-16.1.7-4.3,2.9-4.4,6.6-4.3,2,.1,4.7-.4,6.3.6.5.4.5,1.1.5,1.8v19.4c0,.7,0,1.4-.4,2-.6,1-2,1.7-3.2,2.3-7.9,3.4-16.1,4.9-24.1,6.1-36.7,5.5-66.5-9.8-60.6-50.8,2.1-13.8,11-27,22.1-35.6,16-12.3,40.4-14.1,59.6-10,1.8.4,3.1,1.3,3,3.3.3,4.1,1.1,14.9,1.4,19.1.5,2.9-1.3,3.6-4.2,3.1h-.2l.2-.2Z"/>
  <path class="st0" d="M1143.4,125.8c-.6,0-.9.2-1,.7,1.5,16.8,6.2,68.6,6.7,74.2.4,3,8.2,2.9,10.9,3.4,8.3,1.1,18.1,0,23.8-6.2,15.7-19,5.2-60.9-19.4-68.3-6.8-1.9-13.9-3.5-20.9-3.8h0ZM1109.9,114.4c.6-1,1.8-1,2.9-.9,11.1,1.3,24.3,2.7,35.8,3.9,4.7.6,9.5,1.4,14.2,2.2,30.9,5.2,56.4,33.7,51.2,65.6-2.4,18.7-18.8,28.1-36.3,28.8-19.3.3-38.3-3.7-57.3-5.6-1.3-.2-2.6-.4-3.2-1.6-.7-1.5-1.1-4.1-.5-5.8.2-.4.5-.5.9-.7,1.3-.3,4-.1,6-.2,1.7,0,4.2-1,3.9-3-.5-5.4-4.1-45-5.7-63.3-.4-4.4-.7-7.6-.8-8.8,0-.9-.5-1.4-1.3-2-4.2-2.7-11.4-.8-9.7-8.4"/>
  <path class="st0" d="M343.3,138.9c-.4-.2-.8.3-1.2,1.3-4.1,9-12.9,28.2-15,32.7-.6,1.2,0,1.5,1.5,1.3,6.5-.7,15.2-1.7,22.1-2.4,3.4-.3,2.8-.5,1.8-3.9-.3-1-.6-1.9-.9-3-1.9-6.2-4.1-13.3-6-19.5-.6-1.9-1.1-3.6-1.4-4.7-.3-1-.5-1.6-.8-1.8h0ZM353.4,206.4c1.3-2.7,5.2-1.5,7.7-2.9,3.6-1.6,0-6.9-.5-9.8-1.7-5.4-3-9.4-3.8-11.8-.7-2.3-3.5-1.8-5.5-1.7-8.9.9-17,1.7-24.3,2.6-3.2.2-5.7,2.3-6.8,5.4-2.5,6.1-4.7,10.6-6.8,15.9-2.2,6,4.5,3.3,7.5,4.7,1,.5,1.3,1.8,1.3,3.3s-.3,2.9-.7,3.6c-.5.8-1.2.9-2.1,1-4.8.4-24.3,2.2-28.8,2.6-.7,0-1.4,0-1.8-.7-.6-1.1-.7-4.4,0-6,1.1-2.1,5.1-1.7,7.4-3.1,1.5-.9,2.2-2.3,3-3.9,14.6-30.8,27.2-56.7,39.2-84.1.8-1.7,2-2.3,3.7-2.5,2.8-.3,8.9-1,12-1.3,1.6-.2,4-.2,4.5,1.5,2,6,18.7,55,24.1,71,1.5,4.4,2.5,7.5,2.9,8.6.3,1.1,1.5,1.7,2.7,1.9,2.1.5,5.3-.4,6.4.9,1.3,1.5,1,6.3-1,6.9-6.2.8-33.2,3.8-39.6,4.4-2-.2-1.8-4.4-1.2-6.3"/>
  <path class="st0" d="M1348.7,123.7c.4-.3,1.4-.4,2.1-.4,6.7,0,14.2,3.2,16,9.9,6.4,24.9,10.8,52.4,17.2,83.9,14,67.9,27,132.2,41.1,199.9,8.4,40.6,14.1,68,22.3,109.8,3.9,19.8,17.5,83.6,24.2,116.3,4.3,19.2,7.7,41.9,12.8,63.3,1.8,7.8,3.3,15,4.7,22.5,1.1,4.7-.4,9.2-2.2,13.5-2,6-4.1,11.8-6.9,17.9-1.9,4.5-4.7,4.3-9.4,4.1-52.4,0-94.7,0-145,.2-12.3,0-25.1,0-35.3-.2-6.4,0-13.4,0-20.6,0-1.3,0-2.7,0-3.8-.7-1.8-1-2.6-5.8-3.6-8.2-1.4-3.7,1.9-3.3,4.8-3.4,72.4.2,105.1-.4,167.5.2,8.4,0,17.6-.2,26.3-.3,6.1-.4,11.9.5,17.7-1,1.9-.8,2.3-2.8,2.1-4.7-.6-8.2-3.2-18.1-4.5-26.4-15.4-79.8-33-163.2-49-244.5-16.9-82.6-32.6-160.6-48.7-239.2-5.9-26.4-15.5-58.4-23.5-94-1.8-5.7-.3-12-4.8-15.9-.5-.5-1.2-1.1-1.5-1.6-.3-.4-.3-.8,0-1h0Z"/>
  <path class="st0" d="M1074.3,244.8c-2.2-2.1-2.3-7.5-.2-9.1,1.1-.8,2.4-.7,3.9-.6,21.3,2.5,40.8,5.3,60.7,7.4,24.2,2.5,48.1,5.1,75.9,8.3,1.8.2,3.4.4,4.7,1.6,1.6,1.4,2.2,4.5,1.8,6.8-.6,3.3-4.6,2.8-7.1,2.5-32.5-3-63.3-5.9-95.2-10.5-11.9-1.3-23.8-3-36.4-4.3-2.6-.4-5.9-.4-7.9-2h-.2Z"/>
  <path class="st0" d="M649.1,257.8c-.9.8-2.7.5-3.9.2-6.1-1.7-12.5-3-18.3-4-10-1.9-19-3.2-28.8-4.2-28-3.2-63-3.1-92.2-1.3-4.1.3-6.6-1.3-5.8-5.7.5-4.8,5.8-5.2,9.6-5.3,31.2-1.6,58.4-2.4,88.1,1.1,11,1.2,22,2.8,32.9,4.9,4.6.9,9.5,2,14.7,3.4,1.3.4,2.5.8,3.4,1.5,2.3,1.7,2.3,7.1.5,9.4h-.2Z"/>
  <path class="st0" d="M821.9,271.5c-5.3,1-6.1-6.7-2.8-9.5,3.8-3.2,9.4-4.2,13.9-6.1,18.4-6.3,33.1-10.5,50.4-13.4,23.7-3.7,52.2-6.9,75-6.4,3.3,0,5.5,1.9,5.5,5.4.7,7-6.8,5.3-11.2,5.7-46.1.2-88.9,7.1-130.7,24.2h-.2,0Z"/>
  <path class="st0" d="M243.5,261.8c-1.2-3.1,0-7.3,3.2-8.6,1.4-.6,3-.8,4.7-.9,26.7-1.5,48.9-3.1,73.1-5.5,19-1.9,39.8-4.3,62.5-7.2,2.8-.5,6.2-.1,6.5,3.5.5,3.4-1.3,7.1-5,7.6-48.9,6.3-86.3,8.8-120.9,12.3-4.9.3-10.6.6-15.5.7-2.8-.2-6.9,1.2-8.5-1.7h0v-.2Z"/>
  <path class="st0" d="M223,411.6c-2.3-1.1-2.3-5-1.3-7.6s3.9-3.3,6.5-3.4c17-1.3,35.2-2.1,52.8-3,28.7-2.6,55.6-5.1,83.3-7.6,2-.2,4.9,0,5.5,2.2.7,2.4.3,5.6-1.3,7.3-1.9,1.8-4.9,1.8-7.3,2.1-3.7.4-8.4.9-14.3,1.6-8.4,1-16.1,1.7-26.1,2.4-10.4.8-22.6,1.7-32.3,2.4-8.8.7-19,2-27.7,2.6-10.7.6-20.1.8-32.6,1.4-1.7,0-3.5.3-5.1-.3h-.1Z"/>
  <path class="st0" d="M961,408.8c3,1.6,3.7,8,1,10-.9.6-2.2.8-3.4.8-16.9-.3-34.9.6-52.3,2.6-27.3,2.9-51.5,10.1-76.2,19.3-2.1.7-5.3,1.9-6.8,0-2.4-3.8.3-9,4.3-10.4,19.4-7.9,39-13,59.2-17,11.6-2.5,23.2-4.3,35.1-4.7,7.7-.4,15.2-.8,22.4-1,4.8-.2,9-.3,12.6-.3s2.8,0,4,.7h.1Z"/>
  <path class="st0" d="M636,426.8c-1.3,1.3-3.9.9-5.8.5-45.6-9.4-91.5-8.8-137.6-4.6-5-1.1-3.7-9.3.4-10.8,35.9-5.4,72.7-4,108.7-.9,9.7.8,18,2.2,27.9,4.2,2.5.5,5.3,1.1,6.6,3.5,1.2,2.3,1.5,6.2-.2,7.9h0v.2Z"/>
  <path class="st9" d="M437.9,259.9c4.8,6.2-5.6,14.5-10.4,8.2-3.9-5.9,5.4-13.5,10.3-8.3h.1Z"/>
  <path class="st9" d="M520.6,269.7c-1.5-1-2.2-3.4-1.1-5,1.3-1.6,3.7-1.8,5.6-2,2.9-.3,5.3-.5,7.1-.7,11.4-.9,33.4.2,53.6,1.2,22.4,1,52.8,7.8,73.6,13.5,2.3.5,5,2,4.9,4.8,0,2-1.9,3.2-4,2.9-21.8-6-43-10.7-64.7-12.2-18.8-1.9-35.1-3.3-52.9-2.5-4.6,0-9.5.2-14.1.3-3.6,0-5.9.1-6.9.2-.4,0-.7,0-1.1-.3h0v-.2Z"/>
  <path class="st9" d="M406.4,266.7c.2,3.9-4.5,4.8-7.7,5.1-55.6,5.9-80.9,9.7-128.8,12.4-2.3,0-4.9.5-7.1,0-3.6-1-1.9-5.6,1.1-6.3,9.5-1.5,20.2-1.8,29.3-2.8,30.7-2.7,56.1-5.1,86.1-8.8,6.7-1,13-2.1,19.7-2.9,2.8-.5,7.1-.4,7.4,3.1v.2h0Z"/>
  <path class="st9" d="M436.7,284.7c4.2,6.1-5.6,14.1-10.9,8.8-5.4-6.2,5.6-15.1,10.7-9h0v.2Z"/>
  <path class="st9" d="M686.1,283.2c6.3-3.6,13.8,8.1,7.4,12-6.1,2.8-12.8-7.7-7.6-11.9h.2Z"/>
  <path class="st9" d="M517.4,291.1c-.2-2.8,2.7-4.5,5.3-4.6,6.5-.6,12.1-.4,18.7-.4,14.2,0,26.7-.3,39.9,1,13.4,1.3,28,3.1,43.8,5.6,1.7.3,3.5.5,4.9,1.4,3,1.7,2.7,6.8-1.4,6.7-5.8-.3-12.5-2.2-17.3-2.8-5.8-1-10.4-1.8-16.1-2.3-15.8-1.1-36.2-2.4-53.1-1.9-6,.2-11.9.7-18.2,1.1-2.7.3-6.3-.5-6.4-3.7v-.2h-.1Z"/>
  <path class="st9" d="M257.4,308c-1.3-1.1-1.4-3.5,0-5,2-2.1,5.1-1.9,7.7-2,20.6-.1,44.1-3.8,65.6-5.3,17.2-1.4,35.5-3.3,50.3-5.4,2.9-.3,5.9-1,8.8-.7,2,.3,3.1,2.3,2.6,4.1-.4,2.2-2.7,3-4.7,3.3-12.1,1.9-24.5,2.4-36.8,4.1-17.9,2.8-37,3.7-55.1,5-7.4.6-16,1.4-25.4,2.4-3.2.3-6.6.7-9.7.6-1.3,0-2.5-.3-3.3-1h-.1.1Z"/>
  <path class="st9" d="M435.5,309.2c3.8,6.4-6.9,13.9-11.7,8.3-5-6.5,6.9-14.9,11.6-8.4h.1Z"/>
  <path class="st9" d="M686,307.5c6-3.1,13.2,8.5,7.2,12.1-5.9,2.3-12.2-8-7.3-12h0Z"/>
  <path class="st9" d="M665,330.9c-.3,2.4-3.3,2.5-5.4,1.8-7.3-1.9-14.3-3.7-21.2-5.3-7.1-1.6-16.1-3.5-22.3-4.6-6.6-1.2-10.4-1.7-16.2-2.2-25.3-2.5-48.6-3.7-73.9-2.1-3.4,0-10.3,1.4-10-3.7.3-2.5,3.1-3.6,5.4-3.8,13-.9,25-.6,38-.4,31,0,61.5,4.6,91.7,12.6,3.9,1.4,14.1,2.3,13.9,7.5v.2Z"/>
  <path class="st9" d="M377.8,317.7c1.3,4.3-4.2,5.6-7.4,5.9-6.5,1-13.9,1.7-21,2.3-34.8,2.4-57.1,6.1-92.8,6.9-4.1-.4-3.7-5.4-.4-6.7,1.3-.6,2.9-.7,4.4-.8,9.1-.5,17.1-.8,25.6-1.6,12.3-1.1,23.7-1.6,35.3-2.5,7.9-.8,16.7-1.9,24.7-2.8,6-.7,13-1.3,18.9-2,3.3,0,11-2.4,12.5,1.2v.2h.2Z"/>
  <path class="st9" d="M685.5,332.1c5.9-3.1,12.6,7,7.5,11.4-6.1,4.3-13.6-7.1-7.7-11.3h.2Z"/>
  <path class="st9" d="M433,333.7c4.5,6.7-6.8,14.4-11.2,7.9-3.9-6.4,6.4-13.8,11.1-8h.1Z"/>
  <path class="st9" d="M514.9,339.8c0-2.5,2.6-3.8,4.9-3.8,3.7-.2,7.7-.5,11.6-.8,39.2-2.6,77.8,1.8,115.9,11.5,2.1.5,4.6,1.8,4.8,4.1.3,2.9-2.8,3.6-5.2,2.8-38.3-10.2-78.7-12.6-117.4-11.1-3.4,0-6.8.3-10.1.4-2,0-4.4-.9-4.5-2.9v-.2Z"/>
  <path class="st9" d="M399.4,340.5c2.3,2.2-1.3,6.9-4,5.2-2.8-2.1,1.1-7.2,3.9-5.3h0Z"/>
  <path class="st9" d="M385.9,341.7c2.3,1.9-.8,6.7-3.6,5.4-2.8-1.8.7-7,3.5-5.5h0Z"/>
  <path class="st9" d="M373,343.1c2.7,2.3-1.4,7.5-4.2,4.9-2.2-2.3,1.3-6.7,4-5h.2Z"/>
  <path class="st9" d="M345.2,345.5c.5,1.5-.3,3.4-1.2,4.2-1.1,1-2.4.9-3.9,1.1-28.6,2.6-57.2,5-84.6,7.1-2.7.4-6.3-.6-5.6-3.9.5-2.2,2.5-3.5,4.3-3.7,6.4-.5,67.7-5.1,89-6.7,1,0,1.6.6,2,1.8v.2h0Z"/>
  <path class="st9" d="M359.6,344.8c2.6,2.1-.8,7-3.7,5.2-3-2,.6-7.2,3.6-5.3h.1Z"/>
  <path class="st9" d="M684.7,356.2c6.4-3.3,13.3,8.6,6.8,12.2-6.2,2.5-12.3-8.2-6.9-12.1h.1Z"/>
  <path class="st9" d="M612.2,368.5c-.8,2.1-3.6,2.2-5.6,1.8-20.1-3-40.9-4.3-61.8-3.9-7.4.2-14.6.7-22,1.1-3.2,0-8.3,1.3-9.6-2.6-.6-1.9.8-4,2.6-4.7,1.7-.6,3.3-.5,5.1-.7,4.9-.3,12.1-.6,17.3-.7,24.1-.8,48.6.6,70,4.4,2.5.3,5,2.4,3.9,5.1v.2h0Z"/>
  <path class="st9" d="M684.7,379.9c6.7-2.9,13.2,9.9,6.2,13-6.3,1.8-11.9-9.3-6.4-12.9h.2Z"/>
  <path class="st9" d="M427.1,410c4.2,6-5.7,14-10.8,8.8-5.3-6.1,5.6-15,10.7-9h0v.2Z"/>
  <path class="st9" d="M380.6,417.3c.2,4.3-3.7,4.7-7.1,5-10.6,1.5-20.1,2.2-32.4,3.2-24.2,2-51.5,5.5-76.2,6.6-6.6.2-15.7,1.4-23.6,1.1-2.5-.3-3.8-2.1-3.1-4.2.8-2.4,3.4-3.1,5.6-3.1,14.3-.4,30.1-3,44.8-3.6,28.5-.5,58.1-5.3,86.9-7.9,2.1-.3,4.7.4,5.1,2.8v.2h0Z"/>
  <path class="st9" d="M425.4,435.3c3.9,6.8-7.1,13.6-11.5,7.9-4.7-6.6,6.8-14.4,11.4-8h0Z"/>
  <path class="st9" d="M509.5,439.8c0-3.5,4.4-4.1,7.2-4.1,17.4-.8,33.6-1.1,48.5-.8,26.1,1.2,50.9,3.2,77.3,10.1,2.8.6,6.5,2.2,5.7,5.6-.5,2.6-3.6,2.7-5.9,2-14.4-3.9-28-5.8-42.4-7.8-27.9-3.4-57.1-3.5-84.8-1.7-2.3.2-5.5-.4-5.6-3v-.2h0Z"/>
  <path class="st9" d="M391.8,441c-.2,6.4-9.6,4.8-14.3,5.6-6.8.5-14.6,1.1-21.9,1.9-37.8,4.3-79.1,7-114.9,9.1-2.1.2-5-.2-5.5-2.6-.3-2.5,1.5-4,4.2-4.5,34.4-2.5,56.3-3.4,76.6-5.7,27.6-2.8,43-2.5,69.2-7.4,2.6-.6,6.3.1,6.5,3.3v.2h0Z"/>
  <path class="st9" d="M682,455.2c6-3.6,13.8,7,8.7,11.9-6.2,4.7-14.7-7-8.9-11.8h.2Z"/>
  <path class="st9" d="M423.5,458.9c4.8,6.9-7.1,15.5-11.9,8.4-3.9-6.7,6.8-14.5,11.8-8.6h0v.2Z"/>
  <path class="st9" d="M636.3,472.6c-.5,1.7-2.3,2.4-4.2,2.2-28.1-6.3-57.6-8.6-86.2-8.2-6.1,0-9.5.2-16.7.5-4.9,0-12.2.9-18.3.5-4.4-.6-3.6-5.6,0-6.5,17-2.2,34.1-2.3,47.8-2.2,21,.5,41.3,2.7,64.4,6.9,3.8,1,13.8,1.5,13,6.6v.2h.1Z"/>
  <path class="st9" d="M387.6,466.2c2.8,2.5-1.5,7.2-4.1,4.4-2.2-2.4,1.3-6.5,4-4.6h0v.2Z"/>
  <path class="st9" d="M374.3,467.3c2.8,2.3-.7,6.9-3.6,4.8-2.9-2.2.5-6.8,3.5-4.9h0Z"/>
  <path class="st9" d="M360.8,468c2.8,2-.2,7.1-3.3,5.5-3.3-1.8,0-7.4,3.2-5.6h0Z"/>
  <path class="st9" d="M335.2,471.4c0,2.6-3,3.9-5.4,4.1-17.5,2-33.9,3.2-50.6,4-15.2.7-29.7,2.9-44.3,2.6-4.7-.6-3.9-6.4.3-7.2,12.7-1.7,25.2-1.1,38.5-2.2,20.2-1.6,45.2-3.7,57-4.5,1.9-.2,4.4.7,4.5,3v.2Z"/>
  <path class="st9" d="M347.2,469.7c2.7,1.8,0,6.7-3,5.4-3.5-1.6-.5-7.2,2.8-5.5h.2Z"/>
  <path class="st9" d="M681.3,480.1c6.3-3.9,14.4,8,7.8,12-6.1,2.7-13-7.6-7.9-11.9h.1Z"/>
  <path class="st9" d="M421.7,484.2c4.5,7-7.6,14.6-11.7,7.8-3.6-6.5,7-13.7,11.6-7.9h.1Z"/>
  <path class="st9" d="M660.9,504.5c-.9,2.4-4.2,1.8-6.4,1.1-48.2-14.5-94.2-16.8-144.4-13.4-5.2-.1-5.1-6.1-.5-7.2,46.7-4.3,97.5-1.2,143.1,12.3,3.4.9,9.3,2.6,8.1,7.1v.2h.1Z"/>
  <path class="st9" d="M347.8,494.1c.6,3.8-5.1,4.7-7.8,5-21.3,1.9-52.9,5-79.2,6.2-9.9.3-19.9,1.5-29.8,1.5-4.3-.7-3.3-5.9.6-6.7,9.2-1.2,20-1,27.1-1.8,11.9-1,23.4-1.9,35-2.6,14.5-.9,30.6-2.3,48.2-4.2,2.2-.3,5.5,0,5.9,2.5v.2h0Z"/>
  <path class="st9" d="M680.6,504.9c5.6-3.7,13.5,5.7,9.1,10.8-5.7,5.3-14.7-5.7-9.2-10.7h.1Z"/>
  <path class="st9" d="M419,508.5c5.1,6.2-5.3,15.3-10.7,9-4.6-5.8,4.9-14.7,10.5-9.2h0v.2Z"/>
  <path class="st9" d="M505,513.8c-.3-3,3.1-4.3,5.8-4.4,39.1-2.9,74.3-1.9,113.4,5.4,7,1.4,14.1,2.7,20.8,5.1,3.8,1.4,4.9,7.1-.4,6.6-43.5-10.7-87.9-13.9-132.8-9.7-2.5.4-6.3,0-6.7-2.9v-.2h0Z"/>
  <path class="st9" d="M383,515.4c2.8,1.4.9,6.4-2.2,5.7-3.5-1-1.3-7,2-5.8h.2Z"/>
  <path class="st9" d="M370.2,516.7c2.9,2.4-1.1,7.2-3.9,5-2.6-2.2.9-6.9,3.8-5h.1Z"/>
  <path class="st9" d="M329.8,518.7c3.8,6.5-6.1,7-10.2,7.2-12.6,1-24.7,1.5-37.1,2.5-17.4,1.3-35.1,3.1-54.7,3.2-3.9-.4-4.2-5.1-.8-6.6,30.9-3.4,61.4-3,91.6-7.3,2.3-.2,4.9-.4,7.3-.4s2.9.3,3.8,1.3h.1Z"/>
  <path class="st9" d="M355.9,517.5c3.5,1.3,1.3,7.1-2.1,5.7-2.9-1.3-1.2-6.4,1.9-5.7h.2,0Z"/>
  <path class="st9" d="M343,519.2c2.6,1.9-.3,6.4-3.1,4.9-3-1.6,0-6.8,3-5h0Z"/>
  <path class="st9" d="M679.8,529.8c5.1-4.3,13.7,4.4,9.3,9.6-5.1,5.1-14.3-4.3-9.4-9.5h.1Z"/>
  <path class="st9" d="M418.1,535c3.8,7.2-8.7,14.1-12.5,6.7-3-6.9,8.3-13.1,12.4-6.9h0v.2Z"/>
  <path class="st9" d="M606,541.2c-.8,2.4-2.7,2.2-4.6,1.9-4-.5-8.4-1-12.4-1.4-27.3-3.2-54.8-1.4-82.3-.2-1.9-.2-3.2-1.7-2.9-3.5.3-2.6,3.4-3.5,5.7-3.7,28.2-2.5,55.7-2.6,83,.2,4.2.9,14.7,0,13.5,6.5v.2Z"/>
  <path class="st9" d="M221.5,552.9c0-3.3,4.1-4.3,7-4.3,42.4-1.5,69.9-4.2,107.5-7.1,7.7-.7,15.8-1.7,22.2-2.6,2.9-.3,5.9-.6,8.9-.4,6.5.9,3.8,7.2-1.5,7.3-47.5,4.6-88.6,8-137.7,10.5-2.6.3-6.4-.2-6.4-3.3v-.2h0Z"/>
  <path class="st9" d="M617.8,540.7c3.5-.3,4.3,5.3.8,5.8s-4.4-5.1-1-5.8h.2Z"/>
  <path class="st9" d="M630.2,543.1c3.3-1.2,5.7,4.6,2.4,6-3.2,1-5.4-4.4-2.5-5.9h0Z"/>
  <path class="st9" d="M642.7,546.6c2.9-1.6,6.2,3.3,3.7,5.5-3.1,2.4-6.9-3.3-3.8-5.4h0Z"/>
  <path class="st10" d="M655.1,550.5c3.3-1.7,6.3,4.1,3.2,5.7-3.1,1.5-6.1-3.7-3.3-5.6h0Z"/>
  <path class="st9" d="M679.4,554c6.1-3.8,14.5,7.9,8.2,12-6,2.7-13.2-7.4-8.3-11.9h0Z"/>
  <path class="st9" d="M416,559.6c4,6.8-7.8,14-11.8,7-3.2-6.5,7.4-13,11.7-7.1h0Z"/>
  <path class="st9" d="M379.2,566.2c2.7,1.6.4,6.4-2.6,5.4-3.4-1.3-.9-6.9,2.4-5.5h.2Z"/>
  <path class="st9" d="M366.4,566.7c2.9,1.8,0,7-3.1,5.6-3.2-1.6-.5-7.3,2.9-5.7h.2Z"/>
  <path class="st9" d="M325.3,570.6c0,3.5-4.3,4.4-7.1,4.5-2.5.2-5.8.5-8.6.7-19.4,1.6-24.4,2.1-35.6,2.7-21.7,1.2-38.3,2.2-49.7,2.9-2.5.4-5.9-.6-5.8-3.8,0-1.7,1.3-3.1,3-3.5,33.2-2.2,66.8-4.1,100.5-6.7,1.8.2,3.3,1.3,3.3,3v.2h0Z"/>
  <path class="st9" d="M352.3,567.8c3.2,1.3,1.4,7-2,6.1-3.5-1-1.8-7.1,1.9-6.2h.2-.1Z"/>
  <path class="st9" d="M338.1,569.3c3.5.5,2.8,6.8-.8,6.3-3.3-.6-2.6-6.4.6-6.3h.2Z"/>
  <path class="st9" d="M837.2,284.3c-.3-5,6.8-5.9,10.4-7.3,4.2-1.4,8.2-2.4,12.5-3.5,24.3-5.8,44.7-9.7,68.6-10.8,14.1-.8,28.7-1.3,43.7-1.3s2.6.1,3.8.7c1.6.7,2.6,2.5,2.2,4.2-.7,3.4-5,3.1-7.6,3.1-7.6,0-21.9-.2-28.1,0-20.4,1.4-40.8,3.6-59.1,6.7-11.4,1.9-24.6,5.1-39.5,9.6-2.3.8-6.2,1.6-6.8-1.2v-.2h0Z"/>
  <path class="st9" d="M1003.1,263.2c5.4-5.6,14.7,2.4,10.1,8.6-5.2,6.3-15.4-2-10.2-8.5h0Z"/>
  <path class="st9" d="M1235.6,282.4c-.8,4.9-5.7,3.2-9.7,2.9-4.5-.5-14.3-1.6-21.3-2.5-15.9-2.1-36.1-3.5-54.2-5.3-17.8-2.2-37.4-4.1-52.7-7-1.7-.7-3.3-2.3-3-4.2.4-2.5,4.3-2.4,6.5-2.2,21.5,1.3,39.9,4.8,60.6,6.8,22.3,3.7,44.1,5.3,67.5,6.6,2.8,0,6.5,1.4,6.4,4.6v.2h-.1Z"/>
  <path class="st9" d="M1262.1,279.8c5-4.8,14,3.4,9.9,9-4.9,5.9-15-3.2-10.1-8.9h.2Z"/>
  <path class="st9" d="M1004.7,287.2c5.3-5.9,15.3,2.8,9.9,8.8-5,5.3-14.6-2.5-10-8.7h0Z"/>
  <path class="st9" d="M951.5,290.3c-.3,3.6-4.7,4.2-7.7,4.1-7.5,0-13.6,0-20.1.5-15.4,1.2-34.3,3.7-47.8,6.5-11.3,2.1-22,6-34.5,9.4-3.8.6-4.8-3.8-2.2-5.9.9-.8,2.1-1.3,3.3-1.7,14.7-4.6,28.7-8.7,43.9-11.2,18.5-2.9,36.5-5.1,54.8-5.8,3.5,0,10-1.1,10.2,3.9v.2h0Z"/>
  <path class="st9" d="M1152.1,294.5c16.5,1.7,32.9,3.2,49.6,5.1,2.7.2,5.8,2.1,4.9,5.1-.7,2.4-3.4,3-5.5,2.7-13.5-1.5-36.8-4.6-54.1-6.6-14.5-1.7-33.6-3.7-44.7-5.1-3,0-6.6-2.2-5.3-5.6.9-2.4,3.8-2.5,6-2.2,8.8,1.1,17.5,2.3,26.1,3.5,7.7,1,15.3,2.1,22.8,3.1h.2Z"/>
  <path class="st9" d="M1265.1,305c5.3-6.1,15.9,2.9,10.9,8.8-5,5.5-15.2-2.6-11-8.6h0v-.2Z"/>
  <path class="st9" d="M1006.4,310.8c6.5-5.4,15.4,5.3,9,10.5-6.1,4.5-14.5-5-9.2-10.4h.2Z"/>
  <path class="st9" d="M952.5,313.7c.5,2.8-2.3,4.2-4.8,4.1-15.4.3-31.1,1.5-46.6,3.6-18.2,2.6-39.3,6.8-58.4,13.6-2,.6-4.5-.1-4.6-2.3-.3-3.5,4-5.1,6.9-6,20.7-7,33.5-8.8,52.7-12,16.2-2.5,32.5-3.5,49.2-4,2.2-.1,5.1.5,5.6,2.9v.2h0Z"/>
  <path class="st9" d="M1221.6,329c1.4,6.3-10.3,3.6-13.6,3.3-28.5-4.3-52.2-5.3-79.4-9.2-8-1.1-14.7-1.8-22.9-2.7-2.6-.2-6.5-.8-6.9-3.8-.3-2,1.2-3.4,3.3-3.5,14.1.9,26.6,3.3,40.9,4.3,23.5,2.3,40.5,5.6,68.1,6.9,3.8.2,9,.4,10.4,4.5v.2h0Z"/>
  <path class="st9" d="M1268.8,328.6c5.6-5.3,15.5,4.7,9.7,10.1-5.6,4.4-14.5-4.6-9.8-9.9h0v-.2Z"/>
  <path class="st9" d="M1008.3,335c6.1-4.8,14.5,4.6,9.1,10.2-6,5.6-15.3-4.2-9.2-10h0v-.2Z"/>
  <path class="st9" d="M929.3,338.5c.8,6.1-9.2,4.6-13,5.5-16.6,1.9-27.5,3.3-41,6.3-8.2,1.7-20.5,5.7-33,9-4.9.8-4.5-4.6-1.3-6.5,26.5-10,54.1-14.4,82.9-17,2.1-.2,4.8.2,5.2,2.5v.2h.2Z"/>
  <path class="st9" d="M951.7,338.4c2.4-3,7.1.6,4.8,3.7-2.3,2.8-6.8-.5-4.8-3.5h0v-.2Z"/>
  <path class="st9" d="M966.8,337.1c3.3-.9,5.2,4.7,2,6-3.5,1.3-5.5-4.7-2.1-6h.2,0Z"/>
  <path class="st9" d="M941,337.4c3.8.4,3,6.5-.6,5.9-3.2-.6-2.8-5.8.5-5.9h.2,0Z"/>
  <path class="st9" d="M1209.7,354.1c-.7,1.4-1.5,2.2-2.8,2.1-1.6-.2-8.1-.9-17.1-1.9-22.3-2.5-66.8-7.5-86.6-9.7-1.9-.1-3-4.1-1.5-5.8.5-.8,1.4-1.5,2.3-1.4,6.1.7,97.3,10.9,103.7,11.6,1.8.3,2.7,2.8,2,4.8v.2h0Z"/>
  <path class="st9" d="M981,337.7c3.2.3,3.4,5.5,0,6-3.8.4-4-5.9-.3-6h.2Z"/>
  <path class="st9" d="M1271.9,353.4c5.5-5.5,15.7,4.3,9.9,9.8-5.5,4.7-14.6-4.1-10-9.7h0Z"/>
  <path class="st9" d="M1218.7,352.7c2.7-1.5,5.8,3.1,3.3,5.1-2.8,1.9-6.1-3-3.5-5h.2Z"/>
  <path class="st9" d="M1231.5,354c2.5-1.5,5.7,2.7,3.5,4.7-2.6,2-6-2.6-3.6-4.6h0Z"/>
  <path class="st9" d="M1244.5,355.4c2.5-1.9,6.2,2.2,4,4.6-2.5,2.3-6.5-2.1-4.2-4.5h.2Z"/>
  <path class="st0" d="M1074.3,423.3c-2.2-2.1-2.3-7.5-.2-9.1,1.1-.8,2.4-.7,3.9-.6,21.3,2.5,40.8,5.3,60.7,7.4,24.2,2.5,48.1,5.1,75.9,8.3,1.8.2,3.4.4,4.7,1.6,1.6,1.4,2.2,4.5,1.8,6.8-.6,3.3-4.6,2.8-7.1,2.5-32.5-3-63.3-5.9-95.2-10.5-11.9-1.3-23.8-3-36.4-4.3-2.6-.4-5.9-.4-7.9-2h-.2Z"/>
  <path class="st9" d="M1235.6,460.9c-.8,4.9-5.7,3.2-9.7,2.9-4.5-.5-14.3-1.6-21.3-2.5-15.9-2.1-36.1-3.5-54.2-5.3-17.8-2.2-37.4-4.1-52.7-7-1.7-.7-3.3-2.3-3-4.2.4-2.5,4.3-2.4,6.5-2.2,21.5,1.3,39.9,4.8,60.6,6.8,22.3,3.7,44.1,5.3,67.5,6.6,2.8,0,6.5,1.4,6.4,4.6v.2h-.1Z"/>
  <path class="st9" d="M1262.1,458.3c5-4.8,14,3.4,9.9,9-4.9,5.9-15-3.2-10.1-8.9h.2Z"/>
  <path class="st9" d="M1152.1,473c16.5,1.7,32.9,3.2,49.6,5.1,2.7.2,5.8,2.1,4.9,5.1-.7,2.4-3.4,3-5.5,2.7-13.5-1.5-36.8-4.6-54.1-6.6-14.5-1.7-33.6-3.7-44.7-5.1-3,0-6.6-2.2-5.3-5.6.9-2.4,3.8-2.5,6-2.2,8.8,1.1,17.5,2.3,26.1,3.5,7.7,1,15.3,2.1,22.8,3.1h.2Z"/>
  <path class="st9" d="M1265.1,483.5c5.3-6.1,15.9,2.9,10.9,8.8-5,5.5-15.2-2.6-11-8.6h0v-.2Z"/>
  <path class="st9" d="M1221.6,507.5c1.4,6.3-10.3,3.6-13.6,3.3-28.5-4.3-52.2-5.3-79.4-9.2-8-1.1-14.7-1.8-22.9-2.7-2.6-.2-6.5-.8-6.9-3.8-.3-2,1.2-3.4,3.3-3.5,14.1.9,26.6,3.3,40.9,4.3,23.5,2.3,40.5,5.6,68.1,6.9,3.8.2,9,.4,10.4,4.5v.2h0Z"/>
  <path class="st9" d="M1268.8,507.1c5.6-5.3,15.5,4.7,9.7,10.1-5.6,4.4-14.5-4.6-9.8-9.9h0v-.2Z"/>
  <path class="st9" d="M1209.7,532.6c-.7,1.4-1.5,2.2-2.8,2.1-1.6-.2-8.1-.9-17.1-1.9-22.3-2.5-66.8-7.5-86.6-9.7-1.9-.1-3-4.1-1.5-5.8.5-.8,1.4-1.5,2.3-1.4,6.1.7,97.3,10.9,103.7,11.6,1.8.3,2.7,2.8,2,4.8v.2h0Z"/>
  <path class="st9" d="M1271.9,531.9c5.5-5.5,15.7,4.3,9.9,9.8-5.5,4.7-14.6-4.1-10-9.7h0Z"/>
  <path class="st9" d="M1218.7,531.2c2.7-1.5,5.8,3.1,3.3,5.1-2.8,1.9-6.1-3-3.5-5h.2Z"/>
  <path class="st9" d="M1231.5,532.5c2.5-1.5,5.7,2.7,3.5,4.7-2.6,2-6-2.6-3.6-4.6h0Z"/>
  <path class="st9" d="M1244.5,533.9c2.5-1.9,6.2,2.2,4,4.6-2.5,2.3-6.5-2.1-4.2-4.5h.2Z"/>
  <path class="st9" d="M1009.3,359.4c5.7-5.3,14.8,3.4,9.8,9.4-5.6,6.1-15.5-3-9.9-9.3h0Z"/>
  <path class="st9" d="M842.7,383.6c-2.9.2-4.1-3.1-2.3-5.3,1.2-1.6,3.4-2.5,5.4-3.1,14.6-4.6,25-7.3,37.2-9.5,17.5-3.1,35.8-5.1,55.1-6.1,2.5-.2,5.8.6,6.1,3.4.5,3.5-3.4,4.5-6.2,4.3-14.8,0-30.2,2.2-45.9,4.4-16.8,2-33.4,7.4-49.3,11.8h-.2.1Z"/>
  <path class="st9" d="M958.9,364.7c0,3.6-5.4,4.1-6.1.5-.7-4.4,5.8-5,6.1-.7v.2Z"/>
  <path class="st9" d="M969,361.8c3.3-.3,4.4,5,1.2,6-3.6,1-5.2-5.1-1.4-6h.2Z"/>
  <path class="st9" d="M985.3,365.4c0,3.4-5.1,3.9-5.8.5-.7-4.2,5.6-4.9,5.8-.7v.2Z"/>
  <path class="st9" d="M622.2,368.1c3.5-.7,4.7,5.8.9,6-3,0-3.9-5-1-6h.2-.1Z"/>
  <path class="st9" d="M634.7,370.4c3.5-1.1,5.5,5.3,1.6,6-3.1.4-4.6-4.6-1.8-5.9h.2Z"/>
  <path class="st10" d="M647.3,373.4c3.1-1.1,5.5,4.6,2.4,5.9-3,.9-5.2-4.3-2.6-5.8h.2Z"/>
  <path class="st9" d="M659.7,377c2.9-1.2,5.4,3.4,2.8,5.2-3.1,2-6.1-3.4-2.9-5.2h.1Z"/>
  <path class="st9" d="M976.6,438.9c-.2,2.5-3.3,3.3-5.6,3.2-10.5-.4-18.7-.2-28.5.2-18.6.5-36.9,1.9-56,5.7-13.3,2.5-26.6,5.9-39.9,10.2-2,.8-5.4.9-5.5-1.8-.2-2.9,3.1-4.5,5.5-5.3,39.4-13.6,82.2-17.7,124.5-15.9,2.3,0,5.7.8,5.6,3.5v.2h0Z"/>
  <path class="st9" d="M1012.5,437.9c4.4-6.3,15,.2,11.4,7-4.1,7-15.6.3-11.5-6.8v-.2h0Z"/>
  <path class="st9" d="M841.8,481c-.4-4.9,6.2-5.8,9.9-7.4,5.1-1.8,10.9-3.4,16.2-4.7,22.2-5.8,43.1-7.9,65.7-8.9,3.6-.2,7.1-.4,10.3-.6,3.4-.2,8,.2,6.9,4.9-.6,2.4-3.3,2.7-5.5,2.7-33.4.2-66,4.6-97.6,15.3-2,.8-5.3,1.3-5.9-1.2v-.2h0Z"/>
  <path class="st9" d="M1013.8,462.4c4-6,14.6,0,11.7,6.6-3.7,7.1-15.5.4-11.8-6.5h.1Z"/>
  <path class="st9" d="M845,507.7c-2.7,0-3.8-3.3-1.8-5.3,1.5-1.7,3.9-2.4,5.9-3.2,8.1-3,17.9-5.1,25.7-7.2,7-1.7,12.8-3,19.9-4.3,30.8-5.2,63.6-4.7,94.1-2.8,2.3.4,4.1,2.4,3.5,4.6-.5,2.5-4,2.8-6.4,2.7-26.9-1.2-38.1-1.5-58.4-.2-19.1.9-36.6,3.2-56.2,8-8.2,1.7-17.8,5.7-26.2,7.6h-.2,0Z"/>
  <path class="st9" d="M1015.2,486.1c5-6.3,16.2,2.4,10.9,8.7-5,5.4-15.2-2.4-11.1-8.6h.2Z"/>
  <path class="st9" d="M978,512.5c0,2.8-3.4,3.8-5.9,3.6-14.3-.7-29.5-.6-45.5.3-27.6,1.5-54,6.6-79.5,15.5-5,1.1-5.7-4.6-1.7-6.7,34.4-13.4,69.7-16.5,105.6-16.7,6.3,0,13.1,0,20.5.1,2.6,0,6.6.5,6.5,3.7v.2h0Z"/>
  <path class="st9" d="M1016.6,511.3c4.5-6.1,15.2.8,11.6,7.4-4.2,6.8-15.8-.2-11.7-7.3h0Z"/>
  <path class="st9" d="M843.4,553.9c-.5-2.6,2.2-4.5,4.5-5.2,27-9.5,56.6-14.2,85-15.3,2.2,0,5,.4,5.5,2.8.5,1.8-.6,3.8-2.4,4.5-29.2,1.9-58.1,5.3-86.5,15.1-2.2.8-5.5,1-6.1-1.7v-.2h0Z"/>
  <path class="st9" d="M1017.8,537.6c3.3-6.9,14.9-2.3,12.4,5.1-2.9,7.6-15.4,2.9-12.5-4.9v-.2h0Z"/>
  <path class="st9" d="M967.5,539.3c-.2,3.9-6,3.7-5.8-.3.3-3.7,5.7-3.5,5.8,0v.2Z"/>
  <path class="st9" d="M950.5,536.4c3.6-.7,4.8,5.6.9,5.8-2.9.2-4.1-4.8-1.1-5.8h.2Z"/>
  <path class="st9" d="M981.1,539.6c-.2,3.8-5.9,3.6-5.8-.3.3-3.6,5.6-3.5,5.8,0v.2Z"/>
  <path class="st10" d="M990.6,537.3c3.7-.9,5,5.1,1.4,5.8-3.2.5-4.6-4.6-1.5-5.7h.2,0Z"/>
  <path class="st10" d="M1340.4,231.7c16.2,81.6,31.6,156.1,42.1,212,.2,2.7-1.6-1-2-1.4-1.2-2-3.4-4.1-4.2-5.6-.8-1.3-.8-2.4-1.1-3.9-15.7-81.5-30.9-159-44.8-242.1-2.6-17-6-31.6-9.4-48.8-1.1-5.6-2.3-12.4-3.4-18.9-.8-4.3-1.5-9.2-2.9-13.1-.2-.6-.4-1.2-.5-1.7s0-.9,0-.9c0,0,.2,0,.4.2,2.4,3.1,3.1,7.4,3.7,10.9,4.4,26.8,15.8,79.4,22.1,113.2v.2h0Z"/>
  <path class="st10" d="M1355.1,229.2c15.6,72,28.3,142.4,42.1,212.7,15.8,81.6,30.4,159.2,43.2,236.4.2,1.3.5,2.7.7,4.1.3,1.7.6,3.8,0,4.1-.9-.9-1-2.6-1.4-4.1-2-9.2-3.5-18.7-5.8-27.8-11.1-51.1-21.6-103.8-31.9-155.1-23.9-118.6-48.1-252.6-67.2-367.1.5,0,1.2.4,1.2,1,1.5,7.5,17.6,89.1,18.7,94.6,0,.3,0,.6.2,1.1h.2Z"/>
  <path class="st10" d="M1415.3,635.6c-1.2-2.8-2.2-8.8-2.9-12.3-7.3-39.8-15.8-78.8-22.7-117-2.8-14.9-5.8-29.4-9.2-44.8-.5-1.9-.5-3.8,0-5.7.7-2.9,2.1-7.1,3.3-2.4,7,35.9,12.8,78.1,19.2,112.8,3.9,22.1,7.3,39.3,10.9,57.4.7,3.6,1.1,6.9,1.4,9.9,0,1.3,0,2.2,0,2.1h0Z"/>
  <path class="st2" d="M384.6,741.2c0-.2.5-.3,1.2-.5.4,0,.8-.2,1.3-.3,11.2-1.6,22.1-4.1,33.3-5.9,43.7-7.1,61.2-11,95.2-14.9,17.6-1.9,31.1-3.6,47.9-3.5,12.6.4,25.7,1.5,38.1,3.7,9,1.3,17.6,2.8,26.3,5.4,12.8,3.7,25.4,8.5,37.4,14.1.9.5,1.6,1,1.8,1.4.2.3,0,.6-.6.7-52-.4-183,.9-281.7-.2h-.2Z"/>
  <path class="st2" d="M848.6,741c.5-1.2,2.9-2.4,4.3-3,4.6-2.1,9.6-4.2,14.5-6,10.8-4.1,21.8-7.5,33.2-9.7,15.4-2.9,30.5-5.3,46-5.6,32.7-.7,66.9,4.6,98.4,9.8,16.5,3.1,32.2-.5,49.4,3.6.8.3,16.3,1.4,16.9,2,1.2,1.2,79.9,10,79.7,10.7,0,.5,19,10.2,18.9,10.2-6.7-.4-355.6-10.6-361.2-11.8h0v-.2Z"/>
  <path class="st2" d="M757.4,741.9c15.8,0,30.6,6.3,43.6,14.8,2.3,1.5,5.1,3,7.1,4.5.6.5,1.2,1.2,1,2-.2.6-.9,1.2-1.8,1.7-13.9,6.5-29.2,9.5-44.6,9.6-18.6.6-37.6-1.4-54.5-9.3-6.9-2.9,1.2-5.6,4.1-7.8,13.4-8.8,28.6-15.7,45-15.5h.2,0Z"/>
  <polygon class="st0" points="165.7 120.1 148.5 124.3 102.6 315.6 40.1 630.2 15.6 750.8 24.8 765.8 411.9 765.8 675.6 776.8 753.2 807.4 854.8 773.2 1278.3 768.4 1279.8 751 841.7 750.1 796.1 779.6 717.2 774.6 683.7 753.8 224.6 747 40.9 744.7 165.7 120.1"/>
  <path class="st12" d="M668.4,788.5"/>
  <path class="st7" d="M1500.1,720.1c-43.4-189.4-81.3-430.7-126.7-600.2-5.2-6.1-15.1-8.3-22.7-9-5.6-.2-7.5,1.7-13.2-3.6-14.3-13.2-26.2-37.3-41.6-47.2-12.1-4.4-28.2-2.1-41.3-2.8-58.2,0-116.5-13.5-172.6-29.8C976.3-.2,858-7.4,776,77.7c-30.2,34.6-8.3,26.3-43.9-5.1-139.5-133.3-314.5-18.2-475-15.5-39,1.9-34.9-6.7-61.7,28.3-6.9,8-13,16.9-21,23.6-4.4,2.9-10,1.4-15.3,2.2-22.2,2.9-26.1,23.5-29.3,42.3C92.4,342.9,52.4,533.3,13.8,722.3c-6.2,19.5-9.7,47.1,16,52.8,5.3.6,14.1,1.1,25.1,1.3h92.4c43.6-.4,87.5-.8,110.8,0h83.4c36.6-1,73.3-.6,110,0h54.4l164.7,2.8c15.6,15.3,37.1,22.4,58.5,26.6,12.4,2.1,27.2,3.1,44,1.9,1.6,0,4.2.3,7.8-.7,31-8.7,52.4-17.9,81-31.7h622.6c3.9-7.9,7.9-16.2,11-22.9,2.4-6.2,3.4-9.8,5.4-12.5v-18.7c-.5-.3-.8-.6-.9-1.1ZM1330.4,118.2c9.4,10.1,19.6,20.3,20.9,34.8,34.5,188.4,88.1,401.5,113.2,577-17.1-19.1-36.4-37.1-52.2-57.3-14.7-66.9-23.8-130.3-37.6-196.6-.4-2.8-.8-5.5-1.5-7.5,0,0,.1,0,.2,0-17.4-126.1-51.1-267-67.9-378.4,9.1,8.2,17,18.9,24.9,28.1ZM1070.4,718c-77.7-14-161.6-26.8-233.2,16.7-4.2,2.9-9.4,6-13.8,1.6-16-11.7-33.2-20-52.6-23.5-5.6-1.8,3.2-8.4,4.5-11.2,72.1-77,162.7-90.8,295.1-57.6,90.4,24.8,201.7,40.7,201.7,40.7,45,4,87.9,4.4,128.5-3.6,3-.7,5.3,1.4,7.1,3.5,14.9,16.4,36.4,38.7,49.3,55-2.6,1.9-8.5,1-12.4,1.5-24.8.7-50.7,1.3-75.5.3-20.4-2.2-41.4-1.4-62.2-1-8.6-.3-19.9-.5-34.8-.3-87.8.8-201.7-22.1-201.7-22.1ZM1189.1,748c-66.5-2.8-155.5-7-162.2-7-52.5,0-120.5-.9-171.1-2.1,61-30.4,134.2-21.9,200.8-8.8,3.9.8,8.4,1.8,13.8,2.8,32.3,6.1,78.5,11.3,118.6,15.1ZM1287.3,71.9c18.7,92.6,60.9,317,76.3,397,0,0-.1.1-.2.2,9.2,63.1,22,118.3,33.6,184,.4,5.6,6.9,16.3-1.9,16.9-40.6,5.5-82.2,6.1-123,1.9v.8c-38.3-3-201.7-42.2-201.7-42.2h-.3c-.7,0-1.4-.2-2.2-.6-97.9-28.7-237.2-23.3-304.9,67.6.3-144.2,1.1-280.9.3-413.3h0c1.7-55.7-4-113.9,1.8-169.1,120-181.6,345.3-38.5,522.2-43.3ZM761.7,123.8h0c.4,0,.7.2.9.4l-.9.4v-.8ZM786.5,727.2h0c12.7,5,26.2,12.5,36.2,22.2.8,1.8-.7,3.7-2.4,4.3-4.8,1.8-10.3-3.3-14.3-5.7-34.1-25.1-72.4-20-105.1,4.8-1.7,1-3.7,1.7-5.5.9-2-.8-3.2-3.2-2-5.1,24.8-24,61.2-32.5,93.1-21.4ZM807.5,762.7c-25,15-76,13.1-100,.5,27.9-27,72.1-24.4,100-.5ZM512.1,707.8v-.2c-5.4,1.3-11.3,3.3-17.1,4-45.1,5-93.1,18.7-139.2,22.1-98.5,12.2-196.9,4.4-295.2,6.2-6.9.4.7-5.1,2.3-7.3,13.7-16.8,30.3-33.6,45.2-49.7.6-.8,3.1-.5,4.8-.4,103.2,16.7,206.5-6.8,305-32.8,105.8-27.7,162.7-34.7,240.3-6.9,34,13.2,66,35.5,87.3,65.6,1.2,1.7,1.4,3.5-.8,4.3-18.8,3.6-36.6,12.3-52.3,23.5-3.1,2.3-6,3.1-9.7,1.1-48.7-29.2-108.1-39.5-170.6-29.5ZM659.9,738.4c-51.4,4.9-192.5,1.3-254.7.8,86.2-15.3,172.9-37.8,254.7-.8ZM698.7,46.9h0c0,0-.4.9-.4.9,0,0-.3-.2-.5-.4.3-.3.6-.4.9-.5ZM215.9,126.7v-.2c2.6-8.8,6.8-56.1,13.7-55.3,115.7,4.6,219.7-46.9,333.5-50,52.4-1.8,148,27.1,186.1,94.6,5.4,187.2-2,373,2,574.9.4,11.1-6.5.6-9.6-2.8-8.1-9.6-17.8-18.1-27.7-25.7-78.4-55.6-176.4-56.1-262.9-32.6-108.4,26.9-220.5,60.1-332.4,40.8-2.8-.5-5.2-1.7-4.2-4.9,33.9-158.2,70.7-371.7,101.5-538.8ZM208.8,91.5c-29.9,186.8-75.2,389.3-104.4,574.9-.6,3.6-1.3,6.9-3.5,9.5-6.8,7.9-36.7,39.8-49,53.8-.6.7-1.5,1.7-2.2,1.9-.6,0-.6-1.1-.3-2.8,15.6-86.3,32.5-170.2,49.3-252,25.2-112.1,42.8-225.6,71-340.5h0c13.2-13.8,24.8-32.2,39.2-44.8ZM1478,761c-1.8,2.5-5.9,1.9-8.8,1.9-67.1-.3-130.5.9-197.1-.2l-410.2-.3-19.4,10.2c-32.7,16.9-76.1,31.1-109,21.3-19.6-2.4-42.7-10.9-57.8-28.5-2.1-1.5-4.3-.6-10.2-1-206.9-6.9-413.9,1.2-621.6-1.7h-.2c-9.1.3-20.5-.8-21.2-11C60.4,573.1,92.6,364.6,154.3,126.6c1.7-1.4,5.1-2.2,7-2.3,1.2.2.2,1.2-.3,1.9-54.5,193-81.4,398.8-125.7,598.2-2.9,18.6-10.4,31.3,16.1,29.5,209.9,3.3,428.7-5.8,631.1,3.3,30.3,40.9,122.4,40,153.6.9,2.4-3.1,6.6-4.4,10.3-4.5,20,1.4,40.3-.7,60.3.6-.1,0-.3,0-.4.1l361.8,1.8-2.2-1.7c4,.3,6.3.4,6.3.4,76.1-3.7,128.6.8,202.6-1.3,5.9-.3,8.7-4.1,7.4-9.8-43.6-206.2-74.8-414.5-129.4-616.8-3.6-4.5,6.4-.6,7.8.7h0c50.4,195.6,83.2,401.7,127.5,602.9.2,10.4-5.6,21-10,30.5Z"/>
</svg>